<svg viewBox="0 0 64 64" xmlns="http://www.w3.org/2000/svg"><g fill="#b0bec5"><path d="m24 12.47a12 12 0 0 1 -24 .4 1.93 1.93 0 0 1 .58-1.49l1-1a2 2 0 0 1 2.83 0l3 3a2 2 0 0 0 1.42.62h3.17a2 2 0 0 0 2-2v-3.17a2 2 0 0 0 -.59-1.41l-3-3a2 2 0 0 1 0-2.83l1-1a1.93 1.93 0 0 1 1.46-.59 12 12 0 0 1 11.13 12.47z"/><path d="m40 51.56a12 12 0 0 1 24-.4 1.93 1.93 0 0 1 -.58 1.49l-1 1a2 2 0 0 1 -2.83 0l-3-3a2 2 0 0 0 -1.39-.65h-3.2a2 2 0 0 0 -2 2v3.2a2 2 0 0 0 .59 1.41l3 3a2 2 0 0 1 0 2.83l-1 1a1.93 1.93 0 0 1 -1.49.58 12 12 0 0 1 -11.1-12.46z"/><path d="m26 10.79h12v42.43h-12z" transform="matrix(.70710678 -.70710678 .70710678 .70710678 -13.25 32)"/></g><path d="m29.17 17.86h5.66v28.28h-5.66z" fill="#92a6ad" transform="matrix(.70710678 -.70710678 .70710678 .70710678 -13.25 32)"/><path d="m28 32 26-26v-2l8-4 2 2-4 8h-2l-26 26z" fill="#cfd8dd"/><path d="m0 58.34a5.66 5.66 0 0 0 5.66 5.66 5.66 5.66 0 0 0 4-1.66l24.93-24.93a2 2 0 0 0 0-2.83l-5.17-5.17a2 2 0 0 0 -2.83 0l-24.93 24.93a5.66 5.66 0 0 0 -1.66 4z" fill="#0090e0"/><path d="m28 36-22 22" fill="none" stroke="#0073b3" stroke-linecap="round" stroke-linejoin="round" stroke-width="2"/></svg>