<?xml version="1.0" encoding="UTF-8" standalone="no"?>
<!-- Created with Inkscape (http://www.inkscape.org/) -->

<svg
   xmlns:dc="http://purl.org/dc/elements/1.1/"
   xmlns:cc="http://creativecommons.org/ns#"
   xmlns:rdf="http://www.w3.org/1999/02/22-rdf-syntax-ns#"
   xmlns:svg="http://www.w3.org/2000/svg"
   xmlns="http://www.w3.org/2000/svg"
   xmlns:sodipodi="http://sodipodi.sourceforge.net/DTD/sodipodi-0.dtd"
   xmlns:inkscape="http://www.inkscape.org/namespaces/inkscape"
   width="103.68385mm"
   height="112.00729mm"
   viewBox="0 0 103.68386 112.00729"
   version="1.1"
   id="svg3505"
   inkscape:version="0.92.3 (2405546, 2018-03-11)"
   sodipodi:docname="baby_5.svg">
  <defs
     id="defs3499" />
  <sodipodi:namedview
     id="base"
     pagecolor="#ffffff"
     bordercolor="#666666"
     borderopacity="1.0"
     inkscape:pageopacity="0.0"
     inkscape:pageshadow="2"
     inkscape:zoom="0.35"
     inkscape:cx="283.99642"
     inkscape:cy="227.71637"
     inkscape:document-units="mm"
     inkscape:current-layer="layer1"
     showgrid="false"
     fit-margin-top="0"
     fit-margin-left="0"
     fit-margin-right="0"
     fit-margin-bottom="0"
     inkscape:window-width="1853"
     inkscape:window-height="1025"
     inkscape:window-x="67"
     inkscape:window-y="27"
     inkscape:window-maximized="1" />
  <metadata
     id="metadata3502">
    <rdf:RDF>
      <cc:Work
         rdf:about="">
        <dc:format>image/svg+xml</dc:format>
        <dc:type
           rdf:resource="http://purl.org/dc/dcmitype/StillImage" />
        <dc:title></dc:title>
      </cc:Work>
    </rdf:RDF>
  </metadata>
  <g
     inkscape:label="Capa 1"
     inkscape:groupmode="layer"
     id="layer1"
     transform="translate(-30.692615,-36.599806)">
    <g
       transform="matrix(0.35277777,0,0,-0.35277777,-275.46335,2035.9542)"
       id="g4075">
      <g
         transform="translate(1050.6104,5373.2314)"
         id="g278">
        <path
           inkscape:connector-curvature="0"
           id="path280"
           style="fill:#fcd7b9;fill-opacity:1;fill-rule:nonzero;stroke:none"
           d="m 0,0 c 3.19,5.803 5.007,12.461 5.007,19.542 0,4.868 -0.909,9.616 -2.56,14.054 7.846,8.245 11.906,20.385 12.312,37.043 l 0.032,2.829 h -0.152 c -1.427,13.712 -13.035,24.445 -27.13,24.445 -5.879,0 -11.501,-1.844 -16.172,-5.309 l -1.203,-0.853 c -3.395,-2.226 -8.414,-2.14 -11.559,-0.09 l -1.256,0.894 c -4.724,3.491 -10.337,5.349 -16.244,5.349 -14.09,0 -25.722,-10.729 -27.153,-24.442 h -0.146 V 70.63 h 0.031 c 0.406,-16.663 4.448,-28.813 12.311,-37.056 -1.657,-4.434 -2.559,-9.178 -2.559,-14.051 0,-7.085 1.834,-13.776 5.038,-19.596 -50.602,15.501 -85.332,61.71 -85.332,115.388 0,0.473 0.024,0.944 0.033,1.435 0.027,2.037 0.102,4.044 0.227,6.053 0.004,0.09 0.012,0.17 0.015,0.256 0.121,1.892 0.287,3.77 0.495,5.636 0.02,0.207 0.042,0.407 0.066,0.598 0.207,1.77 0.451,3.509 0.728,5.255 0.042,0.254 0.078,0.485 0.117,0.741 0.289,1.715 0.614,3.421 0.969,5.109 0.054,0.235 0.091,0.462 0.147,0.701 0.385,1.747 0.798,3.485 1.261,5.192 0.04,0.143 0.078,0.293 0.111,0.445 4.609,17.113 12.878,32.741 23.927,45.966 0.039,0.06 0.087,0.097 0.126,0.152 22.193,26.5 55.519,43.388 92.71,43.388 1.329,0 2.636,-0.055 3.952,-0.084 0.056,-0.006 0.111,-0.023 0.169,-0.029 0.158,-0.033 0.318,-0.043 0.468,-0.043 0.066,0 0.119,0.049 0.184,0.049 57.892,-2.278 105.441,-45.395 114.544,-101.292 0.008,-0.018 0.008,-0.041 0.016,-0.056 0.942,-5.782 1.461,-11.69 1.571,-17.693 h 0.007 c 0.009,-0.599 0.042,-1.175 0.042,-1.779 C 85.117,61.737 50.47,15.553 0,0" />
      </g>
      <g
         transform="translate(1058.7119,5528.3613)"
         id="g282">
        <path
           inkscape:connector-curvature="0"
           id="path284"
           style="fill:#00354b;fill-opacity:1;fill-rule:nonzero;stroke:none"
           d="m 0,0 c -10.325,0 -19.495,-6.544 -22.81,-16.272 -0.735,-2.124 0.405,-4.452 2.544,-5.188 0.43,-0.143 0.875,-0.215 1.314,-0.215 1.699,0 3.285,1.068 3.859,2.767 2.193,6.426 8.252,10.747 15.078,10.747 6.687,0 12.697,-4.201 15.011,-10.477 0.765,-2.127 3.117,-3.203 5.213,-2.447 2.13,0.773 3.213,3.133 2.455,5.24 C 19.205,-6.368 10.095,0 0,0" />
      </g>
      <g
         transform="translate(971.3574,5528.3721)"
         id="g286">
        <path
           inkscape:connector-curvature="0"
           id="path288"
           style="fill:#00354b;fill-opacity:1;fill-rule:nonzero;stroke:none"
           d="m 0,0 c -10.119,0 -19.232,-6.379 -22.667,-15.875 -0.768,-2.118 0.331,-4.464 2.454,-5.221 2.11,-0.764 4.454,0.336 5.224,2.456 2.269,6.267 8.289,10.468 14.989,10.468 6.83,0 12.884,-4.321 15.057,-10.74 0.578,-1.706 2.167,-2.778 3.867,-2.778 0.43,0 0.875,0.077 1.307,0.219 2.137,0.726 3.286,3.037 2.561,5.184 C 19.49,-6.537 10.334,0 0,0" />
      </g>
      <g
         transform="translate(961.1523,5545.7207)"
         id="g290">
        <path
           inkscape:connector-curvature="0"
           id="path292"
           style="fill:#00354b;fill-opacity:1;fill-rule:nonzero;stroke:none"
           d="m 0,0 c 0,2.259 -1.83,4.076 -4.083,4.076 -10.121,0 -19.231,-6.37 -22.664,-15.866 -0.77,-2.121 0.331,-4.467 2.452,-5.226 0.452,-0.165 0.922,-0.253 1.386,-0.253 1.664,0 3.236,1.036 3.833,2.694 2.265,6.276 8.294,10.478 14.993,10.478 C -1.83,-4.082 0,-2.249 0,0" />
      </g>
      <g
         transform="translate(1073.9712,5549.7969)"
         id="g294">
        <path
           inkscape:connector-curvature="0"
           id="path296"
           style="fill:#00354b;fill-opacity:1;fill-rule:nonzero;stroke:none"
           d="m 0,0 c -2.256,0 -4.082,-1.817 -4.082,-4.082 0,-2.259 1.826,-4.085 4.082,-4.085 6.697,0 12.717,-4.199 14.988,-10.465 0.598,-1.669 2.168,-2.698 3.836,-2.698 0.462,0 0.932,0.088 1.385,0.247 2.122,0.768 3.215,3.119 2.456,5.233 C 19.229,-6.37 10.125,0 0,0" />
      </g>
      <g
         transform="translate(882.5508,5504.6924)"
         id="g298">
        <path
           inkscape:connector-curvature="0"
           id="path300"
           style="fill:#ffeac2;fill-opacity:1;fill-rule:nonzero;stroke:none"
           d="M 0,0 C 0.244,0.159 0.502,0.272 0.752,0.423 1.904,1.055 3.128,1.581 4.452,1.875 4.427,1.701 4.419,1.531 4.397,1.357 4.069,-1.042 3.813,-3.47 3.623,-5.899 3.572,-6.499 3.51,-7.127 3.471,-7.732 3.32,-10.037 3.215,-12.382 3.193,-14.711 h 0.019 c -0.003,-0.475 -0.05,-0.938 -0.05,-1.443 0,-3.092 0.133,-6.136 0.342,-9.174 -0.025,0.011 -0.041,0.016 -0.06,0.025 -2.683,0.828 -5.012,2.454 -6.759,4.558 -0.158,0.19 -0.324,0.376 -0.471,0.582 -0.271,0.367 -0.5,0.761 -0.737,1.142 -0.214,0.351 -0.417,0.725 -0.597,1.099 -0.168,0.344 -0.318,0.688 -0.454,1.044 -0.192,0.505 -0.347,1.014 -0.482,1.54 -0.071,0.288 -0.167,0.589 -0.218,0.868 -0.166,0.827 -0.268,1.706 -0.268,2.585 v 0.031 c 0,0.899 0.102,1.78 0.268,2.63 0.059,0.304 0.157,0.6 0.234,0.886 0.142,0.55 0.295,1.1 0.501,1.619 0.133,0.331 0.294,0.662 0.453,0.972 0.21,0.423 0.433,0.861 0.684,1.274 0.212,0.337 0.435,0.663 0.669,0.982 0.26,0.342 0.538,0.677 0.831,0.995 0.282,0.315 0.569,0.625 0.883,0.934 0.283,0.255 0.587,0.488 0.888,0.733 C -0.763,-0.553 -0.403,-0.254 0,0" />
      </g>
      <g
         transform="translate(1014.8838,5356.1172)"
         id="g302">
        <path
           inkscape:connector-curvature="0"
           id="path304"
           style="fill:#66d4ca;fill-opacity:1;fill-rule:nonzero;stroke:none"
           d="m 0,0 c -20.211,0 -36.65,16.421 -36.65,36.647 0,14.159 8.414,27.052 21.119,33.043 0.337,-1.572 0.959,-3.02 1.728,-4.388 -9.906,-5.158 -16.229,-15.286 -16.229,-26.598 0,-16.566 13.473,-30.017 30.032,-30.017 16.559,0 30.029,13.478 30.029,30.017 0,11.312 -6.324,21.44 -16.242,26.598 0.764,1.368 1.403,2.816 1.737,4.388 C 28.232,63.699 36.651,50.8 36.651,36.656 36.651,16.437 20.212,0 0,0" />
      </g>
      <g
         transform="translate(1014.8838,5402.1836)"
         id="g306">
        <path
           inkscape:connector-curvature="0"
           id="path308"
           style="fill:#66d4ca;fill-opacity:1;fill-rule:nonzero;stroke:none"
           d="m 0,0 c -9.727,0 -17.307,1.375 -23.255,4.057 2.487,5.061 6.569,9.285 11.824,11.868 2.893,-2.995 6.927,-4.901 11.431,-4.901 4.498,0 8.531,1.906 11.427,4.901 C 16.687,13.336 20.77,9.118 23.25,4.037 17.309,1.369 9.727,0 0,0" />
      </g>
      <g
         transform="translate(1040.5811,5398.3145)"
         id="g310">
        <path
           inkscape:connector-curvature="0"
           id="path312"
           style="fill:#fcd7b9;fill-opacity:1;fill-rule:nonzero;stroke:none"
           d="m 0,0 c 0.159,-1.149 0.254,-2.301 0.254,-3.493 0,-14.313 -11.646,-25.943 -25.947,-25.943 -14.311,0 -25.947,11.649 -25.947,25.943 0,1.181 0.084,2.335 0.252,3.493 6.861,-2.879 15.309,-4.284 25.702,-4.284 C -15.291,-4.29 -6.856,-2.879 0,0" />
      </g>
      <g
         transform="translate(1003.0942,5429.0889)"
         id="g314">
        <path
           inkscape:connector-curvature="0"
           id="path316"
           style="fill:#66d4ca;fill-opacity:1;fill-rule:nonzero;stroke:none"
           d="m 0,0 c 0,6.503 5.285,11.795 11.794,11.795 6.494,0 11.797,-5.292 11.764,-11.995 -0.039,-2.296 -0.734,-4.432 -1.913,-6.209 l -0.598,-0.765 c -0.557,-0.709 -1.156,-1.319 -1.818,-1.875 -0.054,-0.048 -0.096,-0.089 -0.145,-0.125 -0.588,-0.474 -1.25,-0.881 -1.919,-1.233 -0.113,-0.075 -0.258,-0.136 -0.375,-0.204 -0.623,-0.297 -1.275,-0.527 -1.955,-0.718 -0.167,-0.049 -0.317,-0.097 -0.485,-0.146 -0.85,-0.189 -1.703,-0.286 -2.552,-0.286 -0.869,0 -1.722,0.097 -2.551,0.286 -0.175,0.049 -0.334,0.097 -0.503,0.155 -0.668,0.189 -1.323,0.412 -1.952,0.709 -0.12,0.068 -0.251,0.129 -0.375,0.204 -0.67,0.352 -1.315,0.759 -1.91,1.233 -0.053,0.056 -0.098,0.086 -0.154,0.133 -0.662,0.559 -1.271,1.158 -1.819,1.867 L 1.935,-6.409 C 0.72,-4.594 0,-2.376 0,0" />
      </g>
      <g
         transform="translate(1027.8335,5438.209)"
         id="g318">
        <path
           inkscape:connector-curvature="0"
           id="path320"
           style="fill:#66d4ca;fill-opacity:1;fill-rule:nonzero;stroke:none"
           d="M 0,0 C -0.328,0.446 -0.7,0.885 -1.076,1.284 -1.365,1.603 -1.641,1.936 -1.955,2.241 -2.384,2.646 -2.832,2.99 -3.269,3.347 -3.596,3.603 -3.908,3.893 -4.258,4.114 -4.761,4.435 -5.31,4.705 -5.87,4.976 -6.228,5.16 -6.554,5.373 -6.93,5.523 c -0.597,0.258 -1.275,0.423 -1.953,0.602 -0.334,0.086 -0.621,0.229 -0.964,0.286 -1.013,0.21 -2.061,0.309 -3.129,0.309 -1.072,0 -2.109,-0.099 -3.112,-0.309 -0.385,-0.08 -0.739,-0.232 -1.11,-0.32 -0.598,-0.166 -1.203,-0.32 -1.787,-0.559 -0.469,-0.204 -0.916,-0.464 -1.371,-0.711 -0.415,-0.238 -0.828,-0.425 -1.219,-0.658 -0.538,-0.351 -1.021,-0.777 -1.512,-1.173 -0.253,-0.215 -0.511,-0.399 -0.75,-0.607 -0.56,-0.527 -1.053,-1.109 -1.531,-1.706 -0.106,-0.133 -0.249,-0.269 -0.357,-0.432 -0.511,-0.683 -0.936,-1.425 -1.33,-2.172 -0.054,-0.093 -0.11,-0.202 -0.156,-0.291 -0.387,-0.766 -0.688,-1.608 -0.933,-2.459 -0.039,-0.105 -0.086,-0.25 -0.12,-0.361 -0.207,-0.763 -0.334,-1.594 -0.423,-2.4 -0.022,-0.167 -0.084,-0.325 -0.088,-0.497 -7.685,-3.242 -14.032,-8.76 -18.408,-15.558 -5.211,6.821 -7.896,16.67 -8.128,29.99 0.436,10.151 8.846,18.285 19.122,18.285 4.139,0 8.079,-1.287 11.45,-3.799 l 1.434,-1.007 c 6.058,-4 14.487,-4.078 20.786,0.084 l 1.378,0.971 c 3.316,2.464 7.231,3.751 11.385,3.751 10.284,0 18.674,-8.134 19.135,-18.294 C 29.122,-6.809 26.46,-16.663 21.255,-23.493 16.902,-16.72 10.545,-11.185 2.878,-7.94 2.846,-7.573 2.759,-7.229 2.694,-6.864 2.615,-6.386 2.575,-5.926 2.439,-5.455 2.319,-4.886 2.145,-4.37 1.953,-3.851 1.8,-3.427 1.664,-2.984 1.474,-2.574 1.233,-2.067 0.962,-1.603 0.677,-1.124 0.461,-0.75 0.253,-0.353 0,0" />
      </g>
      <g
         transform="translate(1153.3247,5490.1904)"
         id="g322">
        <path
           inkscape:connector-curvature="0"
           id="path324"
           style="fill:#ffeac2;fill-opacity:1;fill-rule:nonzero;stroke:none"
           d="m 0,0 c -0.056,-0.286 -0.145,-0.571 -0.216,-0.863 -0.135,-0.523 -0.295,-1.043 -0.487,-1.545 -0.135,-0.346 -0.285,-0.695 -0.439,-1.028 -0.191,-0.382 -0.4,-0.748 -0.598,-1.108 -0.232,-0.389 -0.453,-0.765 -0.734,-1.126 -0.142,-0.213 -0.318,-0.397 -0.468,-0.589 -1.755,-2.12 -4.092,-3.738 -6.795,-4.567 -0.006,0 -0.013,-0.009 -0.031,-0.009 0.213,3.038 0.351,6.091 0.351,9.179 0,0.596 -0.071,1.177 -0.079,1.785 h 0.031 c -0.039,2.27 -0.128,4.503 -0.272,6.735 -0.046,0.649 -0.109,1.284 -0.166,1.947 -0.184,2.273 -0.421,4.502 -0.727,6.731 -0.046,0.269 -0.061,0.562 -0.085,0.827 1.362,-0.309 2.637,-0.851 3.825,-1.532 0.207,-0.111 0.423,-0.213 0.598,-0.335 0.424,-0.254 0.805,-0.589 1.213,-0.906 0.261,-0.218 0.557,-0.424 0.787,-0.664 0.334,-0.301 0.64,-0.637 0.94,-0.981 0.264,-0.294 0.538,-0.598 0.767,-0.933 0.256,-0.334 0.47,-0.678 0.702,-1.035 0.254,-0.401 0.447,-0.796 0.662,-1.219 0.161,-0.342 0.335,-0.68 0.463,-1.036 0.206,-0.505 0.35,-1.032 0.485,-1.564 C -0.186,5.858 -0.089,5.573 -0.015,5.238 0.143,4.385 0.238,3.511 0.238,2.6 V 2.569 C 0.263,1.715 0.158,0.844 0,0" />
      </g>
      <g
         transform="translate(989.1929,5443.0645)"
         id="g326">
        <path
           inkscape:connector-curvature="0"
           id="path328"
           style="fill:#00354b;fill-opacity:1;fill-rule:nonzero;stroke:none"
           d="m 0,0 c -1.781,0 -3.222,1.446 -3.222,3.225 0,1.783 1.449,3.218 3.222,3.218 1.782,0 3.222,-1.455 3.222,-3.218 C 3.222,1.446 1.774,0 0,0 m 0,10.522 c -4.023,0 -7.304,-3.273 -7.304,-7.297 0,-4.022 3.281,-7.305 7.304,-7.305 4.021,0 7.302,3.283 7.302,7.305 0,4.024 -3.281,7.297 -7.302,7.297" />
      </g>
      <g
         transform="translate(1040.9326,5449.5078)"
         id="g330">
        <path
           inkscape:connector-curvature="0"
           id="path332"
           style="fill:#00354b;fill-opacity:1;fill-rule:nonzero;stroke:none"
           d="m 0,0 c 1.777,0 3.222,-1.455 3.222,-3.219 0,-1.778 -1.445,-3.224 -3.222,-3.224 -1.787,0 -3.223,1.446 -3.223,3.224 C -3.223,-1.455 -1.777,0 0,0 m 0,-10.523 c 4.025,0 7.301,3.283 7.301,7.304 0,4.025 -3.276,7.298 -7.301,7.298 -4.027,0 -7.303,-3.273 -7.303,-7.298 0,-4.021 3.276,-7.304 7.303,-7.304" />
      </g>
      <g
         transform="translate(1153.3247,5490.1904)"
         id="g334">
        <path
           inkscape:connector-curvature="0"
           id="path336"
           style="fill:#00354b;fill-opacity:1;fill-rule:nonzero;stroke:none"
           d="m 0,0 c -0.056,-0.286 -0.145,-0.571 -0.216,-0.863 -0.135,-0.523 -0.295,-1.043 -0.487,-1.545 -0.135,-0.346 -0.285,-0.695 -0.439,-1.028 -0.191,-0.382 -0.4,-0.748 -0.598,-1.108 -0.232,-0.389 -0.453,-0.765 -0.734,-1.126 -0.142,-0.213 -0.318,-0.397 -0.468,-0.589 -1.755,-2.12 -4.092,-3.738 -6.795,-4.567 -0.006,0 -0.013,-0.009 -0.031,-0.009 0.213,3.038 0.351,6.091 0.351,9.179 0,0.596 -0.071,1.177 -0.079,1.785 h 0.031 c -0.039,2.27 -0.128,4.503 -0.272,6.735 -0.046,0.649 -0.109,1.284 -0.166,1.947 -0.184,2.273 -0.421,4.502 -0.727,6.731 -0.046,0.269 -0.061,0.562 -0.085,0.827 1.362,-0.309 2.637,-0.851 3.825,-1.532 0.207,-0.111 0.423,-0.213 0.598,-0.335 0.424,-0.254 0.805,-0.589 1.213,-0.906 0.261,-0.218 0.557,-0.424 0.787,-0.664 0.334,-0.301 0.64,-0.637 0.94,-0.981 0.264,-0.294 0.538,-0.598 0.767,-0.933 0.256,-0.334 0.47,-0.678 0.702,-1.035 0.254,-0.401 0.447,-0.796 0.662,-1.219 0.161,-0.342 0.335,-0.68 0.463,-1.036 0.206,-0.505 0.35,-1.032 0.485,-1.564 C -0.186,5.858 -0.089,5.573 -0.015,5.238 0.143,4.385 0.238,3.511 0.238,2.6 V 2.569 C 0.263,1.715 0.158,0.844 0,0 m -102.714,-116.959 c 3.19,5.803 5.006,12.461 5.006,19.542 0,4.868 -0.908,9.616 -2.56,14.054 7.847,8.245 11.906,20.385 12.312,37.043 l 0.033,2.829 h -0.152 c -1.427,13.712 -13.036,24.445 -27.131,24.445 -5.878,0 -11.5,-1.844 -16.171,-5.308 l -1.203,-0.854 c -3.396,-2.226 -8.414,-2.14 -11.56,-0.09 l -1.256,0.894 c -4.724,3.491 -10.336,5.349 -16.244,5.349 -14.089,0 -25.722,-10.729 -27.152,-24.442 h -0.146 v -2.832 h 0.03 c 0.407,-16.663 4.449,-28.813 12.312,-37.056 -1.657,-4.434 -2.56,-9.178 -2.56,-14.051 0,-7.085 1.835,-13.776 5.038,-19.596 -50.602,15.501 -85.331,61.71 -85.331,115.388 0,0.473 0.023,0.944 0.033,1.435 0.027,2.037 0.102,4.044 0.227,6.053 0.004,0.09 0.011,0.17 0.015,0.256 0.121,1.892 0.286,3.77 0.495,5.636 0.019,0.207 0.042,0.407 0.065,0.598 0.208,1.77 0.451,3.509 0.729,5.255 0.042,0.254 0.078,0.485 0.117,0.741 0.289,1.715 0.613,3.421 0.969,5.109 0.053,0.235 0.091,0.462 0.147,0.701 0.384,1.747 0.798,3.485 1.261,5.192 0.04,0.143 0.078,0.293 0.111,0.445 4.609,17.113 12.877,32.741 23.927,45.966 0.039,0.06 0.087,0.097 0.125,0.153 22.194,26.499 55.52,43.387 92.711,43.387 1.329,0 2.636,-0.055 3.952,-0.084 0.056,-0.006 0.11,-0.023 0.169,-0.029 0.157,-0.033 0.317,-0.043 0.468,-0.043 0.065,0 0.119,0.049 0.183,0.049 57.892,-2.278 105.442,-45.395 114.544,-101.292 0.009,-0.018 0.009,-0.041 0.017,-0.056 0.942,-5.782 1.461,-11.69 1.57,-17.693 h 0.008 c 0.008,-0.599 0.042,-1.175 0.042,-1.779 -0.034,-53.578 -34.681,-99.762 -85.15,-115.315 m -22.777,64.978 c -0.328,0.446 -0.7,0.884 -1.076,1.284 -0.289,0.318 -0.565,0.651 -0.879,0.957 -0.429,0.405 -0.877,0.749 -1.314,1.105 -0.327,0.256 -0.639,0.546 -0.99,0.768 -0.502,0.32 -1.051,0.591 -1.611,0.861 -0.358,0.185 -0.684,0.398 -1.06,0.548 -0.597,0.258 -1.275,0.423 -1.953,0.602 -0.334,0.085 -0.622,0.229 -0.964,0.286 -1.014,0.21 -2.061,0.308 -3.129,0.308 -1.073,0 -2.11,-0.098 -3.113,-0.308 -0.384,-0.08 -0.738,-0.233 -1.109,-0.321 -0.599,-0.166 -1.204,-0.32 -1.787,-0.558 -0.469,-0.204 -0.916,-0.464 -1.372,-0.711 -0.414,-0.238 -0.827,-0.426 -1.218,-0.658 -0.538,-0.352 -1.021,-0.778 -1.512,-1.173 -0.254,-0.215 -0.511,-0.4 -0.75,-0.608 -0.561,-0.526 -1.053,-1.108 -1.531,-1.706 -0.106,-0.133 -0.249,-0.268 -0.357,-0.431 -0.511,-0.684 -0.936,-1.425 -1.33,-2.172 -0.054,-0.093 -0.11,-0.202 -0.156,-0.291 -0.387,-0.767 -0.689,-1.609 -0.933,-2.459 -0.039,-0.106 -0.087,-0.25 -0.12,-0.362 -0.207,-0.762 -0.334,-1.593 -0.423,-2.4 -0.023,-0.167 -0.084,-0.324 -0.088,-0.496 -7.685,-3.242 -14.032,-8.761 -18.408,-15.559 -5.211,6.822 -7.896,16.67 -8.128,29.991 0.435,10.151 8.845,18.285 19.121,18.285 4.139,0 8.08,-1.287 11.451,-3.799 l 1.434,-1.008 c 6.058,-4 14.486,-4.077 20.786,0.084 l 1.378,0.972 c 3.316,2.464 7.231,3.751 11.384,3.751 10.285,0 18.675,-8.134 19.136,-18.294 -0.257,-13.297 -2.919,-23.152 -8.124,-29.982 -4.353,6.774 -10.71,12.309 -18.377,15.553 -0.033,0.367 -0.119,0.711 -0.184,1.076 -0.079,0.479 -0.12,0.939 -0.255,1.409 -0.12,0.57 -0.294,1.085 -0.486,1.605 -0.153,0.424 -0.289,0.866 -0.479,1.276 -0.241,0.507 -0.512,0.972 -0.797,1.451 -0.216,0.374 -0.424,0.771 -0.677,1.124 m -24.739,-9.121 c 0,6.503 5.285,11.795 11.793,11.795 6.494,0 11.797,-5.292 11.764,-11.995 -0.038,-2.296 -0.734,-4.431 -1.913,-6.209 l -0.597,-0.764 c -0.558,-0.709 -1.156,-1.32 -1.818,-1.875 -0.055,-0.048 -0.097,-0.089 -0.145,-0.125 -0.588,-0.475 -1.25,-0.881 -1.919,-1.234 -0.113,-0.075 -0.258,-0.136 -0.375,-0.204 -0.623,-0.297 -1.275,-0.526 -1.956,-0.718 -0.166,-0.048 -0.316,-0.096 -0.485,-0.145 -0.85,-0.19 -1.702,-0.286 -2.551,-0.286 -0.869,0 -1.722,0.096 -2.551,0.286 -0.176,0.049 -0.335,0.097 -0.503,0.154 -0.668,0.19 -1.324,0.412 -1.952,0.709 -0.121,0.068 -0.251,0.129 -0.376,0.204 -0.669,0.353 -1.315,0.759 -1.909,1.234 -0.054,0.055 -0.099,0.086 -0.154,0.132 -0.663,0.559 -1.271,1.159 -1.819,1.868 l -0.6,0.764 c -1.215,1.816 -1.934,4.033 -1.934,6.409 m 37.486,-30.774 c 0.16,-1.149 0.254,-2.301 0.254,-3.493 0,-14.313 -11.645,-25.943 -25.947,-25.943 -14.311,0 -25.946,11.649 -25.946,25.943 0,1.181 0.084,2.335 0.251,3.493 6.861,-2.879 15.31,-4.284 25.703,-4.284 10.394,-0.006 18.829,1.405 25.685,4.284 m -25.697,3.869 c -9.727,0 -17.307,1.375 -23.255,4.057 2.488,5.061 6.57,9.285 11.824,11.868 2.893,-2.995 6.927,-4.9 11.431,-4.9 4.498,0 8.531,1.905 11.427,4.9 5.26,-2.589 9.343,-6.807 11.823,-11.888 -5.941,-2.668 -13.523,-4.037 -23.25,-4.037 m 0,-46.066 c -20.211,0 -36.65,16.421 -36.65,36.647 0,14.158 8.414,27.052 21.119,33.043 0.337,-1.572 0.959,-3.02 1.728,-4.388 -9.906,-5.159 -16.229,-15.287 -16.229,-26.598 0,-16.567 13.473,-30.018 30.032,-30.018 16.559,0 30.029,13.479 30.029,30.018 0,11.311 -6.324,21.439 -16.242,26.598 0.764,1.368 1.404,2.816 1.737,4.388 12.709,-5.991 21.127,-18.89 21.127,-33.034 0,-20.219 -16.439,-36.656 -36.651,-36.656 M -270.774,14.502 c 0.244,0.159 0.502,0.272 0.752,0.423 1.152,0.632 2.376,1.158 3.7,1.452 -0.025,-0.174 -0.032,-0.344 -0.055,-0.518 -0.328,-2.399 -0.583,-4.827 -0.774,-7.256 -0.051,-0.6 -0.113,-1.228 -0.152,-1.833 -0.151,-2.305 -0.256,-4.65 -0.278,-6.979 h 0.019 c -0.003,-0.475 -0.05,-0.938 -0.05,-1.443 0,-3.092 0.133,-6.136 0.342,-9.174 -0.025,0.011 -0.041,0.015 -0.06,0.025 -2.683,0.828 -5.012,2.454 -6.759,4.558 -0.158,0.19 -0.324,0.376 -0.471,0.582 -0.271,0.367 -0.5,0.761 -0.737,1.142 -0.214,0.351 -0.417,0.725 -0.597,1.099 -0.168,0.344 -0.318,0.688 -0.454,1.044 -0.192,0.505 -0.347,1.014 -0.482,1.54 -0.071,0.288 -0.167,0.589 -0.218,0.868 -0.166,0.827 -0.268,1.706 -0.268,2.585 v 0.031 c 0,0.899 0.102,1.78 0.268,2.63 0.059,0.304 0.157,0.6 0.234,0.886 0.142,0.55 0.295,1.1 0.502,1.619 0.132,0.331 0.293,0.662 0.452,0.972 0.21,0.423 0.433,0.861 0.684,1.274 0.212,0.337 0.435,0.663 0.669,0.982 0.26,0.342 0.538,0.677 0.831,0.995 0.282,0.315 0.569,0.625 0.884,0.933 0.282,0.256 0.586,0.489 0.887,0.734 0.368,0.276 0.728,0.575 1.131,0.829 M 5.333,-8.658 c 0.589,0.997 1.099,2.034 1.529,3.124 0.066,0.169 0.12,0.337 0.185,0.503 0.407,1.108 0.741,2.26 0.964,3.42 0.024,0.137 0.043,0.261 0.065,0.417 0.215,1.235 0.35,2.496 0.35,3.802 V 2.617 C 8.426,4.043 8.281,5.42 8.028,6.764 8.011,6.834 8.002,6.896 7.995,6.976 7.74,8.27 7.349,9.52 6.886,10.723 6.84,10.819 6.808,10.932 6.775,11.027 6.289,12.205 5.708,13.324 5.036,14.393 4.973,14.48 4.918,14.601 4.854,14.678 4.168,15.757 3.396,16.736 2.543,17.658 2.471,17.742 2.406,17.819 2.335,17.895 1.459,18.822 0.5,19.678 -0.519,20.44 c -0.063,0.058 -0.12,0.09 -0.184,0.135 -1.052,0.779 -2.176,1.455 -3.364,2.044 -0.041,0.017 -0.071,0.031 -0.097,0.056 -1.21,0.598 -2.473,1.085 -3.827,1.445 -0.015,0.005 -0.024,0.005 -0.039,0.005 -1.346,0.369 -2.743,0.602 -4.161,0.717 -0.543,2.544 -1.156,5.049 -1.833,7.537 -0.088,0.318 -0.193,0.639 -0.281,0.965 -0.574,2.021 -1.187,4.023 -1.85,6.009 -0.215,0.608 -0.421,1.229 -0.614,1.817 -0.629,1.797 -1.307,3.584 -2.017,5.337 -0.237,0.565 -0.421,1.115 -0.662,1.665 -0.89,2.136 -1.84,4.239 -2.836,6.314 -0.4,0.797 -0.807,1.586 -1.221,2.36 -0.638,1.282 -1.3,2.56 -1.994,3.828 -0.566,0.995 -1.126,1.983 -1.713,2.973 -0.597,1.005 -1.196,1.992 -1.809,2.982 -0.646,1.053 -1.3,2.112 -1.995,3.14 -0.542,0.825 -1.115,1.62 -1.682,2.406 -1.403,2.011 -2.862,4 -4.384,5.919 -0.542,0.682 -1.077,1.379 -1.619,2.055 -0.422,0.495 -0.772,1.015 -1.188,1.5 -0.024,-0.015 -0.047,-0.024 -0.072,-0.041 -22.714,26.869 -56.206,44.353 -93.75,45.728 -11.836,1.518 -20.732,11.573 -20.732,23.545 0,10.05 8.159,18.228 18.187,18.228 7.583,0 13.761,-6.168 13.761,-13.75 0,-5.622 -4.56,-10.2 -10.148,-10.2 -2.265,0 -4.079,-1.809 -4.079,-4.08 0,-2.247 1.822,-4.082 4.079,-4.082 10.117,0 18.311,8.25 18.311,18.362 0,12.078 -9.837,21.912 -21.924,21.912 -14.532,0 -26.351,-11.829 -26.351,-26.39 0,-9.564 4.24,-18.206 11.006,-24.082 -32.732,-3.32 -61.87,-18.937 -82.754,-42.111 -0.016,0.023 -0.038,0.048 -0.053,0.072 -0.925,-1.023 -1.771,-2.108 -2.658,-3.152 -0.159,-0.184 -0.316,-0.374 -0.467,-0.567 -3.396,-4.057 -6.521,-8.304 -9.368,-12.731 -0.373,-0.581 -0.749,-1.146 -1.108,-1.747 -0.793,-1.266 -1.578,-2.548 -2.324,-3.833 -0.649,-1.132 -1.272,-2.296 -1.886,-3.437 -0.779,-1.459 -1.537,-2.934 -2.264,-4.422 -0.709,-1.446 -1.402,-2.918 -2.055,-4.393 -0.346,-0.797 -0.695,-1.597 -1.023,-2.385 -1.963,-4.689 -3.658,-9.52 -5.062,-14.479 -0.096,-0.32 -0.179,-0.642 -0.271,-0.981 -0.706,-2.551 -1.348,-5.142 -1.898,-7.75 -1.427,-0.094 -2.815,-0.348 -4.161,-0.709 -0.015,-0.008 -0.041,-0.008 -0.056,-0.013 -1.324,-0.36 -2.591,-0.849 -3.802,-1.446 -0.057,-0.034 -0.097,-0.04 -0.135,-0.065 -1.191,-0.582 -2.313,-1.267 -3.366,-2.041 -0.06,-0.038 -0.12,-0.088 -0.173,-0.126 -1.03,-0.764 -1.995,-1.616 -2.873,-2.559 -0.066,-0.072 -0.128,-0.135 -0.19,-0.215 -0.854,-0.934 -1.643,-1.927 -2.331,-2.992 -0.061,-0.086 -0.11,-0.19 -0.173,-0.262 -0.673,-1.077 -1.26,-2.2 -1.746,-3.387 -0.036,-0.089 -0.07,-0.193 -0.099,-0.272 -0.476,-1.214 -0.858,-2.464 -1.113,-3.765 -0.015,-0.081 -0.024,-0.141 -0.036,-0.22 -0.283,-1.391 -0.435,-2.768 -0.435,-4.186 V 2.617 c 0,-1.294 0.135,-2.576 0.353,-3.829 0.022,-0.127 0.037,-0.253 0.063,-0.415 0.23,-1.173 0.565,-2.311 0.97,-3.435 0.062,-0.159 0.114,-0.32 0.177,-0.479 0.425,-1.092 0.941,-2.12 1.531,-3.139 0.084,-0.131 0.159,-0.266 0.243,-0.397 0.629,-1.017 1.327,-1.975 2.1,-2.872 0.06,-0.073 0.117,-0.119 0.176,-0.194 3.412,-3.852 8.133,-6.529 13.466,-7.294 7.096,-52.054 44.991,-94.905 97.145,-107.616 8.061,-8.395 19.21,-13.177 30.82,-13.177 11.638,0 22.807,4.796 30.867,13.216 52.024,12.796 89.828,55.621 96.917,107.577 5.334,0.765 10.056,3.437 13.466,7.279 0.064,0.073 0.112,0.129 0.175,0.2 0.766,0.902 1.468,1.852 2.105,2.861 0.082,0.161 0.16,0.306 0.24,0.439" />
      </g>
    </g>
  </g>
</svg>
