<?xml version="1.0" encoding="iso-8859-1"?>
<!-- Generator: Adobe Illustrator 19.1.0, SVG Export Plug-In . SVG Version: 6.00 Build 0)  -->
<svg version="1.1" id="Capa_1" xmlns="http://www.w3.org/2000/svg" xmlns:xlink="http://www.w3.org/1999/xlink" x="0px" y="0px"
	 viewBox="0 0 64 64" style="enable-background:new 0 0 64 64;" xml:space="preserve">
<g>
	<g id="group-23svg">
		<path id="path-1_14_" style="fill:#FF917B;" d="M63.5,60c0,2.209-1.791,4-4,4h-51c-2.209,0-4-1.791-4-4V8c0-2.209,1.791-4,4-4h51
			c2.209,0,4,1.791,4,4V60z"/>
		<path id="path-2_14_" style="fill:#EDC951;" d="M54.5,47c0,2.761-2.238,5-5,5h-31c-2.762,0-5-2.239-5-5V15c0-2.761,2.238-5,5-5h31
			c2.762,0,5,2.239,5,5V47z"/>
		<path id="path-3_14_" style="fill:#53ECF4;" d="M50.052,20.985c0,1.964-1.592,3.556-3.556,3.556c-1.964,0-3.557-1.592-3.557-3.556
			s1.593-3.556,3.557-3.556C48.46,17.429,50.052,19.021,50.052,20.985z"/>
		<path id="path-4_14_" style="fill:#53ECF4;" d="M50.052,42.709c0,1.964-1.592,3.556-3.556,3.556c-1.964,0-3.557-1.592-3.557-3.556
			s1.593-3.556,3.557-3.556C48.46,39.153,50.052,40.745,50.052,42.709z"/>
		<path id="path-5_14_" style="fill:#53ECF4;" d="M28.328,20.985c0,1.964-1.593,3.556-3.557,3.556c-1.963,0-3.555-1.592-3.555-3.556
			s1.592-3.556,3.555-3.556C26.735,17.429,28.328,19.021,28.328,20.985z"/>
		<path id="path-6_13_" style="fill:#53ECF4;" d="M28.328,42.709c0,1.964-1.593,3.556-3.557,3.556c-1.963,0-3.555-1.592-3.555-3.556
			s1.592-3.556,3.555-3.556C26.735,39.153,28.328,40.745,28.328,42.709z"/>
		<path id="path-7_13_" d="M57,63H6c-3.032,0-5.5-2.467-5.5-5.5v-52C0.5,2.467,2.968,0,6,0h51c3.032,0,5.5,2.467,5.5,5.5v52
			C62.5,60.533,60.032,63,57,63z M6,3C4.621,3,3.5,4.122,3.5,5.5v52C3.5,58.878,4.621,60,6,60h51c1.379,0,2.5-1.122,2.5-2.5v-52
			C59.5,4.122,58.379,3,57,3H6z"/>
		<path id="path-8_13_" d="M47,51H16c-3.584,0-6.5-2.916-6.5-6.5v-32C9.5,8.916,12.416,6,16,6h31c3.584,0,6.5,2.916,6.5,6.5v32
			C53.5,48.084,50.584,51,47,51z M16,9c-1.93,0-3.5,1.57-3.5,3.5v32c0,1.93,1.57,3.5,3.5,3.5h31c1.93,0,3.5-1.57,3.5-3.5v-32
			c0-1.93-1.57-3.5-3.5-3.5H16z"/>
		<path id="path-9_10_" d="M51.5,31h-40c-0.828,0-1.5-0.671-1.5-1.5s0.672-1.5,1.5-1.5h40c0.828,0,1.5,0.671,1.5,1.5
			S52.328,31,51.5,31z"/>
		<path id="path-10_10_" d="M32,50.5c-0.828,0-1.5-0.671-1.5-1.5V8c0-0.829,0.672-1.5,1.5-1.5s1.5,0.671,1.5,1.5v41
			C33.5,49.829,32.828,50.5,32,50.5z"/>
		<path id="path-11_9_" d="M48.134,56.209c0,1.429-1.158,2.587-2.586,2.587c-1.429,0-2.586-1.158-2.586-2.587
			c0-1.428,1.157-2.586,2.586-2.586C46.976,53.623,48.134,54.781,48.134,56.209z"/>
		<path id="path-12_8_" d="M39.858,56.209c0,1.429-1.158,2.587-2.586,2.587c-1.428,0-2.587-1.158-2.587-2.587
			c0-1.428,1.159-2.586,2.587-2.586C38.7,53.623,39.858,54.781,39.858,56.209z"/>
		<path id="path-13_5_" d="M31.582,56.209c0,1.429-1.157,2.587-2.586,2.587c-1.428,0-2.586-1.158-2.586-2.587
			c0-1.428,1.158-2.586,2.586-2.586C30.425,53.623,31.582,54.781,31.582,56.209z"/>
		<path id="path-14_3_" d="M23.307,56.209c0,1.429-1.159,2.587-2.586,2.587c-1.429,0-2.587-1.158-2.587-2.587
			c0-1.428,1.158-2.586,2.587-2.586C22.148,53.623,23.307,54.781,23.307,56.209z"/>
		<path id="path-15_3_" d="M43.496,24.041c-2.788,0-5.057-2.268-5.057-5.056s2.269-5.056,5.057-5.056
			c2.788,0,5.056,2.268,5.056,5.056S46.284,24.041,43.496,24.041z M43.496,16.929c-1.134,0-2.057,0.923-2.057,2.056
			c0,1.134,0.923,2.056,2.057,2.056c1.134,0,2.056-0.922,2.056-2.056C45.552,17.852,44.63,16.929,43.496,16.929z"/>
		<path id="path-16_2_" d="M43.496,45.765c-2.788,0-5.057-2.268-5.057-5.056c0-2.788,2.269-5.056,5.057-5.056
			c2.788,0,5.056,2.268,5.056,5.056C48.552,43.497,46.284,45.765,43.496,45.765z M43.496,38.653c-1.134,0-2.057,0.923-2.057,2.056
			c0,1.134,0.923,2.056,2.057,2.056c1.134,0,2.056-0.922,2.056-2.056C45.552,39.576,44.63,38.653,43.496,38.653z"/>
		<path id="path-17_2_" d="M21.771,24.041c-2.788,0-5.055-2.268-5.055-5.056s2.267-5.056,5.055-5.056
			c2.789,0,5.057,2.268,5.057,5.056S24.56,24.041,21.771,24.041z M21.771,16.929c-1.133,0-2.055,0.923-2.055,2.056
			c0,1.134,0.922,2.056,2.055,2.056c1.134,0,2.057-0.922,2.057-2.056C23.828,17.852,22.905,16.929,21.771,16.929z"/>
		<path id="path-18_2_" d="M21.771,45.765c-2.788,0-5.055-2.268-5.055-5.056c0-2.788,2.267-5.056,5.055-5.056
			c2.789,0,5.057,2.268,5.057,5.056C26.828,43.497,24.56,45.765,21.771,45.765z M21.771,38.653c-1.133,0-2.055,0.923-2.055,2.056
			c0,1.134,0.922,2.056,2.055,2.056c1.134,0,2.057-0.922,2.057-2.056C23.828,39.576,22.905,38.653,21.771,38.653z"/>
		<path id="path-19_2_" d="M42,33.5c-0.828,0-1.5-0.671-1.5-1.5v-5c0-0.829,0.672-1.5,1.5-1.5s1.5,0.671,1.5,1.5v5
			C43.5,32.829,42.828,33.5,42,33.5z"/>
		<path id="path-20_2_" d="M21,33.5c-0.828,0-1.5-0.671-1.5-1.5v-5c0-0.829,0.672-1.5,1.5-1.5s1.5,0.671,1.5,1.5v5
			C22.5,32.829,21.828,33.5,21,33.5z"/>
		<path id="path-21_2_" d="M34.5,20h-5c-0.828,0-1.5-0.671-1.5-1.5s0.672-1.5,1.5-1.5h5c0.828,0,1.5,0.671,1.5,1.5
			S35.328,20,34.5,20z"/>
		<path id="path-22_1_" d="M34.5,41h-5c-0.828,0-1.5-0.671-1.5-1.5s0.672-1.5,1.5-1.5h5c0.828,0,1.5,0.671,1.5,1.5
			S35.328,41,34.5,41z"/>
	</g>
</g>
<g>
</g>
<g>
</g>
<g>
</g>
<g>
</g>
<g>
</g>
<g>
</g>
<g>
</g>
<g>
</g>
<g>
</g>
<g>
</g>
<g>
</g>
<g>
</g>
<g>
</g>
<g>
</g>
<g>
</g>
</svg>
