<svg height="48" viewBox="0 0 48 48" width="48" xmlns="http://www.w3.org/2000/svg"><path d="m24.5 34c-8.56 0-15.5-3.846-15.5-10v-10h31v10c0 5.171-6.94 10-15.5 10z" fill="#203442"/><path d="m46.171 9.991-18.871-9.227a7.518 7.518 0 0 0 -6.6 0l-18.871 9.227a3.26 3.26 0 0 0 .15 5.927l2.521 1.082 16.543 7.079a7.517 7.517 0 0 0 5.914 0l16.543-7.079 2.521-1.078a3.26 3.26 0 0 0 .15-5.931z" fill="#4c5665"/><path d="m40 38a1 1 0 0 1 -1-1v-17.639l-14.082-7.221a1 1 0 1 1 .914-1.78l15.168 7.779v18.861a1 1 0 0 1 -1 1z" fill="#ecf0f1"/><ellipse cx="24.5" cy="11" fill="#203442" rx="4.5" ry="3"/><circle cx="40" cy="39" fill="#face53" r="4"/></svg>