<svg viewBox="0 0 64 64" xmlns="http://www.w3.org/2000/svg" xmlns:xlink="http://www.w3.org/1999/xlink"><linearGradient id="a" gradientUnits="userSpaceOnUse" x1="32" x2="32" y1="52.743" y2="10.397"><stop offset="0" stop-color="#ffcb29"/><stop offset="1" stop-color="#f9a01b"/></linearGradient><linearGradient id="b" gradientUnits="userSpaceOnUse" x1="32" x2="32" y1="48.941" y2="62.609"><stop offset="0" stop-color="#90a4ae"/><stop offset="1" stop-color="#546f7a"/></linearGradient><path d="m48 28.469a16 16 0 1 0 -25.879 12.583 9.739 9.739 0 0 1 3.6 7.684v1.744h12.556v-1.745a9.766 9.766 0 0 1 3.619-7.7 15.966 15.966 0 0 0 6.104-12.566z" fill="url(#a)"/><path d="m36.317 29.625a1 1 0 0 0 -1 1v.533a3.317 3.317 0 0 1 -6.634 0v-.533a1 1 0 0 0 -2 0v.533a5.321 5.321 0 0 0 4.317 5.215v14.107a1 1 0 0 0 2 0v-14.107a5.321 5.321 0 0 0 4.317-5.215v-.533a1 1 0 0 0 -1-1z" fill="#ffe081"/><rect fill="url(#b)" height="9.02" rx="2" width="17.634" x="23.183" y="50.48"/><path d="m33.78 53.99h-3.56a1 1 0 0 0 0 2h3.56a1 1 0 0 0 0-2z" fill="#edeff0"/><g fill="#ffd54f"><path d="m32 4.5a1 1 0 0 0 -1 1v2.366a1 1 0 0 0 2 0v-2.366a1 1 0 0 0 -1-1z"/><path d="m50.385 12.7-1.674 1.674a1 1 0 1 0 1.414 1.414l1.675-1.673a1 1 0 0 0 -1.415-1.415z"/><path d="m59 31.5h-2.366a1 1 0 0 0 0 2h2.366a1 1 0 0 0 0-2z"/><path d="m13.615 12.7a1 1 0 0 0 -1.415 1.415l1.674 1.674a1 1 0 1 0 1.414-1.414z"/><path d="m7.366 31.5h-2.366a1 1 0 0 0 0 2h2.366a1 1 0 0 0 0-2z"/></g></svg>