<svg viewBox="0 0 48 48" xmlns="http://www.w3.org/2000/svg" xmlns:xlink="http://www.w3.org/1999/xlink"><linearGradient id="a" gradientUnits="userSpaceOnUse" x1="18.75" x2="18.75" y1="59.81" y2="19.65"><stop offset="0" stop-color="#27e9de"/><stop offset=".52" stop-color="#03a4ec"/><stop offset="1" stop-color="#2547a8"/></linearGradient><linearGradient id="b" x1="18.75" x2="18.75" xlink:href="#a" y1="83" y2="16.6"/><linearGradient id="c" gradientUnits="userSpaceOnUse" x1="18.75" x2="18.75" y1="41.72" y2="7.22"><stop offset="0" stop-color="#f3c57a"/><stop offset=".49" stop-color="#f39369"/><stop offset="1" stop-color="#e94867"/></linearGradient><linearGradient id="d" x1="21.56" x2="21.56" xlink:href="#c" y1="38.81" y2="12"/><linearGradient id="e" x1="18.75" x2="18.75" xlink:href="#c" y1="6.09" y2="17.36"/><linearGradient id="f" x1="18.75" x2="18.75" xlink:href="#c" y1="2" y2="17.43"/><linearGradient id="g" x1="18.75" x2="18.75" xlink:href="#c" y1="78.38" y2="13.94"/><linearGradient id="h" gradientUnits="userSpaceOnUse" x1="14.25" x2="14.25" y1="51.81" y2="30.62"><stop offset="0" stop-color="#273a9b"/><stop offset=".56" stop-color="#202f65"/><stop offset="1" stop-color="#021e2f"/></linearGradient><linearGradient id="i" x1="14.25" x2="14.25" xlink:href="#h" y1="54.09" y2="35.31"/><linearGradient id="j" x1="24.37" x2="24.37" xlink:href="#h" y1="51.19" y2="28.81"/><linearGradient id="k" x1="24.37" x2="24.37" xlink:href="#h" y1="42.47" y2="31.28"/><linearGradient id="l" x1="26.06" x2="26.06" xlink:href="#h" y1="46.75" y2="29.44"/><linearGradient id="m" x1="26.06" x2="26.06" xlink:href="#h" y1="46.13" y2="32.97"/><linearGradient id="n" x1="34.5" x2="34.5" xlink:href="#h" y1="35.25" y2="-16.76"/><linearGradient id="o" x1="28.64" x2="28.64" xlink:href="#h" y1="29.51" y2="3.69"/><linearGradient id="p" x1="34.5" x2="34.5" xlink:href="#a" y1="24.08" y2="-.05"/><linearGradient id="q" x1="36.4" x2="36.4" xlink:href="#a" y1="26.51" y2="5.77"/><linearGradient id="r" x1="30.35" x2="30.35" xlink:href="#c" y1="17.63" y2="-3.91"/><linearGradient id="s" x1="38.65" x2="38.65" xlink:href="#c" y1="21.51" y2="4.86"/><linearGradient id="t" x1="34.5" x2="34.5" xlink:href="#c" y1="17.63" y2="-3.91"/><linearGradient id="u" x1="34.78" x2="34.78" xlink:href="#c" y1="19.62" y2="1.81"/><path d="m5.25 27h27a0 0 0 0 1 0 0v16.71a1.29 1.29 0 0 1 -1.25 1.29h-24.46a1.29 1.29 0 0 1 -1.29-1.29v-16.71a0 0 0 0 1 0 0z" fill="#d0e0ef"/><path d="m5.25 27h27v18h-27z" fill="url(#a)"/><path d="m18.75 27.56h-13.5v4.5h8.22a5.28 5.28 0 0 1 5.28 5.28 7.66 7.66 0 0 0 7.66 7.66h4.59a1.29 1.29 0 0 0 1.29-1.29v-16.71h-13.54z" fill="url(#b)"/><path d="m28.87 16.88h-20.24l-5.19 8.29a2.91 2.91 0 0 0 -.44 1.54v2.56a1.1 1.1 0 0 0 1.1 1.1h29.3a1.1 1.1 0 0 0 1.1-1.1v-2.56a2.91 2.91 0 0 0 -.44-1.54z" fill="url(#c)"/><path d="m18.75 30.38h14.65a1.1 1.1 0 0 0 1.1-1.1v-2.57a2.91 2.91 0 0 0 -.44-1.54l-5.18-8.29h-20.25c.21 0 4.88 1.06 7.81 1.72a3 3 0 0 1 2.32 2.91z" fill="url(#d)"/><path d="m9.69 13.5h18.12a1.06 1.06 0 0 1 1.06 1.06v2.31a0 0 0 0 1 0 0h-20.24a0 0 0 0 1 0 0v-2.31a1.06 1.06 0 0 1 1.06-1.06z" fill="url(#e)"/><path d="m8.63 15.75h20.25v1.13h-20.25z" fill="url(#f)"/><path d="m3 26.71v2.56a1.1 1.1 0 0 0 1.1 1.1h29.3a1.1 1.1 0 0 0 1.1-1.1v-2.56a2.91 2.91 0 0 0 -.12-.84h-31.26a2.91 2.91 0 0 0 -.12.84z" fill="url(#g)"/><path d="m10.88 45h6.75v-7.87a3.37 3.37 0 0 0 -3.37-3.37 3.37 3.37 0 0 0 -3.37 3.38z" fill="url(#h)"/><path d="m10.88 42.75h6.75v2.25h-6.75z" fill="url(#i)"/><circle cx="24.37" cy="37.13" fill="url(#j)" r="3.37"/><path d="m21 37.13a3.37 3.37 0 1 1 6.75 0" fill="url(#k)"/><path d="m24.37 33.75a3.38 3.38 0 0 1 0 6.75" fill="url(#l)"/><path d="m27.75 37.13a3.37 3.37 0 0 0 -3.37-3.37v3.38z" fill="url(#m)"/><circle cx="34.5" cy="13.5" fill="url(#n)" r="10.5"/><path d="m28.59 22.17a10.43 10.43 0 0 0 4.69 1.75l-4.41-7v-2.36a1.06 1.06 0 0 0 -1.06-1.06h-3.81a10.41 10.41 0 0 0 1.84 5.91 1.39 1.39 0 0 1 .16 1.32l-.43 1a.52.52 0 0 0 .68.68l1-.42a1.41 1.41 0 0 1 1.34.18z" fill="url(#o)"/><path d="m38.26 16.76c0 2.08-1.69 3-3.76 3s-3.76-.88-3.76-3a3.76 3.76 0 1 1 7.53 0z" fill="url(#p)"/><path d="m34.54 13v6.72c2.06 0 3.73-.89 3.73-3a3.76 3.76 0 0 0 -3.73-3.72z" fill="url(#q)"/><path d="m31.91 12c0 .86-.7 1.15-1.56 1.15s-1.56-.29-1.56-1.15.7-2 1.56-2 1.56 1.1 1.56 2z" fill="url(#r)"/><path d="m40.21 12c0 .86-.7 1.15-1.56 1.15s-1.56-.29-1.56-1.15.7-2 1.56-2 1.56 1.1 1.56 2z" fill="url(#s)"/><path d="m36.23 9.6c0 1-.78 1.35-1.73 1.35s-1.73-.34-1.73-1.35.78-2.31 1.73-2.31 1.73 1.3 1.73 2.31z" fill="url(#t)"/><path d="m34.5 7.29a1.54 1.54 0 0 0 -1.18.71 8.88 8.88 0 0 1 1.08 2.94h.1c1 0 1.73-.34 1.73-1.35s-.77-2.3-1.73-2.3z" fill="url(#u)"/></svg>