<?xml version="1.0" ?><!DOCTYPE svg  PUBLIC '-//W3C//DTD SVG 1.1 Tiny//EN'  'http://www.w3.org/Graphics/SVG/1.1/DTD/svg11-tiny.dtd'><svg baseProfile="tiny" height="128px" id="Layer_1" overflow="scroll" version="1.1" viewBox="0 0 128 128" width="128px" xml:space="preserve" xmlns="http://www.w3.org/2000/svg" xmlns:xlink="http://www.w3.org/1999/xlink"><g><rect fill="#7ACCCE" height="15.3" width="5.9" x="46.5" y="50.1"/><path d="M52.4,107.1h-6c-2.2,0-4-2-4-4.4V61.4c0-2.4,1.8-4.4,4-4.4h6c2.2,0,4,2,4,4.4v41.3   C56.4,105.1,54.6,107.1,52.4,107.1" fill="#F7B2B8"/><path d="M45.2,104.1h-0.9c-0.3,0-0.6-1.7-0.6-3.9V63.9c0-2.1,0.3-3.9,0.6-3.9h0.9c0.4,0,0.6,1.7,0.6,3.9v36.4   C45.9,102.3,45.6,104.1,45.2,104.1" fill="#F9C7C9"/><path d="M61.6,38.9c0,7.4-5.5,13.4-12.2,13.4c-6.7,0-12.2-6-12.2-13.4c0-7.4,5.5-18,12.2-18   C56.2,20.9,61.6,31.5,61.6,38.9" fill="#7ACCCE"/><path d="M45.6,47.7c0-0.4-0.2-0.8-0.5-1C42.6,45.2,41,42,41,38.4c0-2.7,0.9-5.9,2.3-8.5c0.6-1.1,1.3-2.1,2-2.8   c0.2-0.2,0.3-0.5,0.3-0.8v0c0-0.9-1-1.5-1.6-0.9c-3,3-5,8.7-5,13c0,4.5,2.1,8.4,5.1,10.3C44.8,49.1,45.6,48.5,45.6,47.7L45.6,47.7z   " fill="#AAD6D6"/><path d="M52.4,51.9c-0.9,0.3-1.9,0.4-2.9,0.4V57h2.9V51.9z" fill="#71B8BC"/><path d="M52.4,57h-2.9v50.1h2.9c2.2,0,4-2,4-4.4V61.4C56.4,59,54.6,57,52.4,57" fill="#F496A7"/><path d="M49.5,20.9v31.4c1,0,2-0.1,2.9-0.4c5.3-1.4,9.3-6.7,9.3-13.1C61.6,31.5,56.2,21,49.5,20.9" fill="#71B8BC"/><rect fill="#7ACCCE" height="15.4" width="5.9" x="77" y="49.5"/><path d="M83,106.9h-6c-2.2,0-4-2-4-4.4V60.9c0-2.4,1.8-4.4,4-4.4h6c2.2,0,4,2,4,4.4v41.6   C87,105,85.2,106.9,83,106.9" fill="#F7B2B8"/><path d="M76,103.9h-1c-0.4,0-0.6-1.7-0.6-3.9V63.4c0-2.2,0.3-3.9,0.6-3.9h1c0.4,0,0.6,1.7,0.6,3.9V100   C76.6,102.2,76.3,103.9,76,103.9" fill="#F9C7C9"/><path d="M86.4,22.5v13.1c0,0.6-0.5,1.1-1.1,1.1h0c-0.6,0-1.1-0.5-1.1-1.1V22.5c0-0.8-0.7-1.5-1.5-1.5h0   c-0.8,0-1.5,0.7-1.5,1.5v13.1c0,0.6-0.5,1.1-1.1,1.1h0c-0.6,0-1.1-0.5-1.1-1.1V22.5c0-0.8-0.7-1.5-1.5-1.5h0   c-0.8,0-1.5,0.7-1.5,1.5v13.1c0,0.6-0.5,1.1-1.1,1.1h0c-0.6,0-1.1-0.5-1.1-1.1V22.5c0-0.8-0.7-1.5-1.5-1.5h-0.2   c-0.8,0-1.5,0.7-1.5,1.5l-1.4,19.9c0,4.4,3.5,7.9,7.9,7.9h5.9c4.4,0,7.9-3.5,7.9-7.9l-1.4-19.9c0-0.8-0.7-1.5-1.5-1.5h-0.2   C87,21,86.4,21.7,86.4,22.5" fill="#7ACCCE"/><path d="M76.1,45.5c0,1.2-1,2.2-2.2,2.2c-1.2,0-2.2-1-2.2-2.2c0-1.2,1-2.2,2.2-2.2C75.1,43.3,76.1,44.3,76.1,45.5" fill="#AAD6D6"/><rect fill="#71B8BC" height="6.1" width="3" x="79.9" y="50.3"/><path d="M83,56.4h-3.1v50.5H83c2.2,0,4-2,4-4.4V60.9C87,58.4,85.2,56.4,83,56.4" fill="#F496A7"/><path d="M88,21h-0.2c-0.8,0-1.5,0.7-1.5,1.5v13.1c0,0.6-0.5,1.1-1.1,1.1h0c-0.6,0-1.1-0.5-1.1-1.1V22.5   c0-0.8-0.7-1.5-1.5-1.5h0c-0.8,0-1.5,0.7-1.5,1.5v13.1c0,0.6-0.5,1.1-1.1,1.1h0c0,0,0,0,0,0v13.6h3c4.4,0,7.9-3.5,7.9-7.9   l-1.4-19.9C89.4,21.7,88.8,21,88,21" fill="#71B8BC"/></g></svg>