<svg viewBox="0 0 48 48" xmlns="http://www.w3.org/2000/svg"><ellipse cx="19.27" cy="44.5" fill="#45413c" opacity=".15" rx="14.21" ry="1.5"/><path d="m19.11 30.76-13-6.39-1.59 12.93a.76.76 0 0 0 .43.78l12.55 6.16a3.1 3.1 0 0 0 2 .24l13.65-3a.79.79 0 0 0 .6-.67l1.55-12.93-14.15 3.12a3.12 3.12 0 0 1 -2.04-.24z" fill="#ff866e"/><path d="m21.15 31a3.12 3.12 0 0 1 -2-.25l-13-6.39-.55 3.86 13.05 6.39a3.1 3.1 0 0 0 2 .25l14.19-3.14.46-3.85z" fill="#ff6242"/><g stroke-linecap="round" stroke-linejoin="round"><path d="m19.11 30.76-13-6.39-1.59 12.93a.76.76 0 0 0 .43.78l12.55 6.16a3.1 3.1 0 0 0 2 .24l13.65-3a.79.79 0 0 0 .6-.67l1.55-12.93-14.15 3.12a3.12 3.12 0 0 1 -2.04-.24z" fill="none" stroke="#45413c"/><path d="m18.66 43.18 1.24-10.4" fill="none" stroke="#e04122"/><path d="m35.33 27.87-13-6.4a3.12 3.12 0 0 0 -2-.24l-14.27 3.14 13.05 6.39a3.12 3.12 0 0 0 2 .25z" fill="#e04122" stroke="#45413c"/></g><path d="m9.02 25.81-1.62 13.48 6.64 3.26 1.62-13.48z" fill="#eddbff"/><path d="m9.02 25.81-.47 3.85 6.65 3.26.46-3.85z" fill="#dabff5"/><path d="m9.02 25.81-1.62 13.48 6.64 3.26 1.62-13.48z" fill="none" stroke="#45413c" stroke-linecap="round" stroke-linejoin="round"/><path d="m32.12 28.58-1.61 13.48-7.22 1.59 1.61-13.47z" fill="#eddbff"/><path d="m32.12 28.58-.46 3.85-7.22 1.6.46-3.85z" fill="#dabff5"/><path d="m32.12 28.58-1.61 13.48-7.22 1.59 1.61-13.47z" fill="none" stroke="#45413c" stroke-linecap="round" stroke-linejoin="round"/><path d="m16.53 18.93-15.3-1.24 1.24 4.72a.76.76 0 0 0 .69.57l14.75 1.2a3.09 3.09 0 0 0 2-.52l12.26-8.26a.8.8 0 0 0 .32-.84l-1.24-4.72-12.73 8.57a3.18 3.18 0 0 1 -1.99.52z" fill="#ff866e"/><path d="m18.52 18.41a3.18 3.18 0 0 1 -2 .52l-15.29-1.24.59 2.25 15.3 1.24a3.19 3.19 0 0 0 2-.52l12.73-8.57-.59-2.25z" fill="#ffa694"/><g stroke-linecap="round" stroke-linejoin="round"><g stroke="#45413c"><path d="m16.53 18.93-15.3-1.24 1.24 4.72a.76.76 0 0 0 .69.57l14.75 1.2a3.09 3.09 0 0 0 2-.52l12.26-8.26a.8.8 0 0 0 .32-.84l-1.24-4.72-12.73 8.57a3.18 3.18 0 0 1 -1.99.52z" fill="none"/><path d="m1.23 17.69 12.77-8.58a3.08 3.08 0 0 1 2-.51l15.3 1.24-12.78 8.57a3.18 3.18 0 0 1 -2 .52z" fill="#ff866e"/><path d="m18.28 8.78-13.77 9.17 1.37 5.26 7.38.59-1.38-5.25 13.77-9.17z" fill="#eddbff"/></g><path d="m6.7 18.13 3.72.3" fill="none" stroke="#bf8df2"/><path d="m12.03 10.42 16.49 1.25 1.38 5.25-6.14 4.13-1.37-5.25-16.49-1.25z" fill="#eddbff" stroke="#45413c"/><path d="m26.7 12.9-3.09 2.08" fill="none" stroke="#bf8df2"/><g stroke="#45413c"><path d="m18.9 13.6-1.84-1.31s2-8 7.46-8.66a2.3 2.3 0 0 1 2.48 1.52l.86 2.35z" fill="#dabff5"/><path d="m18.9 13.6s4.74-.37 8.81-5.28a.78.78 0 0 0 -.71-1.32 10.27 10.27 0 0 0 -8.1 6.6z" fill="#bf8df2"/><path d="m14 15 .81-2.11s-5.81-5.33-10.76-2.89a2.31 2.31 0 0 0 -1.19 2.62l.59 2.44z" fill="#dabff5"/><g fill="#bf8df2"><path d="m14 15s-3.9 2.51-10 .68a.78.78 0 0 1 -.13-1.45 9.91 9.91 0 0 1 10.13.77z"/><path d="m14.5 14.3s-5.1 3-5.36 7.29l2.6-1.1 1.49 2.56s1.12-6.78 3.29-8.22z"/><path d="m18.06 13.42s5.9.25 8.14 4l-2.81.24-.13 2.95s-4.15-5.48-6.74-5.75z"/></g></g></g><path d="m19.41 12.07c.38 1.45-.83 3-2.69 3.51s-3.69-.29-4.06-1.74.82-3 2.69-3.51 3.65.29 4.06 1.74z" fill="#bf8df2"/><path d="m15.74 11.83a3.46 3.46 0 0 1 3.71 1 2.16 2.16 0 0 0 0-.8c-.38-1.45-2.2-2.23-4.06-1.74s-3.07 2.06-2.69 3.51a2 2 0 0 0 .35.71 3.47 3.47 0 0 1 2.69-2.68z" fill="#dabff5"/><g stroke="#45413c" stroke-linecap="round" stroke-linejoin="round"><path d="m19.41 12.07c.38 1.45-.83 3-2.69 3.51s-3.69-.29-4.06-1.74.82-3 2.69-3.51 3.65.29 4.06 1.74z" fill="none"/><path d="m29.33 26.48a4.66 4.66 0 0 1 -3.83 2.17l-1.36-2.39a4.67 4.67 0 0 0 3.86-2.18z" fill="#00f5bc"/><path d="m45 9.18a4.69 4.69 0 0 1 -2 4l-2.47-1.21a4.69 4.69 0 0 0 1.94-4z" fill="#ff6242"/><path d="m39.55 47a4.68 4.68 0 0 1 -.93-4.31l2.7-.58a4.7 4.7 0 0 0 .92 4.31z" fill="#ff6196"/><path d="m47.5 25.53a4.68 4.68 0 0 1 -4.23 1.24l-.78-2.64a4.68 4.68 0 0 0 4.23-1.25z" fill="#ff8a14"/><path d="m36.54 32.53a4.7 4.7 0 0 1 3.81 2.23l-1.35 2.38a4.66 4.66 0 0 0 -3.8-2.23z" fill="#4aeff7"/><g fill="#fff48c"><path d="m30 44.7a4.7 4.7 0 0 1 -4.18-1.41l.89-2.61a4.65 4.65 0 0 0 4.17 1.41z"/><path d="m32.82 21.54a4.7 4.7 0 0 1 2.86-3.36l2.1 1.82a4.68 4.68 0 0 0 -2.86 3.36z"/></g></g></svg>