<svg viewBox="0 0 56 64" xmlns="http://www.w3.org/2000/svg"><path d="m42.15 64h-24.3a4 4 0 0 1 -4-3.85l-1.77-46.07a2 2 0 0 1 2-2.08h31.84a2 2 0 0 1 2 2.08l-1.77 46.07a4 4 0 0 1 -4 3.85z" fill="#ebeff1"/><path d="m56 0v4h-8.76a6 6 0 0 0 -6 5.4l-.24 2.6-2 20-1 10.2-4-.4 1-9.8 2-20 .3-3a10 10 0 0 1 10-9z" fill="#00cde2"/><path d="m43.15 34.08-.93 24a2 2 0 0 1 -2 1.92h-20.45a2 2 0 0 1 -2-1.92l-.93-24a2 2 0 0 1 2-2.08h22.3a2 2 0 0 1 2.01 2.08z" fill="#ff00b7"/><path d="m24 12a12 12 0 0 1 -11.54 12h-.46a12 12 0 1 1 12-12z" fill="#ffda00"/><path d="m22 12a10 10 0 0 1 -9.62 10h-.38a10 10 0 1 1 10-10z" opacity=".1"/><g fill="#fff"><path d="m24 12a12 12 0 0 1 -11.54 12l-.38-9.91a2 2 0 0 1 2-2.08z" opacity=".4"/><path d="m41.01 12-2 20h-4.02l2-20z" opacity=".4"/></g></svg>