<svg xmlns="http://www.w3.org/2000/svg" viewBox="0 0 52 52"><title>wifi-signal</title><g id="wifi-signal"><g id="wifi"><g id="antenna"><path d="M2.68,19.62a2.29,2.29,0,0,1,0-3.27,32.5,32.5,0,0,1,46.63,0,2.29,2.29,0,0,1,0,3.27,2.17,2.17,0,0,1-3.19,0A28.07,28.07,0,0,0,6,19.62a2.17,2.17,0,0,1-1.6.7A2.33,2.33,0,0,1,2.68,19.62Z" fill="#2ecc71"/><path d="M10.75,27.87a2.29,2.29,0,0,1,0-3.27,21.29,21.29,0,0,1,30.58,0,2.29,2.29,0,0,1,0,3.27,2.17,2.17,0,0,1-3.19,0,16.82,16.82,0,0,0-24.19,0,2.17,2.17,0,0,1-3.19,0Z" fill="#2ecc71"/><path d="M19,35.72a2.29,2.29,0,0,1,0-3.27,9.9,9.9,0,0,1,14.15,0,2.29,2.29,0,0,1,0,3.27,2.17,2.17,0,0,1-3.19,0,5.42,5.42,0,0,0-7.76,0,2.17,2.17,0,0,1-3.19,0Z" fill="#2ecc71"/><path d="M2.76,18.92a1.36,1.36,0,0,0-.3.39,1.69,1.69,0,0,0,.3.39,2.29,2.29,0,0,0,1.6.7A2.29,2.29,0,0,0,6,19.7a27.94,27.94,0,0,1,40.17,0,2.17,2.17,0,0,0,3.19,0,1.36,1.36,0,0,0,.3-.39,1.69,1.69,0,0,0-.3-.39A32.41,32.41,0,0,0,2.76,18.92Z" fill="#27ae60"/><path d="M10.75,27.17a1.36,1.36,0,0,0-.3.39,1.69,1.69,0,0,0,.3.39,2.17,2.17,0,0,0,3.2,0,16.82,16.82,0,0,1,24.19,0,2.17,2.17,0,0,0,3.19,0,1.36,1.36,0,0,0,.3-.39,1.69,1.69,0,0,0-.3-.39A21.29,21.29,0,0,0,10.75,27.17Z" fill="#27ae60"/><path d="M19,35a1.36,1.36,0,0,0-.3.39,1.69,1.69,0,0,0,.3.39,2.17,2.17,0,0,0,3.2,0,5.42,5.42,0,0,1,7.76,0,2.17,2.17,0,0,0,3.2,0,1.36,1.36,0,0,0,.3-.39,1.69,1.69,0,0,0-.3-.39A9.77,9.77,0,0,0,19,35Z" fill="#27ae60"/></g><circle cx="26" cy="42.5" r="3" fill="#27ae60"/></g></g></svg>