<?xml version="1.0" encoding="UTF-8" standalone="no"?>
<svg
   xmlns:dc="http://purl.org/dc/elements/1.1/"
   xmlns:cc="http://creativecommons.org/ns#"
   xmlns:rdf="http://www.w3.org/1999/02/22-rdf-syntax-ns#"
   xmlns:svg="http://www.w3.org/2000/svg"
   xmlns="http://www.w3.org/2000/svg"
   xmlns:sodipodi="http://sodipodi.sourceforge.net/DTD/sodipodi-0.dtd"
   xmlns:inkscape="http://www.inkscape.org/namespaces/inkscape"
   sodipodi:docname="8 - Books And Stationary.svg"
   inkscape:version="1.0 (4035a4fb49, 2020-05-01)"
   id="svg831"
   version="1.1"
   viewBox="0 0 22.577778 22.577778"
   height="64pt"
   width="64pt"
   inkscape:export-filename="E:\Project\1 - Carlos Project\012 - School And Education\Send\4 - FilledLine\8 - Books And Stationary.png"
   inkscape:export-xdpi="576"
   inkscape:export-ydpi="576">
  <defs
     id="defs825">
    <pattern
       y="0"
       x="0"
       height="6"
       width="6"
       patternUnits="userSpaceOnUse"
       id="EMFhbasepattern" />
    <pattern
       y="0"
       x="0"
       height="6"
       width="6"
       patternUnits="userSpaceOnUse"
       id="EMFhbasepattern-9" />
    <pattern
       y="0"
       x="0"
       height="6"
       width="6"
       patternUnits="userSpaceOnUse"
       id="EMFhbasepattern-0" />
    <pattern
       y="0"
       x="0"
       height="6"
       width="6"
       patternUnits="userSpaceOnUse"
       id="EMFhbasepattern-7" />
    <pattern
       y="0"
       x="0"
       height="6"
       width="6"
       patternUnits="userSpaceOnUse"
       id="EMFhbasepattern-2" />
    <pattern
       y="0"
       x="0"
       height="6"
       width="6"
       patternUnits="userSpaceOnUse"
       id="EMFhbasepattern-98" />
    <pattern
       y="0"
       x="0"
       height="6"
       width="6"
       patternUnits="userSpaceOnUse"
       id="EMFhbasepattern-6" />
    <pattern
       y="0"
       x="0"
       height="6"
       width="6"
       patternUnits="userSpaceOnUse"
       id="EMFhbasepattern-01" />
    <pattern
       y="0"
       x="0"
       height="6"
       width="6"
       patternUnits="userSpaceOnUse"
       id="EMFhbasepattern-07" />
    <pattern
       y="0"
       x="0"
       height="6"
       width="6"
       patternUnits="userSpaceOnUse"
       id="EMFhbasepattern-8" />
    <pattern
       y="0"
       x="0"
       height="6"
       width="6"
       patternUnits="userSpaceOnUse"
       id="EMFhbasepattern-4" />
    <pattern
       y="0"
       x="0"
       height="6"
       width="6"
       patternUnits="userSpaceOnUse"
       id="EMFhbasepattern-40" />
    <pattern
       y="0"
       x="0"
       height="6"
       width="6"
       patternUnits="userSpaceOnUse"
       id="EMFhbasepattern-08" />
    <pattern
       y="0"
       x="0"
       height="6"
       width="6"
       patternUnits="userSpaceOnUse"
       id="EMFhbasepattern-04" />
    <pattern
       y="0"
       x="0"
       height="6"
       width="6"
       patternUnits="userSpaceOnUse"
       id="EMFhbasepattern-014" />
    <pattern
       y="0"
       x="0"
       height="6"
       width="6"
       patternUnits="userSpaceOnUse"
       id="EMFhbasepattern-27" />
    <pattern
       y="0"
       x="0"
       height="6"
       width="6"
       patternUnits="userSpaceOnUse"
       id="EMFhbasepattern-09" />
    <pattern
       y="0"
       x="0"
       height="6"
       width="6"
       patternUnits="userSpaceOnUse"
       id="EMFhbasepattern-5" />
    <pattern
       y="0"
       x="0"
       height="6"
       width="6"
       patternUnits="userSpaceOnUse"
       id="EMFhbasepattern-018" />
  </defs>
  <sodipodi:namedview
     inkscape:document-rotation="0"
     inkscape:snap-global="true"
     inkscape:snap-nodes="false"
     inkscape:bbox-nodes="true"
     inkscape:snap-bbox="true"
     showguides="true"
     inkscape:snap-midpoints="true"
     inkscape:snap-smooth-nodes="true"
     inkscape:snap-intersection-paths="true"
     inkscape:object-paths="true"
     inkscape:showpageshadow="false"
     inkscape:pagecheckerboard="true"
     inkscape:window-maximized="1"
     inkscape:window-y="-8"
     inkscape:window-x="-8"
     inkscape:window-height="716"
     inkscape:window-width="1366"
     units="pt"
     showgrid="false"
     inkscape:current-layer="layer1"
     inkscape:document-units="pt"
     inkscape:cy="42.666667"
     inkscape:cx="42.666667"
     inkscape:zoom="5.671875"
     inkscape:pageshadow="2"
     inkscape:pageopacity="0.0"
     borderopacity="1.0"
     bordercolor="#666666"
     pagecolor="#ffffff"
     id="base">
    <inkscape:grid
       id="grid1378"
       type="xygrid" />
    <sodipodi:guide
       inkscape:locked="false"
       id="guide1380"
       orientation="78.000048,0"
       position="0.97013831,21.607643" />
    <sodipodi:guide
       inkscape:locked="false"
       id="guide1382"
       orientation="0,78.000005"
       position="0.97013831,0.97013129" />
    <sodipodi:guide
       inkscape:locked="false"
       id="guide1384"
       orientation="-78.000048,0"
       position="21.607639,0.97013129" />
    <sodipodi:guide
       inkscape:locked="false"
       id="guide1386"
       orientation="0,-78.000005"
       position="21.607639,21.607643" />
  </sodipodi:namedview>
  <metadata
     id="metadata828">
    <rdf:RDF>
      <cc:Work
         rdf:about="">
        <dc:format>image/svg+xml</dc:format>
        <dc:type
           rdf:resource="http://purl.org/dc/dcmitype/StillImage" />
        <dc:title></dc:title>
      </cc:Work>
    </rdf:RDF>
  </metadata>
  <g
     transform="translate(0,-274.42223)"
     id="layer1"
     inkscape:groupmode="layer"
     inkscape:label="Icon">
    <g
       transform="matrix(1.2610429,0,0,1.2610429,0.87677357,-75.818195)"
       id="g242">
      <g
         id="g1118"
         style="display:inline"
         transform="translate(-0.18951214,-1.9711289)">
        <g
           id="g1074">
          <path
             id="path710"
             d="m 11.785156,284.5625 a 0.26460996,0.26460996 0 0 0 -0.171875,0.0586 l -0.74414,0.59571 a 0.26460996,0.26460996 0 0 0 -0.09961,0.20508 v 3.625 a 0.26460996,0.26460996 0 0 0 0.396485,0.23046 l 1.488281,-0.8457 a 0.26460996,0.26460996 0 0 0 0.132812,-0.23047 v -2.77929 a 0.26460996,0.26460996 0 0 0 -0.09766,-0.20508 l -0.744141,-0.59571 a 0.26460996,0.26460996 0 0 0 -0.160156,-0.0586 z"
             style="color:#000000;font-style:normal;font-variant:normal;font-weight:normal;font-stretch:normal;font-size:medium;line-height:normal;font-family:sans-serif;font-variant-ligatures:normal;font-variant-position:normal;font-variant-caps:normal;font-variant-numeric:normal;font-variant-alternates:normal;font-variant-east-asian:normal;font-feature-settings:normal;font-variation-settings:normal;text-indent:0;text-align:start;text-decoration:none;text-decoration-line:none;text-decoration-style:solid;text-decoration-color:#000000;letter-spacing:normal;word-spacing:normal;text-transform:none;writing-mode:lr-tb;direction:ltr;text-orientation:mixed;dominant-baseline:auto;baseline-shift:baseline;text-anchor:start;white-space:normal;shape-padding:0;shape-margin:0;inline-size:0;clip-rule:nonzero;display:inline;overflow:visible;visibility:visible;isolation:auto;mix-blend-mode:normal;color-interpolation:sRGB;color-interpolation-filters:linearRGB;solid-color:#000000;solid-opacity:1;vector-effect:none;fill:#50b86b;fill-opacity:1;fill-rule:nonzero;stroke:none;stroke-width:0.529167;stroke-linecap:round;stroke-linejoin:round;stroke-miterlimit:1.5;stroke-dasharray:none;stroke-dashoffset:0;stroke-opacity:1;paint-order:markers fill stroke;color-rendering:auto;image-rendering:auto;shape-rendering:auto;text-rendering:auto;enable-background:accumulate;stop-color:#000000" />
          <path
             id="path720"
             d="m 12.001953,286.34961 a 0.26460996,0.26460996 0 0 0 -0.263672,0.26367 v 3.57227 a 0.26460996,0.26460996 0 0 0 0.263672,0.26367 h 1.787109 a 0.26460996,0.26460996 0 0 0 0.263672,-0.26367 v -3.57227 a 0.26460996,0.26460996 0 0 0 -0.263672,-0.26367 z"
             style="color:#000000;font-style:normal;font-variant:normal;font-weight:normal;font-stretch:normal;font-size:medium;line-height:normal;font-family:sans-serif;font-variant-ligatures:normal;font-variant-position:normal;font-variant-caps:normal;font-variant-numeric:normal;font-variant-alternates:normal;font-variant-east-asian:normal;font-feature-settings:normal;font-variation-settings:normal;text-indent:0;text-align:start;text-decoration:none;text-decoration-line:none;text-decoration-style:solid;text-decoration-color:#000000;letter-spacing:normal;word-spacing:normal;text-transform:none;writing-mode:lr-tb;direction:ltr;text-orientation:mixed;dominant-baseline:auto;baseline-shift:baseline;text-anchor:start;white-space:normal;shape-padding:0;shape-margin:0;inline-size:0;clip-rule:nonzero;display:inline;overflow:visible;visibility:visible;isolation:auto;mix-blend-mode:normal;color-interpolation:sRGB;color-interpolation-filters:linearRGB;solid-color:#000000;solid-opacity:1;vector-effect:none;fill:#4895ef;fill-opacity:1;fill-rule:nonzero;stroke:none;stroke-width:0.529167;stroke-linecap:round;stroke-linejoin:round;stroke-miterlimit:1.5;stroke-dasharray:none;stroke-dashoffset:0;stroke-opacity:1;paint-order:markers fill stroke;color-rendering:auto;image-rendering:auto;shape-rendering:auto;text-rendering:auto;enable-background:accumulate;stop-color:#000000" />
          <path
             id="path741"
             d="m 11.488281,287.24219 a 0.26460996,0.26460996 0 0 0 -0.205078,0.10351 c -0.227082,0.29766 -0.454562,0.59493 -0.681641,0.89258 a 0.26460996,0.26460996 0 0 0 -0.05469,0.16016 v 1.78711 a 0.26460996,0.26460996 0 0 0 0.265625,0.26367 h 1.361328 a 0.26460996,0.26460996 0 0 0 0.265625,-0.26367 v -1.7461 a 0.26460996,0.26460996 0 0 0 -0.0332,-0.125 c -0.202659,-0.37466 -0.494578,-0.67052 -0.695312,-0.95898 a 0.26460996,0.26460996 0 0 0 -0.222657,-0.11328 z"
             style="color:#000000;font-style:normal;font-variant:normal;font-weight:normal;font-stretch:normal;font-size:medium;line-height:normal;font-family:sans-serif;font-variant-ligatures:normal;font-variant-position:normal;font-variant-caps:normal;font-variant-numeric:normal;font-variant-alternates:normal;font-variant-east-asian:normal;font-feature-settings:normal;font-variation-settings:normal;text-indent:0;text-align:start;text-decoration:none;text-decoration-line:none;text-decoration-style:solid;text-decoration-color:#000000;letter-spacing:normal;word-spacing:normal;text-transform:none;writing-mode:lr-tb;direction:ltr;text-orientation:mixed;dominant-baseline:auto;baseline-shift:baseline;text-anchor:start;white-space:normal;shape-padding:0;shape-margin:0;inline-size:0;clip-rule:nonzero;display:inline;overflow:visible;visibility:visible;isolation:auto;mix-blend-mode:normal;color-interpolation:sRGB;color-interpolation-filters:linearRGB;solid-color:#000000;solid-opacity:1;vector-effect:none;fill:#fed883;fill-opacity:1;fill-rule:nonzero;stroke:none;stroke-width:0.529167;stroke-linecap:round;stroke-linejoin:round;stroke-miterlimit:1.5;stroke-dasharray:none;stroke-dashoffset:0;stroke-opacity:1;paint-order:markers fill stroke;color-rendering:auto;image-rendering:auto;shape-rendering:auto;text-rendering:auto;enable-background:accumulate;stop-color:#000000" />
          <path
             id="path762"
             d="m 13.789062,285.45508 a 0.26460996,0.26460996 0 0 0 -0.265624,0.26562 v 4.46485 a 0.26460996,0.26460996 0 0 0 0.265624,0.26367 h 1.488282 a 0.26460996,0.26460996 0 0 0 0.263672,-0.26367 v -4.46485 a 0.26460996,0.26460996 0 0 0 -0.263672,-0.26562 z"
             style="color:#000000;font-style:normal;font-variant:normal;font-weight:normal;font-stretch:normal;font-size:medium;line-height:normal;font-family:sans-serif;font-variant-ligatures:normal;font-variant-position:normal;font-variant-caps:normal;font-variant-numeric:normal;font-variant-alternates:normal;font-variant-east-asian:normal;font-feature-settings:normal;font-variation-settings:normal;text-indent:0;text-align:start;text-decoration:none;text-decoration-line:none;text-decoration-style:solid;text-decoration-color:#000000;letter-spacing:normal;word-spacing:normal;text-transform:none;writing-mode:lr-tb;direction:ltr;text-orientation:mixed;dominant-baseline:auto;baseline-shift:baseline;text-anchor:start;white-space:normal;shape-padding:0;shape-margin:0;inline-size:0;clip-rule:nonzero;display:inline;overflow:visible;visibility:visible;isolation:auto;mix-blend-mode:normal;color-interpolation:sRGB;color-interpolation-filters:linearRGB;solid-color:#000000;solid-opacity:1;vector-effect:none;fill:#dc1c4b;fill-opacity:1;fill-rule:nonzero;stroke:none;stroke-width:0.529167;stroke-linecap:round;stroke-linejoin:round;stroke-miterlimit:1.5;stroke-dasharray:none;stroke-dashoffset:0;stroke-opacity:1;paint-order:markers fill stroke;color-rendering:auto;image-rendering:auto;shape-rendering:auto;text-rendering:auto;enable-background:accumulate;stop-color:#000000" />
          <path
             id="path768"
             d="m 10.941512,289.95678 c -0.155025,-10e-6 -0.276854,0.13265 -0.263672,0.28711 0.079,0.94797 0.157328,1.89578 0.236328,2.84375 4.7e-4,0.006 0.0011,0.0118 0.002,0.0176 0.03228,0.22013 0.06007,0.47563 0.152344,0.78425 0.04614,0.1543 0.107653,0.30524 0.216797,0.43554 0.109144,0.13031 0.289348,0.23438 0.486328,0.23438 0.997674,0.0413 1.916801,-0.0203 3.044816,-0.0232 0.20381,0 0.395149,-0.10431 0.503906,-0.24414 0.108758,-0.13983 0.157445,-0.29751 0.189454,-0.45508 0.06402,-0.31514 0.06107,-0.5724 0.08984,-0.76862 8.63e-4,-0.006 0.0015,-0.0117 0.002,-0.0176 0.079,-0.94797 0.157329,-1.89578 0.236329,-2.84375 0.01318,-0.15446 -0.108647,-0.28712 -0.263672,-0.28711 z"
             style="color:#000000;font-style:normal;font-variant:normal;font-weight:normal;font-stretch:normal;font-size:medium;line-height:normal;font-family:sans-serif;font-variant-ligatures:normal;font-variant-position:normal;font-variant-caps:normal;font-variant-numeric:normal;font-variant-alternates:normal;font-variant-east-asian:normal;font-feature-settings:normal;font-variation-settings:normal;text-indent:0;text-align:start;text-decoration:none;text-decoration-line:none;text-decoration-style:solid;text-decoration-color:#000000;letter-spacing:normal;word-spacing:normal;text-transform:none;writing-mode:lr-tb;direction:ltr;text-orientation:mixed;dominant-baseline:auto;baseline-shift:baseline;text-anchor:start;white-space:normal;shape-padding:0;shape-margin:0;inline-size:0;clip-rule:nonzero;display:inline;overflow:visible;visibility:visible;isolation:auto;mix-blend-mode:normal;color-interpolation:sRGB;color-interpolation-filters:linearRGB;solid-color:#000000;solid-opacity:1;vector-effect:none;fill:#d0e2ee;fill-opacity:1;fill-rule:nonzero;stroke:none;stroke-width:0.529167;stroke-linecap:round;stroke-linejoin:round;stroke-miterlimit:1.5;stroke-dasharray:none;stroke-dashoffset:0;stroke-opacity:1;paint-order:markers fill stroke;color-rendering:auto;image-rendering:auto;shape-rendering:auto;text-rendering:auto;enable-background:accumulate;stop-color:#000000"
             sodipodi:nodetypes="ccccccccssccccc" />
          <path
             d="m 10.941272,289.91981 c -0.155067,5e-5 -0.276858,0.13282 -0.263549,0.28732 0.02142,0.25701 0.04273,0.51401 0.06408,0.77101 h 3.774109 c 0.155068,5e-5 0.276859,0.13282 0.26355,0.28732 -0.079,0.94797 -0.157161,1.89578 -0.236161,2.84375 -5.03e-4,0.006 -0.0012,0.0118 -0.0021,0.0176 -0.0179,0.12208 -0.02474,0.30169 -0.04186,0.49454 0.107907,-6.1e-4 0.207912,-0.002 0.317294,-0.002 0.20381,0 0.395088,-0.10459 0.503845,-0.24442 0.108758,-0.13983 0.157127,-0.29719 0.189136,-0.45476 0.06402,-0.31514 0.06115,-0.6554 0.08992,-0.85162 8.96e-4,-0.006 0.0016,-0.0117 0.0021,-0.0176 0.079,-0.94797 0.157161,-1.89578 0.236161,-2.84375 0.01331,-0.1545 -0.108482,-0.28727 -0.263549,-0.28732 z"
             style="color:#000000;font-style:normal;font-variant:normal;font-weight:normal;font-stretch:normal;font-size:medium;line-height:normal;font-family:sans-serif;font-variant-ligatures:normal;font-variant-position:normal;font-variant-caps:normal;font-variant-numeric:normal;font-variant-alternates:normal;font-variant-east-asian:normal;font-feature-settings:normal;font-variation-settings:normal;text-indent:0;text-align:start;text-decoration:none;text-decoration-line:none;text-decoration-style:solid;text-decoration-color:#000000;letter-spacing:normal;word-spacing:normal;text-transform:none;writing-mode:lr-tb;direction:ltr;text-orientation:mixed;dominant-baseline:auto;baseline-shift:baseline;text-anchor:start;white-space:normal;shape-padding:0;shape-margin:0;inline-size:0;clip-rule:nonzero;display:inline;overflow:visible;visibility:visible;isolation:auto;mix-blend-mode:normal;color-interpolation:sRGB;color-interpolation-filters:linearRGB;solid-color:#000000;solid-opacity:1;vector-effect:none;fill:#a8c2e1;fill-opacity:1;fill-rule:nonzero;stroke:none;stroke-width:0.529167;stroke-linecap:round;stroke-linejoin:round;stroke-miterlimit:1.5;stroke-dasharray:none;stroke-dashoffset:0;stroke-opacity:1;paint-order:markers fill stroke;color-rendering:auto;image-rendering:auto;shape-rendering:auto;text-rendering:auto;enable-background:accumulate;stop-color:#000000"
             id="path977"
             sodipodi:nodetypes="ccccccccsssccccc" />
        </g>
        <g
           id="g1058">
          <path
             id="path637"
             d="m 13.896039,292.50195 c -0.288588,0 -0.529296,0.24072 -0.529296,0.5293 v 1.05859 c 0,0.28859 0.24072,0.5293 0.529296,0.5293 h 2.104406 c 0.288577,0 0.529297,-0.24071 0.529297,-0.5293 v -1.05859 c 0,-0.28858 -0.240708,-0.5293 -0.529297,-0.5293 z"
             style="color:#000000;font-style:normal;font-variant:normal;font-weight:normal;font-stretch:normal;font-size:medium;line-height:normal;font-family:sans-serif;font-variant-ligatures:normal;font-variant-position:normal;font-variant-caps:normal;font-variant-numeric:normal;font-variant-alternates:normal;font-variant-east-asian:normal;font-feature-settings:normal;font-variation-settings:normal;text-indent:0;text-align:start;text-decoration:none;text-decoration-line:none;text-decoration-style:solid;text-decoration-color:#000000;letter-spacing:normal;word-spacing:normal;text-transform:none;writing-mode:lr-tb;direction:ltr;text-orientation:mixed;dominant-baseline:auto;baseline-shift:baseline;text-anchor:start;white-space:normal;shape-padding:0;shape-margin:0;inline-size:0;clip-rule:nonzero;display:inline;overflow:visible;visibility:visible;isolation:auto;mix-blend-mode:normal;color-interpolation:sRGB;color-interpolation-filters:linearRGB;solid-color:#000000;solid-opacity:1;vector-effect:none;fill:#5f8ea2;fill-opacity:1;fill-rule:nonzero;stroke:none;stroke-width:0.529167;stroke-linecap:round;stroke-linejoin:round;stroke-miterlimit:4;stroke-dasharray:none;stroke-dashoffset:0;stroke-opacity:1;paint-order:markers fill stroke;color-rendering:auto;image-rendering:auto;shape-rendering:auto;text-rendering:auto;enable-background:accumulate;stop-color:#000000"
             sodipodi:nodetypes="sssssssss" />
        </g>
        <g
           id="g1053">
          <path
             id="path643"
             d="m 7.0058594,286.71289 c -0.5270769,0.0172 -1.0625101,0.1466 -1.8203125,0.47656 a 0.26460996,0.26460996 0 0 0 -0.1601563,0.24219 v 0.79297 a 0.26460996,0.26460996 0 0 0 0.265625,0.26562 h 3.4375 a 0.26460996,0.26460996 0 0 0 0.2636719,-0.26562 v -1.05664 a 0.26460996,0.26460996 0 0 0 -0.2207031,-0.26172 c -0.7194092,-0.11609 -1.2385482,-0.21057 -1.765625,-0.19336 z"
             style="color:#000000;font-style:normal;font-variant:normal;font-weight:normal;font-stretch:normal;font-size:medium;line-height:normal;font-family:sans-serif;font-variant-ligatures:normal;font-variant-position:normal;font-variant-caps:normal;font-variant-numeric:normal;font-variant-alternates:normal;font-variant-east-asian:normal;font-feature-settings:normal;font-variation-settings:normal;text-indent:0;text-align:start;text-decoration:none;text-decoration-line:none;text-decoration-style:solid;text-decoration-color:#000000;letter-spacing:normal;word-spacing:normal;text-transform:none;writing-mode:lr-tb;direction:ltr;text-orientation:mixed;dominant-baseline:auto;baseline-shift:baseline;text-anchor:start;white-space:normal;shape-padding:0;shape-margin:0;inline-size:0;clip-rule:nonzero;display:inline;overflow:visible;visibility:visible;isolation:auto;mix-blend-mode:normal;color-interpolation:sRGB;color-interpolation-filters:linearRGB;solid-color:#000000;solid-opacity:1;vector-effect:none;fill:#a8c2e1;fill-opacity:1;fill-rule:nonzero;stroke:none;stroke-width:0.529167;stroke-linecap:round;stroke-linejoin:round;stroke-miterlimit:1.5;stroke-dasharray:none;stroke-dashoffset:0;stroke-opacity:1;paint-order:markers fill stroke;color-rendering:auto;image-rendering:auto;shape-rendering:auto;text-rendering:auto;enable-background:accumulate;stop-color:#000000" />
          <path
             id="path649"
             d="m 3.5742188,286.71289 c -0.5270769,-0.0172 -0.6793625,0.0773 -1.3987716,0.19336 -0.1284725,0.0206 -0.222881,0.1316 -0.2226563,0.26172 v 1.05664 c -5.619e-4,0.14693 0.1186931,0.26618 0.265625,0.26562 h 3.0725997 c 0.1461686,-5.2e-4 0.2642308,-0.11945 0.2636719,-0.26562 v -0.79297 c -3.28e-5,-0.10496 -0.062102,-0.19998 -0.1582031,-0.24219 -0.7578025,-0.32996 -1.2951888,-0.45935 -1.8222656,-0.47656 z"
             style="color:#000000;font-style:normal;font-variant:normal;font-weight:normal;font-stretch:normal;font-size:medium;line-height:normal;font-family:sans-serif;font-variant-ligatures:normal;font-variant-position:normal;font-variant-caps:normal;font-variant-numeric:normal;font-variant-alternates:normal;font-variant-east-asian:normal;font-feature-settings:normal;font-variation-settings:normal;text-indent:0;text-align:start;text-decoration:none;text-decoration-line:none;text-decoration-style:solid;text-decoration-color:#000000;letter-spacing:normal;word-spacing:normal;text-transform:none;writing-mode:lr-tb;direction:ltr;text-orientation:mixed;dominant-baseline:auto;baseline-shift:baseline;text-anchor:start;white-space:normal;shape-padding:0;shape-margin:0;inline-size:0;clip-rule:nonzero;display:inline;overflow:visible;visibility:visible;isolation:auto;mix-blend-mode:normal;color-interpolation:sRGB;color-interpolation-filters:linearRGB;solid-color:#000000;solid-opacity:1;vector-effect:none;fill:#a8c2e1;fill-opacity:1;fill-rule:nonzero;stroke:none;stroke-width:0.529167;stroke-linecap:round;stroke-linejoin:round;stroke-miterlimit:1.5;stroke-dasharray:none;stroke-dashoffset:0;stroke-opacity:1;paint-order:markers fill stroke;color-rendering:auto;image-rendering:auto;shape-rendering:auto;text-rendering:auto;enable-background:accumulate;stop-color:#000000"
             sodipodi:nodetypes="cccccccccc" />
          <path
             sodipodi:nodetypes="cccccccccc"
             id="path656"
             d="m 1.7182122,287.42969 c 1.4538463,-0.28291 2.0195376,-0.94661 3.4673347,0.24609 0.1750603,0.0753 0.3698989,-0.0536 0.3691406,-0.24414 v -3.92773 c -3.286e-4,-0.0879 -0.044235,-0.16981 -0.1171875,-0.21875 -0.4515849,-0.30213 -0.9710743,-0.50106 -1.5136719,-0.5625 -0.5425976,-0.0615 -1.1070617,0.0147 -1.6464843,0.25781 -0.2507983,0.1109 -0.3111082,0.24605 -0.424366,0.43555 -0.1136981,0.19023 -0.1328125,0.39756 -0.1328124,0.61523 z"
             style="color:#000000;font-style:normal;font-variant:normal;font-weight:normal;font-stretch:normal;font-size:medium;line-height:normal;font-family:sans-serif;font-variant-ligatures:normal;font-variant-position:normal;font-variant-caps:normal;font-variant-numeric:normal;font-variant-alternates:normal;font-variant-east-asian:normal;font-feature-settings:normal;font-variation-settings:normal;text-indent:0;text-align:start;text-decoration:none;text-decoration-line:none;text-decoration-style:solid;text-decoration-color:#000000;letter-spacing:normal;word-spacing:normal;text-transform:none;writing-mode:lr-tb;direction:ltr;text-orientation:mixed;dominant-baseline:auto;baseline-shift:baseline;text-anchor:start;white-space:normal;shape-padding:0;shape-margin:0;inline-size:0;clip-rule:nonzero;display:inline;overflow:visible;visibility:visible;isolation:auto;mix-blend-mode:normal;color-interpolation:sRGB;color-interpolation-filters:linearRGB;solid-color:#000000;solid-opacity:1;vector-effect:none;fill:#d0e2ee;fill-opacity:1;fill-rule:nonzero;stroke:none;stroke-width:0.529167;stroke-linecap:round;stroke-linejoin:round;stroke-miterlimit:1.5;stroke-dasharray:none;stroke-dashoffset:0;stroke-opacity:1;paint-order:markers fill stroke;color-rendering:auto;image-rendering:auto;shape-rendering:auto;text-rendering:auto;enable-background:accumulate;stop-color:#000000" />
          <path
             sodipodi:nodetypes="cccccccccc"
             id="path665"
             d="m 8.9921875,284.03125 c 0,-0.21767 -0.019114,-0.425 -0.1328125,-0.61523 -0.1132577,-0.1895 -0.3038893,-0.32465 -0.5546875,-0.43555 -0.5394227,-0.24311 -1.1038867,-0.31926 -1.6464844,-0.25781 -0.5425977,0.0614 -1.0620865,0.26037 -1.5136719,0.5625 -0.072953,0.0489 -0.1168588,0.1309 -0.1171874,0.21875 v 3.92773 c -7.583e-4,0.19056 0.1940803,0.31942 0.3691406,0.24414 1.353346,-1.38603 2.1415501,-0.48314 3.5957031,-0.24609 z"
             style="color:#000000;font-style:normal;font-variant:normal;font-weight:normal;font-stretch:normal;font-size:medium;line-height:normal;font-family:sans-serif;font-variant-ligatures:normal;font-variant-position:normal;font-variant-caps:normal;font-variant-numeric:normal;font-variant-alternates:normal;font-variant-east-asian:normal;font-feature-settings:normal;font-variation-settings:normal;text-indent:0;text-align:start;text-decoration:none;text-decoration-line:none;text-decoration-style:solid;text-decoration-color:#000000;letter-spacing:normal;word-spacing:normal;text-transform:none;writing-mode:lr-tb;direction:ltr;text-orientation:mixed;dominant-baseline:auto;baseline-shift:baseline;text-anchor:start;white-space:normal;shape-padding:0;shape-margin:0;inline-size:0;clip-rule:nonzero;display:inline;overflow:visible;visibility:visible;isolation:auto;mix-blend-mode:normal;color-interpolation:sRGB;color-interpolation-filters:linearRGB;solid-color:#000000;solid-opacity:1;vector-effect:none;fill:#d0e2ee;fill-opacity:1;fill-rule:nonzero;stroke:none;stroke-width:0.529167;stroke-linecap:round;stroke-linejoin:round;stroke-miterlimit:1.5;stroke-dasharray:none;stroke-dashoffset:0;stroke-opacity:1;paint-order:markers fill stroke;color-rendering:auto;image-rendering:auto;shape-rendering:auto;text-rendering:auto;enable-background:accumulate;stop-color:#000000" />
          <path
             id="path618"
             d="m 1.6445312,287.96094 c -0.3196818,0 -0.5859374,0.26625 -0.5859374,0.58594 v 1.4746 c 0,0.31969 0.2662556,0.58594 0.5859374,0.58594 h 5.9726563 c 0.3196818,0 0.5839844,-0.26625 0.5839844,-0.58594 v -1.4746 c 0,-0.31969 -0.2643026,-0.58594 -0.5839844,-0.58594 z"
             style="color:#000000;font-style:normal;font-variant:normal;font-weight:normal;font-stretch:normal;font-size:medium;line-height:normal;font-family:sans-serif;font-variant-ligatures:normal;font-variant-position:normal;font-variant-caps:normal;font-variant-numeric:normal;font-variant-alternates:normal;font-variant-east-asian:normal;font-feature-settings:normal;font-variation-settings:normal;text-indent:0;text-align:start;text-decoration:none;text-decoration-line:none;text-decoration-style:solid;text-decoration-color:#000000;letter-spacing:normal;word-spacing:normal;text-transform:none;writing-mode:lr-tb;direction:ltr;text-orientation:mixed;dominant-baseline:auto;baseline-shift:baseline;text-anchor:start;white-space:normal;shape-padding:0;shape-margin:0;inline-size:0;clip-rule:nonzero;display:inline;overflow:visible;visibility:visible;isolation:auto;mix-blend-mode:normal;color-interpolation:sRGB;color-interpolation-filters:linearRGB;solid-color:#000000;solid-opacity:1;vector-effect:none;fill:#50b86b;fill-opacity:1;fill-rule:nonzero;stroke:none;stroke-width:0.529167;stroke-linecap:round;stroke-linejoin:round;stroke-miterlimit:4;stroke-dasharray:none;stroke-dashoffset:0;stroke-opacity:1;paint-order:markers fill stroke;color-rendering:auto;image-rendering:auto;shape-rendering:auto;text-rendering:auto;enable-background:accumulate;stop-color:#000000" />
          <path
             id="path625"
             d="m 2.3808594,290.20844 c -0.288589,0 -0.5292969,0.24072 -0.5292969,0.5293 v 0.92828 c 0,0.28858 0.24072,0.52734 0.5292969,0.52734 h 6.3496094 c 0.2885769,0 0.5292968,-0.23876 0.5292968,-0.52734 v -0.92828 c 0,-0.28858 -0.2407079,-0.5293 -0.5292968,-0.5293 z"
             style="color:#000000;font-style:normal;font-variant:normal;font-weight:normal;font-stretch:normal;font-size:medium;line-height:normal;font-family:sans-serif;font-variant-ligatures:normal;font-variant-position:normal;font-variant-caps:normal;font-variant-numeric:normal;font-variant-alternates:normal;font-variant-east-asian:normal;font-feature-settings:normal;font-variation-settings:normal;text-indent:0;text-align:start;text-decoration:none;text-decoration-line:none;text-decoration-style:solid;text-decoration-color:#000000;letter-spacing:normal;word-spacing:normal;text-transform:none;writing-mode:lr-tb;direction:ltr;text-orientation:mixed;dominant-baseline:auto;baseline-shift:baseline;text-anchor:start;white-space:normal;shape-padding:0;shape-margin:0;inline-size:0;clip-rule:nonzero;display:inline;overflow:visible;visibility:visible;isolation:auto;mix-blend-mode:normal;color-interpolation:sRGB;color-interpolation-filters:linearRGB;solid-color:#000000;solid-opacity:1;vector-effect:none;fill:#dc1c4b;fill-opacity:1;fill-rule:nonzero;stroke:none;stroke-width:0.529167;stroke-linecap:round;stroke-linejoin:round;stroke-miterlimit:4;stroke-dasharray:none;stroke-dashoffset:0;stroke-opacity:1;paint-order:markers fill stroke;color-rendering:auto;image-rendering:auto;shape-rendering:auto;text-rendering:auto;enable-background:accumulate;stop-color:#000000"
             sodipodi:nodetypes="sssssssss" />
          <path
             sodipodi:nodetypes="sssssssss"
             id="path631"
             d="m 1.2110091,291.81346 c -0.39106976,0 -0.71437282,0.32155 -0.71437282,0.71261 v 1.18829 c 0,0.39107 0.32330306,0.71437 0.71437282,0.71437 H 9.354347 c 0.3910698,0 0.712617,-0.3233 0.712617,-0.71437 v -1.18829 c 0,-0.39106 -0.3215472,-0.71261 -0.712617,-0.71261 z"
             style="color:#000000;font-style:normal;font-variant:normal;font-weight:normal;font-stretch:normal;font-size:medium;line-height:normal;font-family:sans-serif;font-variant-ligatures:normal;font-variant-position:normal;font-variant-caps:normal;font-variant-numeric:normal;font-variant-alternates:normal;font-variant-east-asian:normal;font-feature-settings:normal;font-variation-settings:normal;text-indent:0;text-align:start;text-decoration:none;text-decoration-line:none;text-decoration-style:solid;text-decoration-color:#000000;letter-spacing:normal;word-spacing:normal;text-transform:none;writing-mode:lr-tb;direction:ltr;text-orientation:mixed;dominant-baseline:auto;baseline-shift:baseline;text-anchor:start;white-space:normal;shape-padding:0;shape-margin:0;inline-size:0;clip-rule:nonzero;display:inline;overflow:visible;visibility:visible;isolation:auto;mix-blend-mode:normal;color-interpolation:sRGB;color-interpolation-filters:linearRGB;solid-color:#000000;solid-opacity:1;vector-effect:none;fill:#4895ef;fill-opacity:1;fill-rule:nonzero;stroke:none;stroke-width:0.475547;stroke-linecap:round;stroke-linejoin:round;stroke-miterlimit:4;stroke-dasharray:none;stroke-dashoffset:0;stroke-opacity:1;paint-order:markers fill stroke;color-rendering:auto;image-rendering:auto;shape-rendering:auto;text-rendering:auto;enable-background:accumulate;stop-color:#000000" />
        </g>
      </g>
      <path
         sodipodi:nodetypes="ccccccccccccssssccsssssssscsscccccccccccscccccccccccccccccccccccccccccccccccccccccccccccccccscccccccccccccccccccccccccccccccccscccscccsccccccsscccccccccccccccccccccsccccsccccccccccccccccccccccccccccccscccccccsssssssssccccscccccccsccsccssccsccscsccscccccccccccc"
         d="m 8.5613734,286.55909 c 0.1361784,-0.012 0.2407772,-0.12581 0.2413289,-0.26252 0,-1.58784 0,-3.17569 0,-4.76353 -2.36e-4,-0.088 -0.044203,-0.17013 -0.1173054,-0.21911 -0.4513001,-0.3017 -0.9553768,-0.49003 -1.4841471,-0.54674 -0.853127,-0.0277 -1.400415,0.0812 -2.0644739,0.52762 -0.4764362,-0.38149 -1.1320346,-0.53258 -1.6639812,-0.54571 h 1.9e-6 c -0.1347841,-0.002 -0.2682997,0.004 -0.4004924,0.0181 -0.5287705,0.0567 -1.0333637,0.24503 -1.4846638,0.54673 -0.072755,0.049 -0.1164969,0.13088 -0.1167888,0.21859 -5.67e-5,1.50057 0,3.00074 0,4.5005 h -0.072347 c -0.2885768,0 -0.52916668,0.24059 -0.52916668,0.52917 v 1.58802 c 0,0.28859 0.24058978,0.52916 0.52916668,0.52916 h 0.2635498 v 1.05834 H 0.67193396 c -0.32560579,-10e-6 -0.5978963,0.27021 -0.5978963,0.59582 v 1.71876 c 0,0.32561 0.27229051,0.59582 0.5978963,0.59582 H 9.5328917 c 0.3256057,0 0.5958293,-0.27021 0.5958293,-0.59582 v -1.71876 c 0,-0.32561 -0.2702236,-0.59583 -0.5958293,-0.59583 H 9.0703876 v -1.05834 c 0,-0.28858 -0.2411066,-0.52916 -0.5296834,-0.52916 H 8.0115375 v -1.58802 z M 4.8732279,286.03096 H 2.0000183 v -0.39843 c 0.5955441,-0.27129 1.3779648,-0.58306 1.9668048,-0.36174 0.1368565,0.052 0.2899394,-0.017 0.3415813,-0.154 0.050993,-0.13641 -0.017833,-0.28838 -0.1539957,-0.34003 -0.7799779,-0.29317 -1.5551292,0.0196 -2.1543904,0.29301 v -3.35949 c 0.4657607,-0.28436 0.9734153,-0.4371 1.5094686,-0.42426 0.3216319,0.008 0.6533988,0.0752 0.9921874,0.2098 0.1660787,0.0751 0.2499815,0.14436 0.2971395,0.2186 0.047857,0.0753 0.074414,0.17442 0.074414,0.34571 z m 0.5291667,-3.97083 c 0,-0.17129 0.02604,-0.27038 0.073897,-0.34571 0.047155,-0.0742 0.1290172,-0.14348 0.2950726,-0.2186 0.3387886,-0.1346 0.6705555,-0.2021 0.9921875,-0.2098 0.5360532,-0.0128 1.0442247,0.14042 1.5099852,0.42478 v 3.35897 c -0.5992169,-0.27328 -1.3725736,-0.58609 -2.1523234,-0.29301 -0.1371846,0.0506 -0.2073111,0.20289 -0.1565794,0.34003 0.051429,0.13748 0.2049471,0.20682 0.3420978,0.15451 0.5889599,-0.22136 1.3712195,0.0899 1.966805,0.36122 v 0.39843 H 5.4023946 Z m 1.4355712,-0.28577 c -0.3414583,-0.005 -0.6861218,0.0495 -1.0138916,0.18448 -0.1347933,0.0561 -0.1986253,0.21087 -0.142627,0.34572 0.055534,0.1354 0.210435,0.2 0.3457154,0.14418 0.5060225,-0.20832 1.0973157,-0.17657 1.6365926,0.006 0.1387298,0.0475 0.2896129,-0.0269 0.3364135,-0.16588 0.047092,-0.13873 -0.027505,-0.28931 -0.1663981,-0.3359 v -5.3e-4 c -0.3161622,-0.10707 -0.6543466,-0.1728 -0.9958048,-0.17828 z m -3.3889405,5.3e-4 c -0.3484089,-0.008 -0.6973604,0.0525 -1.0231932,0.18345 -0.1355576,0.0545 -0.2012613,0.2086 -0.1467611,0.34417 0.054724,0.13535 0.208743,0.2008 0.3441649,0.14624 0.2565021,-0.10302 0.5358445,-0.15105 0.8144205,-0.14469 0.1467364,0.004 0.2684825,-0.11266 0.2713014,-0.25942 0.00288,-0.14633 -0.1135917,-0.26721 -0.2599325,-0.26975 z m 12.7248167,10.86135 c 0.146928,5.6e-4 0.266177,-0.11869 0.265617,-0.26561 v -1.6056 c 5.56e-4,-0.14694 -0.118697,-0.26619 -0.265629,-0.26562 h -2.795178 c -0.14612,5.8e-4 -0.264107,0.1195 -0.26355,0.26562 v 1.35185 c -0.563371,-0.003 -1.119435,0.0106 -1.663981,-0.0114 -0.08568,-0.0251 -0.13397,-0.0553 -0.170015,-0.1018 -0.03861,-0.0497 -0.06906,-0.12552 -0.08992,-0.22634 l -0.2806,-3.29954 h 4.186824 c -0.037,0.44348 -0.07415,0.88665 -0.111104,1.33015 -0.0119,0.14571 0.09664,0.27346 0.242362,0.28525 0.145335,0.0116 0.272671,-0.0965 0.284737,-0.24185 0.03815,-0.45782 0.07654,-0.91574 0.114722,-1.37355 h 0.05323 c 0.146126,5.8e-4 0.265047,-0.11743 0.265617,-0.26355 5.82e-4,-0.14694 -0.118683,-0.2662 -0.265617,-0.26562 h -0.329699 v -4.19923 c 5.56e-4,-0.14632 -0.117745,-0.26531 -0.264067,-0.26561 H 13.59931 c -0.146927,-5.6e-4 -0.266177,0.11869 -0.265617,0.26561 v 0.62891 h -0.735872 v -0.9276 c -4.4e-5,-0.0796 -0.03591,-0.15494 -0.09767,-0.20515 l -0.744141,-0.59583 c -0.04549,-0.0366 -0.101818,-0.0571 -0.160197,-0.0584 v 2e-5 c -0.06246,-10e-4 -0.123413,0.0192 -0.172083,0.0584 l -0.74414,0.59583 c -0.06253,0.0498 -0.09919,0.12522 -0.09974,0.20516 v 1.19165 c 5.82e-4,0.14613 0.119492,0.26413 0.265617,0.26355 0.145521,-2.9e-4 0.263498,-0.11803 0.264067,-0.26355 v -1.06453 l 0.480074,-0.38292 0.478524,0.38292 v 0.80047 h -0.255799 c -0.145313,5.8e-4 -0.262969,0.11823 -0.26355,0.26355 v 0.77876 c -0.0086,-0.012 -0.01907,-0.0242 -0.02739,-0.0362 -0.05052,-0.0728 -0.134131,-0.11548 -0.222725,-0.11369 -0.08064,0.002 -0.156175,0.0398 -0.205156,0.10387 -0.227082,0.29766 -0.454533,0.5948 -0.681612,0.89245 -0.03531,0.046 -0.05456,0.10224 -0.05478,0.1602 v 1.52135 h -0.03307 c -0.146126,5.8e-4 -0.264122,0.11949 -0.26355,0.26562 5.55e-4,0.14532 0.118231,0.26298 0.26355,0.26355 h 0.05529 l 0.292499,3.40651 c 0.03091,0.14943 0.08444,0.3058 0.191203,0.44338 0.106769,0.13758 0.270506,0.24603 0.467155,0.29714 0.01786,0.005 0.03622,0.008 0.05478,0.01 z M 3.4371397,282.83271 c -0.3414583,-0.005 -0.685605,0.0495 -1.0133747,0.18448 -0.1356008,0.0553 -0.2004573,0.21029 -0.144694,0.34572 0.055331,0.1356 0.2102919,0.20045 0.3457154,0.14469 0.5060224,-0.20833 1.0993826,-0.1771 1.6386595,0.006 0.1381069,0.0461 0.2875274,-0.028 0.3343465,-0.16588 0.047277,-0.13813 -0.026262,-0.28844 -0.1643311,-0.33589 -0.3161623,-0.10707 -0.654863,-0.17332 -0.9963216,-0.17881 z m 3.4142619,10e-4 c -0.3484089,-0.008 -0.6973605,0.0526 -1.0231932,0.18345 -0.1360864,0.0537 -0.2027592,0.20765 -0.1488282,0.34365 0.054515,0.13641 0.209717,0.20229 0.3457152,0.14676 0.2565022,-0.10303 0.5363609,-0.15106 0.8149373,-0.1447 0.1461344,0.003 0.2666881,-0.11379 0.2692344,-0.25993 0.00259,-0.14534 -0.1125439,-0.26556 -0.2578655,-0.26923 z m 7.0119754,1.17925 h 0.958598 v 3.93568 h -0.958598 c 0,-1.31189 0,-2.62378 0,-3.93568 z m -1.785421,0.89297 h 1.255737 v 0.36484 h -0.329695 c -0.146327,-5.8e-4 -0.265332,0.11774 -0.265617,0.26406 -5.82e-4,0.14694 0.118683,0.2662 0.265617,0.26562 h 0.329695 v 0.36329 h -0.329695 c -0.146126,-5.9e-4 -0.265047,0.11742 -0.265617,0.26355 -5.82e-4,0.14693 0.118683,0.26619 0.265617,0.26561 h 0.329695 v 0.36329 h -0.329695 c -0.146934,-5.8e-4 -0.266192,0.11868 -0.265617,0.26562 5.82e-4,0.14612 0.119491,0.26412 0.265617,0.26355 h 0.329695 v 0.36328 h -1.083654 v -1.48053 c -5.03e-4,-0.0438 -0.01187,-0.0867 -0.03307,-0.12506 -0.04244,-0.0785 -0.0904,-0.15155 -0.13901,-0.22375 z m -0.77928,1.07022 c 0.155687,0.1972 0.318484,0.39742 0.422196,0.57619 v 1.3963 h -0.834058 v -1.43144 c 0.137321,-0.18 0.274542,-0.36106 0.411862,-0.54105 z m -9.9001714,0.586 h 6.0859332 v 1.58802 H 1.3985046 Z m 0.5250326,0.39429 c -0.1461259,5.8e-4 -0.2641218,0.11949 -0.2635498,0.26562 v 0.26355 c -8.573e-4,0.14633 0.1172211,0.26556 0.2635498,0.26613 0.1471369,5.8e-4 0.2664801,-0.119 0.2656168,-0.26613 v -0.26355 c 5.742e-4,-0.14693 -0.1186831,-0.26619 -0.2656168,-0.26562 z m 1.0588499,0.13281 c -0.1461256,5.8e-4 -0.2641213,0.11949 -0.2635495,0.26562 5.556e-4,0.14532 0.1182303,0.26298 0.2635495,0.26355 h 3.7052003 c 0.1453193,-5.6e-4 0.2629832,-0.11823 0.2635496,-0.26355 5.821e-4,-0.14613 -0.1174239,-0.26505 -0.2635496,-0.26562 z m -0.791166,1.59008 c 2.1164943,0 4.2329887,0 6.3494831,0 v 1.05834 H 2.1912211 Z m -1.51928714,1.58802 H 9.5328917 c 0.041604,0 0.066662,0.0245 0.066662,0.0661 v 1.71876 c 0,0.0416 -0.025059,0.0661 -0.066662,0.0661 H 0.67193396 c -0.0416043,0 -0.0687297,-0.0245 -0.0687296,-0.0661 v -1.71876 c 0,-0.0416 0.0271254,-0.0661 0.0687296,-0.0661 z m 11.06444104,0.0703 c -0.02307,2.9e-4 -0.046,0.004 -0.06821,0.01 -0.141329,0.0376 -0.225349,0.18273 -0.187585,0.32401 0.02573,0.0958 0.02517,0.31551 0.0801,0.54519 0.02746,0.11484 0.07227,0.24108 0.1757,0.34933 0.103432,0.10825 0.263508,0.17667 0.431498,0.18552 0.145423,0.007 0.26944,-0.10421 0.277503,-0.2496 0.0073,-0.14561 -0.104525,-0.26971 -0.250114,-0.2775 -0.06367,-0.003 -0.06576,-0.0127 -0.07597,-0.0233 -0.0102,-0.0107 -0.02965,-0.0435 -0.04496,-0.10748 -0.03062,-0.12804 -0.0228,-0.33975 -0.08217,-0.56069 -0.03131,-0.11545 -0.136179,-0.19554 -0.255798,-0.19534 z m -10.6055543,0.45682 c -0.1461258,-5.8e-4 -0.26504714,0.11743 -0.26561687,0.26355 v 0.26355 c -5.7415e-4,0.14693 0.11868314,0.26619 0.26561687,0.26562 0.1461259,-5.8e-4 0.2641217,-0.11949 0.2635498,-0.26562 v -0.26355 c -5.666e-4,-0.14531 -0.1182306,-0.26297 -0.2635498,-0.26354 z m 7.9374997,0 c -0.1461257,-5.8e-4 -0.2650471,0.11743 -0.2656168,0.26355 v 0.26562 c 5.821e-4,0.14612 0.1194911,0.26412 0.2656168,0.26355 0.1453192,-5.6e-4 0.2629834,-0.11823 0.2635499,-0.26355 v -0.26562 c -5.557e-4,-0.14532 -0.1182307,-0.26298 -0.2635499,-0.26355 z m -7.1447832,0.13074 c -0.1461258,5.8e-4 -0.2641218,0.11949 -0.2635498,0.26562 5.662e-4,0.14532 0.1182307,0.26298 0.2635498,0.26355 h 6.0859332 c 0.1455208,-2.9e-4 0.2634982,-0.11803 0.2640665,-0.26355 5.821e-4,-0.14633 -0.1177385,-0.26533 -0.2640665,-0.26562 z m 11.7207318,0.10387 h 0.451135 v 1.07797 h -0.451135 z m 0.980819,0 h 1.285192 v 1.07797 h -1.285192 z"
         style="color:#000000;font-style:normal;font-variant:normal;font-weight:normal;font-stretch:normal;font-size:medium;line-height:normal;font-family:sans-serif;font-variant-ligatures:normal;font-variant-position:normal;font-variant-caps:normal;font-variant-numeric:normal;font-variant-alternates:normal;font-variant-east-asian:normal;font-feature-settings:normal;font-variation-settings:normal;text-indent:0;text-align:start;text-decoration:none;text-decoration-line:none;text-decoration-style:solid;text-decoration-color:#000000;letter-spacing:normal;word-spacing:normal;text-transform:none;writing-mode:lr-tb;direction:ltr;text-orientation:mixed;dominant-baseline:auto;baseline-shift:baseline;text-anchor:start;white-space:normal;shape-padding:0;shape-margin:0;inline-size:0;clip-rule:nonzero;display:inline;overflow:visible;visibility:visible;opacity:1;isolation:auto;mix-blend-mode:normal;color-interpolation:sRGB;color-interpolation-filters:linearRGB;solid-color:#000000;solid-opacity:1;vector-effect:none;fill:#000000;fill-opacity:1;fill-rule:nonzero;stroke:none;stroke-width:0.529167;stroke-linecap:round;stroke-linejoin:round;stroke-miterlimit:1.5;stroke-dasharray:none;stroke-dashoffset:0;stroke-opacity:1;paint-order:markers fill stroke;color-rendering:auto;image-rendering:auto;shape-rendering:auto;text-rendering:auto;enable-background:accumulate;stop-color:#000000;stop-opacity:1"
         id="path1994" />
    </g>
  </g>
</svg>
