<svg enable-background="new 0 0 50 50" viewBox="0 0 50 50" xmlns="http://www.w3.org/2000/svg"><path d="m48.88 28.36c-2.9-2.26-6.54-3.62-10.5-3.62-9.44 0-17.1 7.66-17.1 17.1 0 1.26.15 2.49.41 3.68h27.19z" fill="#febecc"/><path d="m14.68 17.97h-12.81v-12.73h46v12.73h-12.82" fill="#ff9d9c"/><path d="m35.05 13.86h9.48v-4.51h-9.48-4.96-10.46-4.95-9.49v4.51h9.49" fill="#fff"/><path d="m35.05 9.35v26.06c0 1.31-1.06 2.36-2.37 2.36h-15.64c-1.31 0-2.37-1.06-2.37-2.36v-26.06z" fill="#e9f4bc"/><path d="m17.83 9.35v22.91c1.31 0 2.37 1.07 2.37 2.36h9.33c0-1.3 1.06-2.36 2.37-2.36v-22.91z" fill="#fde4a1"/><g fill="#505050"><circle cx="14.32" cy="5.24" r=".75"/><path d="m48.4 4.71c-.15-.14-.33-.22-.53-.22h-31.55c-.41 0-.75.34-.75.75s.34.75.75.75h30.8v11.23h-11.31v-2.61h8.73c.41 0 .75-.34.75-.75v-4.5c0-.41-.34-.75-.75-.75h-39.34c-.41 0-.75.34-.75.75v4.5c0 .41.34.75.75.75h8.73v2.61h-11.3v-11.23h9.7c.42 0 .75-.34.75-.75s-.33-.75-.75-.75h-10.45c-.2 0-.39.08-.53.22-.15.14-.22.33-.22.53v12.73c0 .2.08.39.22.53s.33.22.53.22h12.06v16.7c0 1.72 1.4 3.11 3.12 3.11h15.64c1.72 0 3.12-1.4 3.12-3.11v-16.7h12.07c.2 0 .38-.07.53-.22.14-.14.22-.33.22-.53v-12.73c-.01-.2-.1-.39-.24-.53zm-4.61 8.4h-7.98v-3h7.98zm-12.64-3.01v21.5c-1.12.28-2 1.16-2.27 2.27h-8.01c-.28-1.12-1.16-2-2.28-2.27v-21.5zm-25.2 3.01v-3h7.98v3zm26.74 23.92h-15.64c-.89 0-1.62-.72-1.62-1.61v-25.32h1.65v22.16c0 .41.34.75.75.75.9 0 1.62.72 1.62 1.62 0 .41.34.75.75.75h9.33c.41 0 .75-.34.75-.75 0-.89.72-1.62 1.62-1.62.41 0 .75-.34.75-.75v-22.16h1.66v25.31c0 .9-.73 1.62-1.62 1.62z"/><path d="m20.33 21.97h.31c.32 1.04 1.28 1.8 2.43 1.8 1.41 0 2.55-1.15 2.55-2.55 0-.58.47-1.05 1.05-1.05s1.05.47 1.05 1.05-.47 1.05-1.05 1.05c-.41 0-.75.34-.75.75s.34.75.75.75c1.15 0 2.11-.76 2.43-1.8h.3c.41 0 .75-.34.75-.75s-.34-.75-.75-.75h-.3c-.32-1.04-1.28-1.8-2.43-1.8-1.41 0-2.55 1.15-2.55 2.55 0 .58-.47 1.05-1.05 1.05s-1.05-.47-1.05-1.05.47-1.05 1.05-1.05c.41 0 .75-.34.75-.75s-.34-.75-.75-.75c-1.15 0-2.11.76-2.43 1.8h-.31c-.41 0-.75.34-.75.75s.34.75.75.75z"/></g></svg>