<?xml version="1.0" encoding="UTF-8" standalone="no"?>
<!-- Created with Inkscape (http://www.inkscape.org/) -->

<svg
   width="64pt"
   height="64pt"
   viewBox="0 0 22.577778 22.577778"
   version="1.1"
   id="svg831"
   inkscape:version="1.1.1 (3bf5ae0d25, 2021-09-20)"
   sodipodi:docname="Export - Unblash - 64px.svg"
   inkscape:export-filename="C:\Users\User\Desktop\Done Januari 2k22\EX\12 - Armchair.png"
   inkscape:export-xdpi="576"
   inkscape:export-ydpi="576"
   xmlns:inkscape="http://www.inkscape.org/namespaces/inkscape"
   xmlns:sodipodi="http://sodipodi.sourceforge.net/DTD/sodipodi-0.dtd"
   xmlns="http://www.w3.org/2000/svg"
   xmlns:svg="http://www.w3.org/2000/svg"
   xmlns:rdf="http://www.w3.org/1999/02/22-rdf-syntax-ns#"
   xmlns:cc="http://creativecommons.org/ns#"
   xmlns:dc="http://purl.org/dc/elements/1.1/">
  <defs
     id="defs825">
    <pattern
       id="EMFhbasepattern"
       patternUnits="userSpaceOnUse"
       width="6"
       height="6"
       x="0"
       y="0" />
    <pattern
       id="EMFhbasepattern-9"
       patternUnits="userSpaceOnUse"
       width="6"
       height="6"
       x="0"
       y="0" />
    <pattern
       id="EMFhbasepattern-0"
       patternUnits="userSpaceOnUse"
       width="6"
       height="6"
       x="0"
       y="0" />
    <pattern
       id="EMFhbasepattern-7"
       patternUnits="userSpaceOnUse"
       width="6"
       height="6"
       x="0"
       y="0" />
    <pattern
       id="EMFhbasepattern-2"
       patternUnits="userSpaceOnUse"
       width="6"
       height="6"
       x="0"
       y="0" />
    <pattern
       id="EMFhbasepattern-98"
       patternUnits="userSpaceOnUse"
       width="6"
       height="6"
       x="0"
       y="0" />
    <pattern
       id="EMFhbasepattern-6"
       patternUnits="userSpaceOnUse"
       width="6"
       height="6"
       x="0"
       y="0" />
    <pattern
       id="EMFhbasepattern-01"
       patternUnits="userSpaceOnUse"
       width="6"
       height="6"
       x="0"
       y="0" />
    <pattern
       id="EMFhbasepattern-07"
       patternUnits="userSpaceOnUse"
       width="6"
       height="6"
       x="0"
       y="0" />
    <pattern
       id="EMFhbasepattern-8"
       patternUnits="userSpaceOnUse"
       width="6"
       height="6"
       x="0"
       y="0" />
    <pattern
       id="EMFhbasepattern-4"
       patternUnits="userSpaceOnUse"
       width="6"
       height="6"
       x="0"
       y="0" />
    <pattern
       id="EMFhbasepattern-40"
       patternUnits="userSpaceOnUse"
       width="6"
       height="6"
       x="0"
       y="0" />
    <pattern
       id="EMFhbasepattern-08"
       patternUnits="userSpaceOnUse"
       width="6"
       height="6"
       x="0"
       y="0" />
    <pattern
       id="EMFhbasepattern-04"
       patternUnits="userSpaceOnUse"
       width="6"
       height="6"
       x="0"
       y="0" />
    <pattern
       id="EMFhbasepattern-014"
       patternUnits="userSpaceOnUse"
       width="6"
       height="6"
       x="0"
       y="0" />
    <pattern
       id="EMFhbasepattern-27"
       patternUnits="userSpaceOnUse"
       width="6"
       height="6"
       x="0"
       y="0" />
    <pattern
       id="EMFhbasepattern-09"
       patternUnits="userSpaceOnUse"
       width="6"
       height="6"
       x="0"
       y="0" />
    <pattern
       id="EMFhbasepattern-5"
       patternUnits="userSpaceOnUse"
       width="6"
       height="6"
       x="0"
       y="0" />
    <pattern
       id="EMFhbasepattern-018"
       patternUnits="userSpaceOnUse"
       width="6"
       height="6"
       x="0"
       y="0" />
  </defs>
  <sodipodi:namedview
     id="base"
     pagecolor="#ffffff"
     bordercolor="#666666"
     borderopacity="1.0"
     inkscape:pageopacity="0.0"
     inkscape:pageshadow="2"
     inkscape:zoom="4.5878906"
     inkscape:cx="-13.513836"
     inkscape:cy="48.279268"
     inkscape:document-units="pt"
     inkscape:current-layer="layer1"
     showgrid="false"
     units="pt"
     inkscape:window-width="1920"
     inkscape:window-height="1001"
     inkscape:window-x="-9"
     inkscape:window-y="41"
     inkscape:window-maximized="1"
     inkscape:pagecheckerboard="true"
     inkscape:showpageshadow="false"
     inkscape:object-paths="true"
     inkscape:snap-intersection-paths="true"
     inkscape:snap-smooth-nodes="true"
     inkscape:snap-midpoints="true"
     showguides="true"
     inkscape:snap-bbox="true"
     inkscape:bbox-nodes="true"
     inkscape:snap-nodes="false"
     inkscape:snap-global="true">
    <inkscape:grid
       type="xygrid"
       id="grid1378" />
    <sodipodi:guide
       position="0.97013831,21.607643"
       orientation="78.000048,0"
       id="guide1380"
       inkscape:locked="false" />
    <sodipodi:guide
       position="0.97013831,0.97013129"
       orientation="0,78.000005"
       id="guide1382"
       inkscape:locked="false" />
    <sodipodi:guide
       position="21.607639,0.97013129"
       orientation="-78.000048,0"
       id="guide1384"
       inkscape:locked="false" />
    <sodipodi:guide
       position="21.607639,21.607643"
       orientation="0,-78.000005"
       id="guide1386"
       inkscape:locked="false" />
  </sodipodi:namedview>
  <metadata
     id="metadata828">
    <rdf:RDF>
      <cc:Work
         rdf:about="">
        <dc:format>image/svg+xml</dc:format>
        <dc:type
           rdf:resource="http://purl.org/dc/dcmitype/StillImage" />
      </cc:Work>
    </rdf:RDF>
  </metadata>
  <g
     inkscape:label="Icon"
     inkscape:groupmode="layer"
     id="layer1"
     transform="translate(0,-274.42223)">
    <g
       id="g465851"
       style="display:inline;stroke-width:0.782218"
       transform="matrix(1.2784157,0,0,1.2784157,39.460221,-44.148493)">
      <path
         id="path132470"
         style="color:#000000;fill:#ebc8b6;stroke-width:0.782218;stroke-linecap:round;stroke-linejoin:round;-inkscape-stroke:none"
         d="m -27.328049,263.91002 a 0.26460996,0.26460996 0 0 0 -0.263548,0.26355 v 1.58802 a 0.26460996,0.26460996 0 0 0 0.263548,0.26562 h 1.058334 a 0.26460996,0.26460996 0 0 0 0.220658,-0.11886 l 1.05885,-1.58802 a 0.26460996,0.26460996 0 0 0 -0.220658,-0.41031 z m 8.466668,0 a 0.26460996,0.26460996 0 0 0 -0.220659,0.41031 l 1.05885,1.58802 a 0.26460996,0.26460996 0 0 0 0.220659,0.11886 h 1.058333 a 0.26460996,0.26460996 0 0 0 0.26355,-0.26562 v -1.58802 a 0.26460996,0.26460996 0 0 0 -0.26355,-0.26355 z" />
      <path
         style="color:#000000;fill:#dc1c4b;stroke-width:0.782218;stroke-linecap:round;stroke-linejoin:round;-inkscape-stroke:none"
         d="m -22.037109,250.03516 c -0.902719,0 -1.804469,0.13688 -2.675782,0.41015 l -1.554687,0.48633 c -1.614834,0.50646 -2.615106,2.12606 -2.345703,3.79688 l 0.492187,3.04687 -0.002,2.64258 a 0.26460996,0.26460996 0 0 0 0.01172,0.0762 l 0.632812,2.14453 a 0.26460996,0.26460996 0 0 0 0.265625,0.18945 l 4.738282,-0.20507 a 0.26460996,0.26460996 0 0 0 0.002,0 l 4.248047,-0.22461 a 0.26460996,0.26460996 0 0 0 0.09766,-0.0234 l 2.615234,-1.22656 a 0.26460996,0.26460996 0 0 0 0.146485,-0.29102 l -0.386719,-1.91601 -0.195313,-1.1875 0.488282,-3.02539 c 0.269402,-1.67082 -0.73087,-3.29042 -2.345703,-3.79688 l -1.554688,-0.48633 c -0.871312,-0.27327 -1.775015,-0.41015 -2.677734,-0.41015 z"
         id="path17656" />
      <path
         id="path132472"
         style="color:#000000;fill:#d1b3a2;fill-opacity:1;stroke-width:0.782218;stroke-linecap:round;stroke-linejoin:round;-inkscape-stroke:none"
         d="m -27.328049,263.91002 a 0.26460996,0.26460996 0 0 0 -0.263548,0.26355 v 0.7953 h 2.168859 l 0.432531,-0.64854 a 0.26460996,0.26460996 0 0 0 -0.220658,-0.41031 z m 8.466668,0 a 0.26460996,0.26460996 0 0 0 -0.220659,0.41031 l 0.432532,0.64854 h 2.16886 v -0.7953 a 0.26460996,0.26460996 0 0 0 -0.26355,-0.26355 z" />
      <path
         style="color:#000000;fill:#b01d47;stroke-width:0.782218;stroke-linecap:round;stroke-linejoin:round;-inkscape-stroke:none"
         d="m -27.652576,257.48251 c -0.898768,0 -1.695799,0.4507 -2.173512,1.13843 -0.190122,0.27371 -0.255202,0.6174 -0.275434,0.96118 -0.02024,0.34378 0.01103,0.68654 0.07441,0.96067 l 0.67541,2.91816 c 0.132117,0.5713 0.64404,0.97876 1.230415,0.97876 h 12.170318 c 0.586377,0 1.0983,-0.40746 1.230416,-0.97876 l 0.675411,-2.91816 c 0.06339,-0.27413 0.09464,-0.61689 0.07441,-0.96067 -0.02024,-0.34378 -0.0853,-0.68902 -0.275435,-0.96273 -0.477713,-0.68772 -1.274752,-1.13688 -2.173511,-1.13688 -1.458114,0 -2.646862,1.18824 -2.646867,2.64635 0,0.18916 0.02063,0.37375 0.05839,0.5519 -0.992656,-0.18536 -1.990514,-0.28239 -2.992065,-0.28628 -1.016546,-0.004 -2.037393,0.0876 -3.062345,0.27905 0.03677,-0.17591 0.05684,-0.35808 0.05684,-0.54467 -5e-6,-1.45811 -1.188751,-2.64635 -2.646866,-2.64635 z"
         id="path17848" />
      <path
         id="path21691"
         style="color:#000000;fill:#b01d47;fill-opacity:1;stroke-width:0.782218;stroke-linecap:round;stroke-linejoin:round;-inkscape-stroke:none"
         d="m -15.947316,257.75378 0.488343,-3.02514 c 0.173829,-1.15922 -0.241764,-2.32677 -1.067668,-3.0608 -0.39217,-0.36939 -0.849863,-0.56985 -1.277956,-0.73642 -0.565573,-0.17552 -1.165348,-0.36714 -1.718758,-0.53588 -0.946706,-0.30897 -1.922993,-0.39605 -2.887301,-0.37554 -0.543018,-0.0153 -1.539657,0.1905 -2.302048,0.4252 l -1.554944,0.48628 c -1.524604,0.47816 -2.500472,1.94868 -2.37815,3.51761 0.10649,-1.36077 1.026623,-2.56456 2.37815,-2.98845 l 1.554944,-0.48627 c 0.871313,-0.27327 1.773087,-0.40979 2.675806,-0.40979 0.902718,0 1.806044,0.13652 2.677356,0.40979 l 1.554944,0.48627 c 0.41363,0.12973 0.786599,0.33269 1.108459,0.59067 0.585791,0.7311 0.866302,1.69536 0.707967,2.67735 l -0.488342,3.02514 z"
         sodipodi:nodetypes="cccccccccccscccccc" />
      <path
         id="path27233"
         style="color:#000000;fill:#801231;fill-opacity:1;stroke-width:0.782218;stroke-linecap:round;stroke-linejoin:round;-inkscape-stroke:none"
         d="m -27.652576,257.48251 c -0.898768,0 -1.695799,0.4507 -2.173512,1.13843 -0.190122,0.27371 -0.255202,0.6174 -0.275434,0.96118 -0.0096,0.16201 -0.0072,0.32353 0.0041,0.47801 0.09793,-1.23679 1.467129,-2.02996 2.444814,-2.04846 1.368744,0 2.49988,1.04732 2.63343,2.38177 0.0088,-0.087 0.01344,-0.17533 0.01344,-0.26458 -5e-6,-1.45812 -1.188752,-2.64635 -2.646866,-2.64635 h 1.4e-5 z m 13.681822,2.09961 c -0.02024,-0.34378 -0.0853,-0.68902 -0.275435,-0.96273 -0.477713,-0.68772 -1.274752,-1.13688 -2.173511,-1.13688 h 1.5e-5 1.5e-5 c -1.458114,0 -2.646862,1.18823 -2.646867,2.64635 0,0.0889 0.0047,0.17681 0.01344,0.26355 0.134026,-1.33397 1.265036,-2.38074 2.633431,-2.38074 0.898759,0 1.695798,0.44917 2.173511,1.13689 z m -11.089766,1.09103 c -3.96e-4,0.18458 -0.02045,0.36488 -0.05684,0.53898 2.097802,-0.38152 4.211197,-0.35037 6.164928,0.008 -0.03693,-0.17423 -0.05699,-0.35471 -0.05788,-0.5395 -2.054725,-0.37012 -4.139282,-0.35059 -6.050208,-0.007 z"
         sodipodi:nodetypes="csccccsccccccccscsccccccc" />
      <path
         id="path414452"
         style="color:#000000;fill:#801231;fill-opacity:1;stroke-width:0.782218;stroke-linecap:round;stroke-linejoin:round;-inkscape-stroke:none"
         d="m -16.683737,257.49591 c 1.188608,0.24562 2.110027,0.9356 2.183847,2.08618 -0.01713,1.30764 -0.450046,2.58359 -0.749831,3.87883 -0.132116,0.5713 -0.644038,0.97876 -1.230415,0.97876 h 0.529166 c 0.586377,0 1.0983,-0.40746 1.230416,-0.97876 0.179586,-1.00263 0.815126,-2.65179 0.749821,-3.87883 -0.07677,-1.26467 -1.443807,-2.08065 -2.448946,-2.09961 z"
         sodipodi:nodetypes="ccccscccc" />
      <path
         id="path19740"
         style="color:#000000;display:inline;fill:#000000;stroke-width:0.782218;stroke-linecap:round;stroke-linejoin:round;-inkscape-stroke:none"
         d="m -22.036898,250.03542 c -0.902719,0 -1.804493,0.13652 -2.675806,0.40979 l -1.554944,0.48628 c -1.614835,0.50646 -2.614997,2.12636 -2.345593,3.79718 l 0.451136,2.80345 c -0.686062,0.13453 -1.278948,0.53451 -1.663983,1.08882 -0.190122,0.27371 -0.255202,0.6174 -0.275434,0.96118 -0.02024,0.34378 0.01103,0.68654 0.07441,0.96067 l 0.67541,2.91816 c 0.132117,0.5713 0.64404,0.97876 1.230415,0.97876 h 0.529686 v 1.32188 c -5.3e-4,0.14612 0.11743,0.26503 0.263548,0.26562 h 1.058334 c 0.08884,-7e-5 0.171722,-0.0447 0.220658,-0.11886 l 0.979269,-1.46864 h 6.06733 l 0.979268,1.46864 c 0.04894,0.0742 0.131817,0.11879 0.220659,0.11886 h 1.058333 c 0.14612,-5.9e-4 0.264107,-0.1195 0.26355,-0.26562 v -1.32188 h 0.529683 c 0.586377,0 1.0983,-0.40746 1.230416,-0.97876 l 0.675411,-2.91816 c 0.06339,-0.27413 0.09464,-0.61689 0.07441,-0.96067 -0.02024,-0.34378 -0.0853,-0.68902 -0.275435,-0.96273 -0.385421,-0.55486 -0.97911,-0.95415 -1.666048,-1.08779 l 0.453202,-2.80293 c 0.269402,-1.67082 -0.73076,-3.29072 -2.345593,-3.79718 l -1.554944,-0.48628 c -0.871312,-0.27327 -1.774637,-0.40979 -2.677356,-0.40979 z m 5.29e-4,0.52813 c 0.849381,0 1.698918,0.1284 2.518709,0.38551 l 1.552877,0.48834 c 1.367704,0.42895 2.210482,1.79193 1.982308,3.20704 l -0.456819,2.83858 c -1.449087,0.0107 -2.627225,1.19431 -2.627231,2.64584 0,0.18916 0.02063,0.37375 0.05839,0.5519 -2.060326,-0.37191 -4.151553,-0.3556 -6.054411,-0.007 0.03677,-0.17591 0.05684,-0.35808 0.05684,-0.54467 -6e-6,-1.45153 -1.178142,-2.63517 -2.627228,-2.64583 l -0.456822,-2.83859 c -0.228171,-1.41511 0.614606,-2.77809 1.982308,-3.20704 l 1.552877,-0.48834 c 0.819792,-0.25711 1.668811,-0.38551 2.518193,-0.38551 z m -5.29e-4,0.51831 c -0.719595,0 -1.438649,0.10825 -2.133203,0.32608 l -1.228349,0.38706 c -1.303089,0.4087 -2.111849,1.71615 -1.894459,3.06441 l 0.195336,1.21285 c 0.0235,0.14454 0.159909,0.24251 0.304377,0.21859 0.144039,-0.0233 0.242059,-0.15874 0.219107,-0.30282 l -0.195337,-1.21285 c -0.176162,-1.09257 0.473142,-2.14515 1.529106,-2.47634 l 1.228348,-0.38499 c 1.286069,-0.40334 2.665111,-0.40334 3.951181,0 l 1.228865,0.38499 c 1.055963,0.33119 1.705269,1.38377 1.529106,2.47634 l -0.195337,1.21285 c -0.02295,0.14408 0.07507,0.27956 0.219108,0.30282 0.144467,0.0239 0.280887,-0.074 0.304374,-0.21859 l 0.195337,-1.21285 c 0.217391,-1.34826 -0.591369,-2.65571 -1.894458,-3.06441 l -1.228349,-0.38706 c -0.694555,-0.21783 -1.415158,-0.32608 -2.134753,-0.32608 z m -3.019971,2.13476 c -0.07024,1.5e-4 -0.137542,0.0282 -0.187069,0.078 -0.102613,0.1032 -0.102613,0.2699 0,0.3731 l 0.188102,0.18759 -0.188102,0.18758 c -0.102612,0.10321 -0.102612,0.26991 0,0.37311 0.103381,0.10364 0.271274,0.10364 0.374654,0 l 0.187586,-0.18759 0.187585,0.18759 c 0.103203,0.10261 0.269902,0.10261 0.373104,0 0.102613,-0.1032 0.102613,-0.2699 0,-0.37311 l -0.187585,-0.18758 0.187585,-0.18759 c 0.102613,-0.1032 0.102613,-0.2699 0,-0.3731 -0.04965,-0.0499 -0.117164,-0.078 -0.187585,-0.078 -0.0697,5.3e-4 -0.136372,0.0286 -0.185519,0.078 l -0.187585,0.18759 -0.187586,-0.18759 c -0.04965,-0.0499 -0.117164,-0.078 -0.187585,-0.078 z m 5.293217,0 c -0.07042,1e-5 -0.137933,0.0281 -0.187585,0.078 -0.102614,0.1032 -0.102614,0.2699 0,0.3731 l 0.187585,0.18759 -0.187585,0.18758 c -0.102613,0.10321 -0.102613,0.26991 0,0.37311 0.103202,0.10261 0.269901,0.10261 0.373103,0 l 0.187586,-0.18759 0.187585,0.18759 c 0.103381,0.10364 0.271274,0.10364 0.374655,0 0.102612,-0.1032 0.102612,-0.2699 0,-0.37311 l -0.188103,-0.18758 0.188103,-0.18759 c 0.102269,-0.10314 0.102269,-0.26944 0,-0.37258 -0.103381,-0.10365 -0.271274,-0.10365 -0.374655,0 l -0.187068,0.18707 -0.188103,-0.18759 c -0.04915,-0.0494 -0.115814,-0.0775 -0.185518,-0.078 z m -2.64635,1.58802 c -0.07042,1e-5 -0.137933,0.0281 -0.187586,0.078 -0.102612,0.1032 -0.102612,0.2699 0,0.3731 l 0.187586,0.18759 -0.187586,0.18758 c -0.102612,0.1032 -0.102612,0.2699 0,0.37311 0.103439,0.10399 0.271733,0.10399 0.375171,0 l 0.186552,-0.18656 0.186035,0.18656 c 0.103439,0.10399 0.271733,0.10399 0.375171,0 0.102613,-0.10321 0.102613,-0.26991 0,-0.37311 l -0.187585,-0.18758 0.187585,-0.18759 c 0.102613,-0.1032 0.102613,-0.2699 0,-0.3731 -0.04965,-0.0499 -0.117164,-0.078 -0.187585,-0.078 -0.07042,1e-5 -0.137933,0.0281 -0.187586,0.078 l -0.186035,0.18655 -0.186552,-0.18655 c -0.04965,-0.0499 -0.117164,-0.078 -0.187585,-0.078 z m -2.117184,2.11718 c -0.0702,-4e-4 -0.137679,0.0271 -0.187585,0.0765 -0.103645,0.10338 -0.103645,0.27127 0,0.37465 l 0.187069,0.18656 -0.187069,0.18655 c -0.10399,0.10344 -0.10399,0.27173 0,0.37517 0.103439,0.10399 0.271732,0.10399 0.375171,0 l 0.187069,-0.18707 0.187585,0.18707 c 0.103202,0.10261 0.269901,0.10261 0.373104,0 0.10399,-0.10344 0.10399,-0.27173 0,-0.37517 l -0.186552,-0.18655 0.186552,-0.18656 c 0.103644,-0.10338 0.103644,-0.27127 0,-0.37465 -0.04991,-0.0494 -0.117387,-0.0769 -0.187586,-0.0765 -0.06948,1.4e-4 -0.13612,0.0276 -0.185518,0.0765 l -0.187585,0.18707 -0.187069,-0.18707 c -0.04991,-0.0494 -0.117387,-0.0769 -0.187586,-0.0765 z m 4.234367,0 c -0.0702,-4e-4 -0.137679,0.0271 -0.187585,0.0765 -0.103645,0.10338 -0.103645,0.27127 0,0.37465 l 0.186552,0.18656 -0.186552,0.18655 c -0.10399,0.10344 -0.10399,0.27173 0,0.37517 0.103202,0.10261 0.269901,0.10261 0.373104,0 l 0.187585,-0.18707 0.187069,0.18707 c 0.103439,0.10399 0.271732,0.10399 0.375171,0 0.10399,-0.10344 0.10399,-0.27173 0,-0.37517 l -0.187069,-0.18655 0.187069,-0.18656 c 0.103644,-0.10338 0.103644,-0.27127 0,-0.37465 -0.04991,-0.0494 -0.117387,-0.0769 -0.187586,-0.0765 -0.0702,-4e-4 -0.137679,0.0271 -0.187585,0.0765 l -0.187069,0.18707 -0.187585,-0.18707 c -0.0494,-0.0489 -0.116036,-0.0763 -0.185519,-0.0765 z m -7.359757,1.08985 c 1.172131,0 2.117178,0.94506 2.117183,2.11719 0,0.2333 -0.03848,0.45528 -0.108004,0.66404 -0.173981,0.0389 -0.348258,0.0804 -0.522448,0.12506 0.06269,-0.4187 0.0402,-0.86785 -0.09198,-1.26969 -0.181196,-0.55081 -0.635474,-1.02856 -1.316199,-1.03095 -0.491924,0 -0.934299,0.22842 -1.222663,0.58395 -0.160843,0.19832 -0.212162,0.44084 -0.232545,0.67747 -0.02037,0.23662 -0.0028,0.47055 0.03514,0.66043 l 0.464571,2.32389 c 0.02883,0.14279 0.167656,0.23542 0.310573,0.20722 0.143634,-0.0279 0.237397,-0.16699 0.209291,-0.31057 l -0.465087,-2.32441 c -0.02677,-0.13391 -0.04276,-0.33317 -0.02739,-0.5116 0.01537,-0.17844 0.0699,-0.3327 0.115239,-0.3886 0.191453,-0.23605 0.48209,-0.38802 0.810803,-0.38861 0.455104,0.002 0.678251,0.25425 0.814421,0.66818 0.122137,0.37127 0.121203,0.86085 0.02376,1.26038 -0.135464,0.0397 -0.271113,0.0808 -0.406694,0.12403 -0.138451,0.0451 -0.214434,0.1936 -0.170016,0.33228 0.04445,0.13907 0.193154,0.21585 0.33228,0.17156 0.176406,-0.0563 0.352597,-0.10909 0.52865,-0.15916 0.0038,-9.5e-4 0.0076,-0.002 0.01137,-0.003 0.350721,-0.0995 0.700678,-0.18679 1.050066,-0.262 0.0069,-10e-4 0.01384,-0.002 0.02067,-0.004 2.795142,-0.59796 5.549048,-0.42565 8.283733,0.4284 0.139571,0.0438 0.288186,-0.034 0.331762,-0.17363 0.04278,-0.13909 -0.03479,-0.28662 -0.173632,-0.33021 -0.134411,-0.042 -0.268974,-0.0822 -0.403593,-0.12093 -0.0982,-0.4001 -0.09972,-0.89123 0.02274,-1.26349 0.135973,-0.41334 0.358564,-0.66585 0.812353,-0.66817 0.329511,0 0.621044,0.15209 0.812871,0.3886 0.04534,0.0559 0.09986,0.21017 0.115238,0.38861 0.01537,0.17843 -6.08e-4,0.3777 -0.02739,0.5116 l -0.465088,2.3244 c -0.0282,0.14292 0.06443,0.28175 0.207222,0.31058 0.14363,0.0295 0.28385,-0.0635 0.312643,-0.20722 l 0.464571,-2.32389 c 0.03797,-0.18989 0.05552,-0.42381 0.03514,-0.66043 -0.02038,-0.23663 -0.0717,-0.47917 -0.232544,-0.67748 -0.288364,-0.35553 -0.730739,-0.58394 -1.222665,-0.58394 -0.680724,0.002 -1.135002,0.48014 -1.316198,1.03095 -0.132792,0.40366 -0.154707,0.85505 -0.09095,1.27537 -0.173671,-0.044 -0.34742,-0.0854 -0.521415,-0.12402 -0.07094,-0.2107 -0.110071,-0.43499 -0.110071,-0.67076 4e-6,-1.17213 0.945053,-2.11719 2.117183,-2.11719 0.722484,0 1.355474,0.35952 1.737879,0.91003 0.09467,0.13629 0.167024,0.40358 0.183968,0.69143 0.01694,0.28785 -0.01276,0.59557 -0.06253,0.8108 l -0.675928,2.91765 c -0.07727,0.33414 -0.371719,0.56844 -0.714685,0.56844 h -12.170318 c -0.342963,0 -0.637413,-0.2343 -0.714684,-0.56844 l -0.675929,-2.91765 c -0.04977,-0.21523 -0.07947,-0.52295 -0.06253,-0.8108 0.01693,-0.28785 0.0893,-0.55514 0.183968,-0.69143 0.382404,-0.55052 1.015386,-0.91003 1.737878,-0.91003 z m 0.590145,6.42804 h 1.355472 l -0.705383,1.05833 h -0.650089 z m 8.695076,0 h 1.35754 v 1.05833 h -0.652156 z"
         sodipodi:nodetypes="sccccscccsccccccccccccscccsccccssccccsccsccccssccccccccccccccccccscscccccccccccsccccccscccccccccccccccccscccccccccccscccccccccccccccccccccccccccccccccccccccccccssccsccccccccsccsccccccccccccscsscccccsscsccssssccssccccsscccccccccc" />
    </g>
  </g>
</svg>
