<svg viewBox="0 0 512 512" xmlns="http://www.w3.org/2000/svg"><path d="m143.64 103 109.36-70.2a35.59 35.59 0 0 1 30.24-3.88l97.76 31.84h79.48v107.11h-48.11s-15.95 30.86-53.54 30.86h-215.19z" fill="#fcd8c0"/><path d="m405.28 137.77-161.51-45.91h76.77v-2a12.5 12.5 0 0 0 -12.54-12.54h-124.38l-40 25.65v95.76h215.21a60.85 60.85 0 0 0 25.81-5.54c20.36-22.76 20.64-55.42 20.64-55.42z" fill="#ef9e86"/><path d="m51.55 105.49v146.2a14.11 14.11 0 0 0 14.11 14.11h294.09a14.11 14.11 0 0 0 14.11-14.11v-160.31h-308.2a14.11 14.11 0 0 0 -14.11 14.11z" fill="#aabc80"/><path d="m51.55 105.49v67.77a65.16 65.16 0 0 0 86.13-81.88h-72a14.11 14.11 0 0 0 -14.13 14.11z" fill="#c7dba2"/><path d="m346.61 213.79a24.76 24.76 0 0 0 -24.76 24.76h-218.29a24.76 24.76 0 0 0 -24.75-24.76v-70.4a24.75 24.75 0 0 0 24.75-24.75h218.29a24.75 24.75 0 0 0 24.76 24.75z" fill="#c7dba2"/><path d="m399.62 138.39c-12.6 24.08-43 24.7-43 24.7-40.74 0-52.23-29.88-52.23-29.88h-53.5a20.91 20.91 0 0 1 -20.89-20.91 20.92 20.92 0 0 1 20.91-20.92h63.89l60.61-9.21a22 22 0 0 1 25.32 22.51z" fill="#fcd8c0"/><path d="m52 484.85 63.89-94.43a87.34 87.34 0 0 1 81.76-38 134.23 134.23 0 0 1 30 6.64 53.6 53.6 0 0 0 17.81 3.13h58.1a22.49 22.49 0 0 1 22.49 22.49l56.18-60.73a21.17 21.17 0 0 1 28.71-2.2 21.18 21.18 0 0 1 3.23 30l-62.76 76.74a34.51 34.51 0 0 1 -21.78 12.32l-121.42 17.54a34.76 34.76 0 0 0 -25.42 17.57l-4.94 8.93z" fill="#fcd8c0"/><path d="m304.57 410.23h-66.39l-22 17.73v3.88l8.59-.11a23.64 23.64 0 0 0 15.44-6l.71-.63a16.82 16.82 0 0 1 11.26-4.31h58.36a25.12 25.12 0 0 0 23.46-15.42c2.54-6.31 2.86-14.65-2.58-25.19l-.83-.41-4.52 4.89c-.24 18.88-21.5 25.57-21.5 25.57z" fill="#ef9e86"/><path d="m141.09 118.64h-37.53a24.75 24.75 0 0 1 -24.75 24.75v34.61a65.13 65.13 0 0 0 62.28-59.36z" fill="#e0edc3"/><g fill="#4d4d4d"><path d="m460.45 55.06h-78.57l-96.88-31.56a41.13 41.13 0 0 0 -35.08 4.5l-58.37 37.46a5.7 5.7 0 1 0 6.16 9.59l58.36-37.45a29.75 29.75 0 0 1 25.4-3.26l97.74 31.84a5.84 5.84 0 0 0 1.76.28h73.78v95.71h-42.38a5.7 5.7 0 0 0 -5.06 3.08 57.27 57.27 0 0 1 -27.75 23.93v-25.65c9.13-3.9 18.92-10.68 25.1-22.49a5.7 5.7 0 1 0 -10.09-5.29c-10.84 20.71-37.78 21.63-37.92 21.64-36.08 0-46.49-25.18-46.91-26.23a5.69 5.69 0 0 0 -5.32-3.65h-53.53a15.22 15.22 0 1 1 0-30.43h63.91a5.7 5.7 0 0 0 0-11.4h-63.91a26.62 26.62 0 0 0 0 53.23h50c4.76 8.73 20 29.88 55.91 29.88a62.35 62.35 0 0 0 11.39-1.59v84.49a8.42 8.42 0 0 1 -8.41 8.41h-294.12a8.42 8.42 0 0 1 -8.41-8.41v-146.2a8.42 8.42 0 0 1 8.41-8.41h145.34a5.7 5.7 0 0 0 0-11.4h-145.34a19.84 19.84 0 0 0 -19.81 19.81v146.2a19.83 19.83 0 0 0 19.81 19.81h294.09a19.83 19.83 0 0 0 19.81-19.81v-50.43c20.43-6.51 31.87-21.24 36-27.69h44.85a5.7 5.7 0 0 0 5.7-5.7v-107.11a5.7 5.7 0 0 0 -5.66-5.7z"/><path d="m84.51 208.63v-60.07a30.53 30.53 0 0 0 24.21-24.22h97.28a5.7 5.7 0 1 0 0-11.4h-102.44a5.7 5.7 0 0 0 -5.7 5.7 19.08 19.08 0 0 1 -19 19 5.7 5.7 0 0 0 -5.7 5.7v70.4a5.7 5.7 0 0 0 5.7 5.7 19.08 19.08 0 0 1 19 19.06 5.7 5.7 0 0 0 5.7 5.7h218.29a5.7 5.7 0 0 0 5.7-5.7 19.08 19.08 0 0 1 19.06-19.06 5.7 5.7 0 0 0 5.69-5.7v-25.74a5.7 5.7 0 1 0 -11.39 0v20.6a30.53 30.53 0 0 0 -24.22 24.22h-208a30.52 30.52 0 0 0 -24.18-24.19z"/><path d="m205.22 159.84h13.71a5.7 5.7 0 1 0 0-11.4h-4.48v-3.67a5.7 5.7 0 0 0 -11.4 0v3.81a17.92 17.92 0 0 0 2.17 35.71h7.07a6.53 6.53 0 0 1 0 13.06h-13.71a5.7 5.7 0 1 0 0 11.39h4.47v3.67a5.7 5.7 0 0 0 11.4 0v-3.81a17.92 17.92 0 0 0 -2.16-35.71h-7.07a6.53 6.53 0 1 1 0-13z"/><path d="m145.92 174.57a5.7 5.7 0 0 0 -1.67 4 6 6 0 0 0 .11 1.13 5.56 5.56 0 0 0 .33 1 4.55 4.55 0 0 0 .53 1 5.26 5.26 0 0 0 .7.86 4.91 4.91 0 0 0 .87.71 6.18 6.18 0 0 0 1 .53 6.3 6.3 0 0 0 1.07.32 5.21 5.21 0 0 0 1.11.1 5.71 5.71 0 0 0 4-1.66 5.9 5.9 0 0 0 .71-.86 7.28 7.28 0 0 0 .53-1 6.33 6.33 0 0 0 .31-1 4.72 4.72 0 0 0 .12-1.13 5.7 5.7 0 0 0 -9.73-4z"/><path d="m270.72 181.76a6.49 6.49 0 0 0 .71.86 5.67 5.67 0 0 0 8.76-.86 4.55 4.55 0 0 0 .53-1 5.56 5.56 0 0 0 .33-1 6 6 0 0 0 .11-1.11 5.7 5.7 0 0 0 -11.4 0 6 6 0 0 0 .12 1.11 5.53 5.53 0 0 0 .32 1 6.29 6.29 0 0 0 .52 1z"/><path d="m414.52 317.26a27 27 0 0 0 -36.43 2.8l-36 39a5.7 5.7 0 0 0 8.37 7.74l36-39a15.48 15.48 0 0 1 26.74 8.85 15.34 15.34 0 0 1 -3.41 11.46l-62.79 76.74a28.8 28.8 0 0 1 -18.19 10.28l-121.41 17.58a40.66 40.66 0 0 0 -29.59 20.45l-3.32 6h-111.73l57.87-85.54a81.45 81.45 0 0 1 76.42-35.55 129.29 129.29 0 0 1 28.75 6.35 59.15 59.15 0 0 0 19.7 3.46h58.1a16.82 16.82 0 0 1 16.79 16.79 18.15 18.15 0 0 1 -18.13 18.13h-53.26a37.31 37.31 0 0 0 -23.79 8.59l-12.5 10.37a5.7 5.7 0 0 0 3.65 10.09 5.62 5.62 0 0 0 3.63-1.32l12.5-10.37a25.93 25.93 0 0 1 16.51-6h53.26a29.57 29.57 0 0 0 29.53-29.53 28.23 28.23 0 0 0 -28.19-28.19h-58.1a47.82 47.82 0 0 1 -15.92-2.81 140.69 140.69 0 0 0 -31.29-6.93 92.83 92.83 0 0 0 -87.1 40.49l-63.89 94.46a5.69 5.69 0 0 0 4.7 8.89h125.85a5.68 5.68 0 0 0 5-2.94l4.94-8.92a29.23 29.23 0 0 1 21.21-14.68l121.46-17.58a40.12 40.12 0 0 0 25.37-14.35l62.76-76.74a26.88 26.88 0 0 0 -4.1-38.06z"/></g></svg>