<svg viewBox="0 0 48 48" xmlns="http://www.w3.org/2000/svg"><ellipse cx="24" cy="45.5" fill="#45413c" opacity=".15" rx="15" ry="1.5"/><path d="m24 31.22a11.88 11.88 0 0 1 11.88 11.88v1.9a0 0 0 0 1 0 0h-23.76a0 0 0 0 1 0 0v-1.9a11.88 11.88 0 0 1 11.88-11.88z" fill="#fff"/><path d="m24 31.22a11.88 11.88 0 0 0 -11.88 11.88v1.9h.05a11.87 11.87 0 0 1 11.83-11 11.88 11.88 0 0 1 11.84 11v-1.9a11.88 11.88 0 0 0 -11.84-11.88z" fill="#e0e0e0"/><g stroke="#45413c" stroke-linecap="round" stroke-linejoin="round"><path d="m24 31.22a11.88 11.88 0 0 1 11.88 11.88v1.9a0 0 0 0 1 0 0h-23.76a0 0 0 0 1 0 0v-1.9a11.88 11.88 0 0 1 11.88-11.88z" fill="none"/><path d="m20.25 45-2-5.29 1.21-1.6-1.11-.53a13.06 13.06 0 0 1 .06-3.75c.19-1.49.88-3.83 5.59-3.83s5.41 2.3 5.63 3.79a13 13 0 0 1 .06 3.75l-1.11.53 1.21 1.6-2 5.29z" fill="#f0f0f0"/><path d="m26.54 31.5a11.66 11.66 0 0 0 -5.08 0v1.07c0 7.84.16 12.43.16 12.43h4.76s.16-4.59.16-12.43z" fill="#00dfeb"/></g><path d="m24 35.86c-1.41 0-2.54-1.89-2.54-3.29v-2.85a2.54 2.54 0 0 1 2.54-2.55 2.54 2.54 0 0 1 2.54 2.55v2.85c0 1.43-1.13 3.29-2.54 3.29z" fill="#ffcebf"/><path d="m24 27.69a2.54 2.54 0 0 0 -2.54 2.55v.59a2.54 2.54 0 1 0 5.08 0v-.59a2.54 2.54 0 0 0 -2.54-2.55z" fill="#ffb59e"/><g fill="none" stroke="#45413c" stroke-linecap="round" stroke-linejoin="round"><path d="m24 35.86c-1.41 0-2.54-1.89-2.54-3.29v-2.85a2.54 2.54 0 0 1 2.54-2.55 2.54 2.54 0 0 1 2.54 2.55v2.85c0 1.43-1.13 3.29-2.54 3.29z"/><path d="m17.06 45v-2.41"/><path d="m30.94 45v-2.41"/></g><path d="m24 6.91a9.83 9.83 0 0 0 -2.44.31c-1.86.42-4.28 1.12-6.47.7a4.2 4.2 0 0 0 .84 3.21 9.81 9.81 0 0 0 -1.75 5.6v5.14h19.64v-5.14a9.82 9.82 0 0 0 -9.82-9.82z" fill="#a86c4d"/><path d="m24 6.91a9.83 9.83 0 0 0 -2.44.31c-1.86.42-4.28 1.12-6.47.7a4.47 4.47 0 0 0 .68 3 19.4 19.4 0 0 0 5.79-.79 9.81 9.81 0 0 1 12.26 9.51v-2.91a9.82 9.82 0 0 0 -9.82-9.82z" fill="#de926a"/><g stroke="#45413c" stroke-linecap="round" stroke-linejoin="round"><path d="m24 6.91a9.83 9.83 0 0 0 -2.44.31c-1.86.42-4.28 1.12-6.47.7a4.2 4.2 0 0 0 .84 3.21 9.81 9.81 0 0 0 -1.75 5.6v5.14h19.64v-5.14a9.82 9.82 0 0 0 -9.82-9.82z" fill="none"/><path d="m34.87 21.12a1.83 1.83 0 0 0 -1.39-1.54l-.59-.16a2.06 2.06 0 0 1 -1.5-2v-2.04a1.88 1.88 0 0 0 -1.39-1.81 15.34 15.34 0 0 1 -6 1.09 15.34 15.34 0 0 1 -6-1.09 1.88 1.88 0 0 0 -1.4 1.81v2.06a2.06 2.06 0 0 1 -1.5 2l-.59.16a1.83 1.83 0 0 0 -1.39 1.54 1.81 1.81 0 0 0 1.81 2h.11a9 9 0 0 0 17.9 0h.12a1.81 1.81 0 0 0 1.81-2.02z" fill="#ffcebf"/><g fill="#45413c"><path d="m18.57 20.91a.77.77 0 1 0 .77-.77.76.76 0 0 0 -.77.77z"/><path d="m29.43 20.91a.77.77 0 1 1 -.77-.77.76.76 0 0 1 .77.77z"/></g></g><path d="m21.16 25.6a.44.44 0 0 0 -.33.16.42.42 0 0 0 -.1.35 3.32 3.32 0 0 0 6.54 0 .42.42 0 0 0 -.1-.35.42.42 0 0 0 -.33-.16z" fill="#ff6242"/><path d="m24 27a4 4 0 0 0 -2.52.77 3.36 3.36 0 0 0 5 0 4 4 0 0 0 -2.48-.77z" fill="#ffa694"/><path d="m21.16 25.6a.44.44 0 0 0 -.33.16.42.42 0 0 0 -.1.35 3.32 3.32 0 0 0 6.54 0 .42.42 0 0 0 -.1-.35.42.42 0 0 0 -.33-.16z" fill="none" stroke="#45413c" stroke-linecap="round" stroke-linejoin="round"/><ellipse cx="18.06" cy="24.19" fill="#ffb59e" rx="1" ry=".6"/><ellipse cx="29.94" cy="24.19" fill="#ffb59e" rx="1" ry=".6"/><g stroke="#45413c" stroke-linecap="round" stroke-linejoin="round"><path d="m34.69 22.07c1.43 0 1.88 1.1.6 7.59-1.58 8-4.73 8.67-11.29 8.67s-9.71-.65-11.29-8.67c-1.28-6.49-.83-7.59.6-7.59" fill="none"/><g fill="#87898c"><path d="m13.18 21.09h1.84v1.96h-1.84z"/><path d="m32.99 21.09h1.84v1.96h-1.84z" transform="matrix(-1 0 0 -1 67.81 44.14)"/><path d="m26.31 37.39h-4.62a.5.5 0 0 0 -.5.5v.88a.5.5 0 0 0 .5.5h1.39v5.73h1.84v-5.73h1.39a.5.5 0 0 0 .5-.5v-.88a.5.5 0 0 0 -.5-.5z"/></g></g><path d="m37.34 38.08a1.54 1.54 0 0 0 -1.53-1.35.79.79 0 0 0 -.79.79v5.14a2.34 2.34 0 0 0 2.34 2.34h1.69v-6.92z" fill="#ffcebf"/><path d="m35.81 36.73a.79.79 0 0 0 -.79.79v1.92a.79.79 0 0 1 .79-.79 1.55 1.55 0 0 1 1.55 1.54v-1.92a1.55 1.55 0 0 0 -1.55-1.54z" fill="#ffdcd1"/><path d="m37.34 38.08a1.54 1.54 0 0 0 -1.53-1.35.79.79 0 0 0 -.79.79v5.14a2.34 2.34 0 0 0 2.34 2.34h1.69v-6.92z" fill="none" stroke="#45413c" stroke-linecap="round" stroke-linejoin="round"/><rect fill="#ffcebf" height="2.31" rx="1.15" width="4.33" x="36.88" y="38.08"/><path d="m38 39.24h2a1.12 1.12 0 0 1 1 .57 1.13 1.13 0 0 0 .18-.57 1.16 1.16 0 0 0 -1.16-1.16h-2.02a1.16 1.16 0 0 0 -1.16 1.16 1.13 1.13 0 0 0 .18.57 1.12 1.12 0 0 1 .98-.57z" fill="#ffdcd1"/><g stroke="#45413c" stroke-linecap="round" stroke-linejoin="round"><rect fill="none" height="2.31" rx="1.15" width="4.33" x="36.88" y="38.08"/><rect fill="#ffcebf" height="2.31" rx="1.15" width="4.33" x="36.88" y="40.39"/><rect fill="#ffcebf" height="2.31" rx="1.15" width="4.33" x="36.88" y="42.69"/><circle cx="38.32" cy="35" fill="#c0dceb" r="2.87"/></g><circle cx="38.32" cy="35" fill="#e8f4fa" r="1.44"/></svg>