<svg viewBox="0 0 48 48" xmlns="http://www.w3.org/2000/svg"><ellipse cx="27.6" cy="44.28" fill="#45413c" opacity=".15" rx="15.52" ry="1.72"/><path d="m12.11 29.24h20.12v8.05h-20.12z" fill="#f0f0f0" transform="matrix(.97084213 .23971974 -.23971974 .97084213 8.62 -4.35)"/><path d="m12.73 29.31h20.12v2.95h-20.12z" fill="#fff" transform="matrix(.97084213 .23971974 -.23971974 .97084213 8.05 -4.57)"/><path d="m12.11 29.24h20.12v8.05h-20.12z" fill="none" stroke="#45413c" stroke-linecap="round" stroke-linejoin="round" transform="matrix(.97084213 .23971974 -.23971974 .97084213 8.62 -4.35)"/><path d="m31.75 33.23h12.07a1.15 1.15 0 0 1 1.18 1.15v5.75a1.15 1.15 0 0 1 -1.15 1.15h-12.1a0 0 0 0 1 0 0v-8a0 0 0 0 1 0-.05z" fill="#f0d5a8" transform="matrix(.97084213 .23971974 -.23971974 .97084213 10.05 -8.11)"/><path d="m32.36 33.31h12.07a1.15 1.15 0 0 1 1.15 1.15v1.1a.7.7 0 0 1 -.7.7h-12.52a0 0 0 0 1 0 0v-2.95a0 0 0 0 1 0 0z" fill="#f7e5c6" transform="matrix(.97084213 .23971974 -.23971974 .97084213 9.48 -8.33)"/><g stroke="#45413c" stroke-linecap="round" stroke-linejoin="round"><path d="m31.75 33.23h12.07a1.15 1.15 0 0 1 1.18 1.15v5.75a1.15 1.15 0 0 1 -1.15 1.15h-12.1a0 0 0 0 1 0 0v-8a0 0 0 0 1 0-.05z" fill="none" transform="matrix(.97084213 .23971974 -.23971974 .97084213 10.05 -8.11)"/><path d="m6.47 33.28-.72-1.81a.57.57 0 0 1 .33-.75l.92-.34a.57.57 0 0 0 .36-.65l-.26-1.25a.5.5 0 0 0 -.13-.26l-.9-1a.57.57 0 0 1 0-.74l.68-.82a.58.58 0 0 1 .58-.2l4.43 1.1-1.99 7.78-2.9-.72a.57.57 0 0 1 -.4-.34z" fill="#bdbec0"/><path d="m13.37 26.94-2.1-.52a.57.57 0 0 0 -.26 0l-1.12.25-.55 2.23 1 .84-.87 1.37a.64.64 0 0 0 -.08.36l.1 1.26a.56.56 0 0 1 -.28.54l-1.09.66 3.35.82z" fill="#ff6242"/><g fill="#f0f0f0"><circle cx="6.94" cy="12.22" r="2.38"/><path d="m10.47 19.36a1.77 1.77 0 1 1 -1.77-1.77 1.77 1.77 0 0 1 1.77 1.77z"/><path d="m15.72 7.12a3.64 3.64 0 1 0 -5.24.94 3.58 3.58 0 0 0 1.9.71 1.94 1.94 0 0 0 .76 1.29 2 2 0 0 0 2.77-.39 2 2 0 0 0 -.19-2.55z"/></g></g></svg>