<?xml version="1.0" encoding="UTF-8" standalone="no"?>
<!-- Created with Inkscape (http://www.inkscape.org/) -->

<svg
   xmlns:dc="http://purl.org/dc/elements/1.1/"
   xmlns:cc="http://creativecommons.org/ns#"
   xmlns:rdf="http://www.w3.org/1999/02/22-rdf-syntax-ns#"
   xmlns:svg="http://www.w3.org/2000/svg"
   xmlns="http://www.w3.org/2000/svg"
   xmlns:sodipodi="http://sodipodi.sourceforge.net/DTD/sodipodi-0.dtd"
   xmlns:inkscape="http://www.inkscape.org/namespaces/inkscape"
   width="48pt"
   height="48pt"
   viewBox="0 0 16.933334 16.933333"
   version="1.1"
   id="svg979"
   inkscape:version="0.92.4 (5da689c313, 2019-01-14)"
   sodipodi:docname="7 - Insurance.svg"
   inkscape:export-filename="E:\TR Design Studio Creative\Project Design\TR Creative Design\Icon Design\Project Hiring\Icon Icons\003 - Business And Finance\Send\4 - Filled Line\6 - Business Strategy.png"
   inkscape:export-xdpi="768"
   inkscape:export-ydpi="768">
  <defs
     id="defs973" />
  <sodipodi:namedview
     id="base"
     pagecolor="#ffffff"
     bordercolor="#666666"
     borderopacity="1.0"
     inkscape:pageopacity="0.0"
     inkscape:pageshadow="2"
     inkscape:zoom="4.2734375"
     inkscape:cx="67.68087"
     inkscape:cy="16.319711"
     inkscape:document-units="pt"
     inkscape:current-layer="layer1"
     showgrid="false"
     units="pt"
     inkscape:window-width="1366"
     inkscape:window-height="716"
     inkscape:window-x="-8"
     inkscape:window-y="-8"
     inkscape:window-maximized="1"
     inkscape:snap-bbox="true"
     inkscape:bbox-nodes="true"
     inkscape:snap-nodes="false"
     showguides="false">
    <inkscape:grid
       type="xygrid"
       id="grid1526" />
    <sodipodi:guide
       position="0.97013909,15.963209"
       orientation="56.666615,0"
       id="guide1528"
       inkscape:locked="false" />
    <sodipodi:guide
       position="0.97013909,0.97016731"
       orientation="0,56.666667"
       id="guide1530"
       inkscape:locked="false" />
    <sodipodi:guide
       position="15.963195,0.97016731"
       orientation="-56.666615,0"
       id="guide1532"
       inkscape:locked="false" />
    <sodipodi:guide
       position="15.963195,15.963209"
       orientation="0,-56.666667"
       id="guide1534"
       inkscape:locked="false" />
  </sodipodi:namedview>
  <metadata
     id="metadata976">
    <rdf:RDF>
      <cc:Work
         rdf:about="">
        <dc:format>image/svg+xml</dc:format>
        <dc:type
           rdf:resource="http://purl.org/dc/dcmitype/StillImage" />
        <dc:title></dc:title>
      </cc:Work>
    </rdf:RDF>
  </metadata>
  <g
     inkscape:label="Layer 1"
     inkscape:groupmode="layer"
     id="layer1"
     transform="translate(0,-280.06668)">
    <g
       transform="matrix(1.2187267,0,0,1.2187267,54.383469,-65.690118)"
       id="g2261"
       style="stroke-width:0.82052851">
      <path
         inkscape:connector-curvature="0"
         style="color:#000000;font-style:normal;font-variant:normal;font-weight:normal;font-stretch:normal;font-size:medium;line-height:normal;font-family:sans-serif;font-variant-ligatures:normal;font-variant-position:normal;font-variant-caps:normal;font-variant-numeric:normal;font-variant-alternates:normal;font-feature-settings:normal;text-indent:0;text-align:start;text-decoration:none;text-decoration-line:none;text-decoration-style:solid;text-decoration-color:#000000;letter-spacing:normal;word-spacing:normal;text-transform:none;writing-mode:lr-tb;direction:ltr;text-orientation:mixed;dominant-baseline:auto;baseline-shift:baseline;text-anchor:start;white-space:normal;shape-padding:0;clip-rule:nonzero;display:inline;overflow:visible;visibility:visible;isolation:auto;mix-blend-mode:normal;color-interpolation:sRGB;color-interpolation-filters:linearRGB;solid-color:#000000;solid-opacity:1;vector-effect:none;fill:#ffcd40;fill-opacity:1;fill-rule:nonzero;stroke:none;stroke-width:0.43419662;stroke-linecap:round;stroke-linejoin:round;stroke-miterlimit:4;stroke-dasharray:none;stroke-dashoffset:0;stroke-opacity:1;color-rendering:auto;image-rendering:auto;shape-rendering:auto;text-rendering:auto;enable-background:accumulate"
         d="m -36.852443,295.13441 c -0.420386,0 -0.765625,0.34718 -0.765625,0.76757 0,0.42039 0.345239,0.76758 0.765625,0.76758 h 2.099609 c 0.420385,0 0.767579,-0.34719 0.767579,-0.76758 0,-0.42039 -0.347194,-0.76757 -0.767579,-0.76757 z"
         id="path2207" />
      <path
         inkscape:connector-curvature="0"
         style="color:#000000;font-style:normal;font-variant:normal;font-weight:normal;font-stretch:normal;font-size:medium;line-height:normal;font-family:sans-serif;font-variant-ligatures:normal;font-variant-position:normal;font-variant-caps:normal;font-variant-numeric:normal;font-variant-alternates:normal;font-feature-settings:normal;text-indent:0;text-align:start;text-decoration:none;text-decoration-line:none;text-decoration-style:solid;text-decoration-color:#000000;letter-spacing:normal;word-spacing:normal;text-transform:none;writing-mode:lr-tb;direction:ltr;text-orientation:mixed;dominant-baseline:auto;baseline-shift:baseline;text-anchor:start;white-space:normal;shape-padding:0;clip-rule:nonzero;display:inline;overflow:visible;visibility:visible;isolation:auto;mix-blend-mode:normal;color-interpolation:sRGB;color-interpolation-filters:linearRGB;solid-color:#000000;solid-opacity:1;vector-effect:none;fill:#29b6f6;fill-opacity:1;fill-rule:nonzero;stroke:none;stroke-width:0.43419662;stroke-linecap:round;stroke-linejoin:round;stroke-miterlimit:4;stroke-dasharray:none;stroke-dashoffset:0;stroke-opacity:1;color-rendering:auto;image-rendering:auto;shape-rendering:auto;text-rendering:auto;enable-background:accumulate"
         d="m -37.649318,284.49964 c -1.329675,-0.005 -2.542529,0.38087 -3.4375,1.0293 -0.894971,0.64843 -1.478391,1.57381 -1.490235,2.61328 a 0.2646655,0.2646655 0 0 0 0.529297,0.006 c 0.0024,-0.20513 0.119912,-0.40778 0.34961,-0.57227 0.229697,-0.16449 0.565919,-0.27689 0.939453,-0.27539 0.373455,10e-4 0.705151,0.11654 0.93164,0.2832 0.225923,0.16625 0.341969,0.36828 0.341797,0.57813 0,5.3e-4 2e-6,10e-4 0,0.002 a 0.26465606,0.26465606 0 0 0 0.529297,0.004 c 6e-6,-5.4e-4 -7e-6,-10e-4 0,-0.002 0.003,-0.21796 0.12097,-0.42209 0.34961,-0.5879 0.229201,-0.16621 0.563966,-0.27884 0.9375,-0.27734 0.373455,10e-4 0.707104,0.11654 0.933593,0.2832 0.225921,0.16625 0.340015,0.36829 0.339844,0.57813 0,5.3e-4 2e-6,10e-4 0,0.002 a 0.26465606,0.26465606 0 0 0 0.529297,0.004 c 6e-6,-5.4e-4 -8e-6,-10e-4 0,-0.002 0.003,-0.21796 0.120969,-0.42209 0.349609,-0.5879 0.229202,-0.16621 0.563967,-0.27884 0.9375,-0.27734 0.373455,10e-4 0.707213,0.11617 0.933594,0.2832 0.226382,0.16703 0.340602,0.37068 0.339844,0.58399 a 0.26465039,0.26465039 0 0 0 0.529297,0.002 c 0.0036,-1.03394 -0.565537,-1.961 -1.451172,-2.61523 -0.885635,-0.65461 -2.092203,-1.04972 -3.421875,-1.05506 z"
         id="path2259" />
      <path
         inkscape:connector-curvature="0"
         id="path2281"
         style="color:#000000;font-style:normal;font-variant:normal;font-weight:normal;font-stretch:normal;font-size:medium;line-height:normal;font-family:sans-serif;font-variant-ligatures:normal;font-variant-position:normal;font-variant-caps:normal;font-variant-numeric:normal;font-variant-alternates:normal;font-feature-settings:normal;text-indent:0;text-align:start;text-decoration:none;text-decoration-line:none;text-decoration-style:solid;text-decoration-color:#000000;letter-spacing:normal;word-spacing:normal;text-transform:none;writing-mode:lr-tb;direction:ltr;text-orientation:mixed;dominant-baseline:auto;baseline-shift:baseline;text-anchor:start;white-space:normal;shape-padding:0;clip-rule:nonzero;display:inline;overflow:visible;visibility:visible;isolation:auto;mix-blend-mode:normal;color-interpolation:sRGB;color-interpolation-filters:linearRGB;solid-color:#000000;solid-opacity:1;vector-effect:none;fill:#27a1db;fill-opacity:1;fill-rule:nonzero;stroke:none;stroke-width:0.43419662;stroke-linecap:round;stroke-linejoin:round;stroke-miterlimit:4;stroke-dasharray:none;stroke-dashoffset:0;stroke-opacity:1;color-rendering:auto;image-rendering:auto;shape-rendering:auto;text-rendering:auto;enable-background:accumulate"
         d="m -37.6494,284.4996 c -0.09959,-3.7e-4 -0.196879,0.006 -0.295072,0.01 1.236245,0.0482 2.354909,0.4297 3.187919,1.04541 0.884893,0.65369 1.453713,1.57987 1.451074,2.61276 -2e-6,8.8e-4 3e-6,0.002 0,0.003 3.8e-5,0.003 3.8e-5,0.005 0,0.008 0.01101,0.34671 0.528319,0.33913 0.529166,-0.008 0.0036,-1.03394 -0.565439,-1.96112 -1.451074,-2.61535 -0.885635,-0.65461 -2.09234,-1.04989 -3.422013,-1.05523 z"
         sodipodi:nodetypes="cccscccccc" />
      <path
         inkscape:connector-curvature="0"
         d="m -36.852778,295.13403 c -0.348553,0 -0.666615,0.41231 -0.757901,0.7335 0.06554,-0.0186 0.182196,-0.037 0.253347,-0.037 h 2.099613 c 0.420385,0 0.743298,0.18019 0.743298,0.60058 0,0.0711 -0.01347,0.13858 -0.03204,0.20412 0.321092,-0.0913 0.561206,-0.38479 0.561206,-0.73329 0,-0.42039 -0.347527,-0.76791 -0.767912,-0.76791 z"
         style="color:#000000;font-style:normal;font-variant:normal;font-weight:normal;font-stretch:normal;font-size:medium;line-height:normal;font-family:sans-serif;font-variant-ligatures:normal;font-variant-position:normal;font-variant-caps:normal;font-variant-numeric:normal;font-variant-alternates:normal;font-feature-settings:normal;text-indent:0;text-align:start;text-decoration:none;text-decoration-line:none;text-decoration-style:solid;text-decoration-color:#000000;letter-spacing:normal;word-spacing:normal;text-transform:none;writing-mode:lr-tb;direction:ltr;text-orientation:mixed;dominant-baseline:auto;baseline-shift:baseline;text-anchor:start;white-space:normal;shape-padding:0;clip-rule:nonzero;display:inline;overflow:visible;visibility:visible;isolation:auto;mix-blend-mode:normal;color-interpolation:sRGB;color-interpolation-filters:linearRGB;solid-color:#000000;solid-opacity:1;vector-effect:none;fill:#f8a92d;fill-opacity:1;fill-rule:nonzero;stroke:none;stroke-width:0.43419662;stroke-linecap:round;stroke-linejoin:round;stroke-miterlimit:4;stroke-dasharray:none;stroke-dashoffset:0;stroke-opacity:1;color-rendering:auto;image-rendering:auto;shape-rendering:auto;text-rendering:auto;enable-background:accumulate"
         id="path2296"
         sodipodi:nodetypes="ccssscscc" />
      <path
         inkscape:connector-curvature="0"
         style="color:#000000;font-style:normal;font-variant:normal;font-weight:normal;font-stretch:normal;font-size:medium;line-height:normal;font-family:sans-serif;font-variant-ligatures:normal;font-variant-position:normal;font-variant-caps:normal;font-variant-numeric:normal;font-variant-alternates:normal;font-feature-settings:normal;text-indent:0;text-align:start;text-decoration:none;text-decoration-line:none;text-decoration-style:solid;text-decoration-color:#000000;letter-spacing:normal;word-spacing:normal;text-transform:none;writing-mode:lr-tb;direction:ltr;text-orientation:mixed;dominant-baseline:auto;baseline-shift:baseline;text-anchor:start;white-space:normal;shape-padding:0;clip-rule:nonzero;display:inline;overflow:visible;visibility:visible;isolation:auto;mix-blend-mode:normal;color-interpolation:sRGB;color-interpolation-filters:linearRGB;solid-color:#000000;solid-opacity:1;vector-effect:none;fill:#ffcd40;fill-opacity:1;fill-rule:nonzero;stroke:none;stroke-width:0.43419662;stroke-linecap:round;stroke-linejoin:round;stroke-miterlimit:4;stroke-dasharray:none;stroke-dashoffset:0;stroke-opacity:1;color-rendering:auto;image-rendering:auto;shape-rendering:auto;text-rendering:auto;enable-background:accumulate"
         d="m -36.852443,294.12659 c -0.420386,0 -0.765625,0.34719 -0.765625,0.76758 0,0.42039 0.345239,0.76563 0.765625,0.76563 h 2.099609 c 0.420385,0 0.767579,-0.34524 0.767579,-0.76563 0,-0.42039 -0.347194,-0.76758 -0.767579,-0.76758 z"
         id="path2222" />
      <path
         inkscape:connector-curvature="0"
         id="path2291"
         style="color:#000000;font-style:normal;font-variant:normal;font-weight:normal;font-stretch:normal;font-size:medium;line-height:normal;font-family:sans-serif;font-variant-ligatures:normal;font-variant-position:normal;font-variant-caps:normal;font-variant-numeric:normal;font-variant-alternates:normal;font-feature-settings:normal;text-indent:0;text-align:start;text-decoration:none;text-decoration-line:none;text-decoration-style:solid;text-decoration-color:#000000;letter-spacing:normal;word-spacing:normal;text-transform:none;writing-mode:lr-tb;direction:ltr;text-orientation:mixed;dominant-baseline:auto;baseline-shift:baseline;text-anchor:start;white-space:normal;shape-padding:0;clip-rule:nonzero;display:inline;overflow:visible;visibility:visible;isolation:auto;mix-blend-mode:normal;color-interpolation:sRGB;color-interpolation-filters:linearRGB;solid-color:#000000;solid-opacity:1;vector-effect:none;fill:#f8a92d;fill-opacity:1;fill-rule:nonzero;stroke:none;stroke-width:0.43419662;stroke-linecap:round;stroke-linejoin:round;stroke-miterlimit:4;stroke-dasharray:none;stroke-dashoffset:0;stroke-opacity:1;color-rendering:auto;image-rendering:auto;shape-rendering:auto;text-rendering:auto;enable-background:accumulate"
         d="m -36.85255,294.12643 c -0.348553,0 -0.642002,0.24002 -0.733288,0.56121 0.06554,-0.0186 0.132971,-0.032 0.204122,-0.032 h 2.099612 c 0.420385,0 0.767911,0.34752 0.767911,0.76791 0,0.0711 -0.01347,0.13858 -0.03204,0.20412 0.321092,-0.0913 0.561206,-0.38479 0.561206,-0.73329 0,-0.42039 -0.347527,-0.76791 -0.767912,-0.76791 z" />
      <path
         inkscape:connector-curvature="0"
         style="color:#000000;font-style:normal;font-variant:normal;font-weight:normal;font-stretch:normal;font-size:medium;line-height:normal;font-family:sans-serif;font-variant-ligatures:normal;font-variant-position:normal;font-variant-caps:normal;font-variant-numeric:normal;font-variant-alternates:normal;font-feature-settings:normal;text-indent:0;text-align:start;text-decoration:none;text-decoration-line:none;text-decoration-style:solid;text-decoration-color:#000000;letter-spacing:normal;word-spacing:normal;text-transform:none;writing-mode:lr-tb;direction:ltr;text-orientation:mixed;dominant-baseline:auto;baseline-shift:baseline;text-anchor:start;white-space:normal;shape-padding:0;clip-rule:nonzero;display:inline;overflow:visible;visibility:visible;isolation:auto;mix-blend-mode:normal;color-interpolation:sRGB;color-interpolation-filters:linearRGB;solid-color:#000000;solid-opacity:1;vector-effect:none;fill:#7cb342;fill-opacity:1;fill-rule:nonzero;stroke:none;stroke-width:0.43419662;stroke-linecap:round;stroke-linejoin:round;stroke-miterlimit:4;stroke-dasharray:none;stroke-dashoffset:0;stroke-opacity:1;color-rendering:auto;image-rendering:auto;shape-rendering:auto;text-rendering:auto;enable-background:accumulate"
         d="m -36.694519,290.32955 a 0.2572563,0.2572563 0 0 0 -0.174694,0.0721 c -0.298058,0.28546 -0.489142,0.72031 -0.681686,1.05575 -0.171022,0.29796 -0.373903,0.64461 -0.4937,1.01589 -0.119798,0.37128 -0.153746,0.79401 0.06646,1.17159 0.40868,0.70076 1.19004,0.88043 1.898847,0.87536 0.70836,0.006 1.485227,-0.17613 1.893149,-0.87536 0.220232,-0.3775 0.188158,-0.80033 0.06836,-1.17159 -0.120007,-0.37125 -0.322889,-0.71604 -0.493909,-1.01398 -0.172,-0.29965 -0.308308,-0.74876 -0.600036,-1.05006 a 0.2572563,0.2572563 0 0 0 -0.180464,-0.0779 c -0.658265,-0.01 -0.670549,-0.01 -1.302609,-0.002 z"
         id="path2192" />
      <path
         inkscape:connector-curvature="0"
         style="color:#000000;font-style:normal;font-variant:normal;font-weight:normal;font-stretch:normal;font-size:medium;line-height:normal;font-family:sans-serif;font-variant-ligatures:normal;font-variant-position:normal;font-variant-caps:normal;font-variant-numeric:normal;font-variant-alternates:normal;font-feature-settings:normal;text-indent:0;text-align:start;text-decoration:none;text-decoration-line:none;text-decoration-style:solid;text-decoration-color:#000000;letter-spacing:normal;word-spacing:normal;text-transform:none;writing-mode:lr-tb;direction:ltr;text-orientation:mixed;dominant-baseline:auto;baseline-shift:baseline;text-anchor:start;white-space:normal;shape-padding:0;clip-rule:nonzero;display:inline;overflow:visible;visibility:visible;isolation:auto;mix-blend-mode:normal;color-interpolation:sRGB;color-interpolation-filters:linearRGB;solid-color:#000000;solid-opacity:1;vector-effect:none;fill:#7cb342;fill-opacity:1;fill-rule:nonzero;stroke:none;stroke-width:0.43419662;stroke-linecap:round;stroke-linejoin:round;stroke-miterlimit:4;stroke-dasharray:none;stroke-dashoffset:0;stroke-opacity:1;color-rendering:auto;image-rendering:auto;shape-rendering:auto;text-rendering:auto;enable-background:accumulate"
         d="m -37.368068,288.81995 a 0.26460996,0.26460996 0 0 0 -0.240235,0.375 l 0.701172,1.51367 a 0.26460996,0.26460996 0 0 0 0.236328,0.1543 l 1.353516,0.01 a 0.26460996,0.26460996 0 0 0 0.240234,-0.15039 l 0.730469,-1.52344 a 0.26460996,0.26460996 0 0 0 -0.240234,-0.37891 z"
         id="path2172" />
      <path
         inkscape:connector-curvature="0"
         id="path2286"
         style="color:#000000;font-style:normal;font-variant:normal;font-weight:normal;font-stretch:normal;font-size:medium;line-height:normal;font-family:sans-serif;font-variant-ligatures:normal;font-variant-position:normal;font-variant-caps:normal;font-variant-numeric:normal;font-variant-alternates:normal;font-feature-settings:normal;text-indent:0;text-align:start;text-decoration:none;text-decoration-line:none;text-decoration-style:solid;text-decoration-color:#000000;letter-spacing:normal;word-spacing:normal;text-transform:none;writing-mode:lr-tb;direction:ltr;text-orientation:mixed;dominant-baseline:auto;baseline-shift:baseline;text-anchor:start;white-space:normal;shape-padding:0;clip-rule:nonzero;display:inline;overflow:visible;visibility:visible;isolation:auto;mix-blend-mode:normal;color-interpolation:sRGB;color-interpolation-filters:linearRGB;solid-color:#000000;solid-opacity:1;vector-effect:none;fill:#699938;fill-opacity:1;fill-rule:nonzero;stroke:none;stroke-width:0.43419662;stroke-linecap:round;stroke-linejoin:round;stroke-miterlimit:4;stroke-dasharray:none;stroke-dashoffset:0;stroke-opacity:1;color-rendering:auto;image-rendering:auto;shape-rendering:auto;text-rendering:auto;enable-background:accumulate"
         d="m -37.36828,288.81978 a 0.26460995,0.26460995 0 0 0 -0.239779,0.37517 l 0.07131,0.15399 2.420522,5.3e-4 a 0.26460995,0.26460995 0 0 1 0.240295,0.37879 l -0.548287,1.1436 0.106972,10e-4 a 0.26460995,0.26460995 0 0 0 0.240294,-0.15038 l 0.730188,-1.52342 a 0.26460995,0.26460995 0 0 0 -0.240295,-0.37879 z" />
      <path
         inkscape:connector-curvature="0"
         style="color:#000000;font-style:normal;font-variant:normal;font-weight:normal;font-stretch:normal;font-size:medium;line-height:normal;font-family:sans-serif;font-variant-ligatures:normal;font-variant-position:normal;font-variant-caps:normal;font-variant-numeric:normal;font-variant-alternates:normal;font-feature-settings:normal;text-indent:0;text-align:start;text-decoration:none;text-decoration-line:none;text-decoration-style:solid;text-decoration-color:#000000;letter-spacing:normal;word-spacing:normal;text-transform:none;writing-mode:lr-tb;direction:ltr;text-orientation:mixed;dominant-baseline:auto;baseline-shift:baseline;text-anchor:start;white-space:normal;shape-padding:0;clip-rule:nonzero;display:inline;overflow:visible;visibility:visible;isolation:auto;mix-blend-mode:normal;color-interpolation:sRGB;color-interpolation-filters:linearRGB;solid-color:#000000;solid-opacity:1;vector-effect:none;fill:#ffcd40;fill-opacity:1;fill-rule:nonzero;stroke:none;stroke-width:0.43419662;stroke-linecap:round;stroke-linejoin:round;stroke-miterlimit:4;stroke-dasharray:none;stroke-dashoffset:0;stroke-opacity:1;color-rendering:auto;image-rendering:auto;shape-rendering:auto;text-rendering:auto;enable-background:accumulate"
         d="m -39.166896,292.64612 c -1.145031,0 -2.080078,0.93391 -2.080078,2.07813 0,1.14422 0.935047,2.07617 2.080078,2.07617 1.14503,0 2.078125,-0.93195 2.078125,-2.07617 0,-1.14422 -0.933095,-2.07813 -2.078125,-2.07813 z"
         id="path2245" />
      <path
         inkscape:connector-curvature="0"
         id="path2298"
         style="color:#000000;font-style:normal;font-variant:normal;font-weight:normal;font-stretch:normal;font-size:medium;line-height:normal;font-family:sans-serif;font-variant-ligatures:normal;font-variant-position:normal;font-variant-caps:normal;font-variant-numeric:normal;font-variant-alternates:normal;font-feature-settings:normal;text-indent:0;text-align:start;text-decoration:none;text-decoration-line:none;text-decoration-style:solid;text-decoration-color:#000000;letter-spacing:normal;word-spacing:normal;text-transform:none;writing-mode:lr-tb;direction:ltr;text-orientation:mixed;dominant-baseline:auto;baseline-shift:baseline;text-anchor:start;white-space:normal;shape-padding:0;clip-rule:nonzero;display:inline;overflow:visible;visibility:visible;isolation:auto;mix-blend-mode:normal;color-interpolation:sRGB;color-interpolation-filters:linearRGB;solid-color:#000000;solid-opacity:1;vector-effect:none;fill:#f8a92d;fill-opacity:1;fill-rule:nonzero;stroke:none;stroke-width:0.43419662;stroke-linecap:round;stroke-linejoin:round;stroke-miterlimit:4;stroke-dasharray:none;stroke-dashoffset:0;stroke-opacity:1;color-rendering:auto;image-rendering:auto;shape-rendering:auto;text-rendering:auto;enable-background:accumulate"
         d="m -39.167137,292.64592 c -0.707717,0 -1.333891,0.35752 -1.709973,0.90021 0.336063,-0.23302 0.742585,-0.37104 1.180806,-0.37104 1.145031,0 2.078427,0.93421 2.078427,2.07843 0,0.43689 -0.136524,0.84225 -0.368453,1.17719 0.541589,-0.37525 0.897618,-0.99996 0.897618,-1.70636 0,-1.14422 -0.933394,-2.07843 -2.078425,-2.07843 z" />
      <path
         sodipodi:nodetypes="ccccccccccccccccccccccccccccccccccccccccccccccccccccccccssscssscsccccccccccccccccccccccccccsccccccccccccccssssssssssssss"
         inkscape:connector-curvature="0"
         id="path1432"
         d="m -41.085864,285.52731 c -0.894858,0.64646 -1.478016,1.56788 -1.489832,2.60088 -5.29e-4,0.009 -5.29e-4,0.0183 0,0.0274 -3e-6,3.5e-4 5e-6,6.9e-4 0,10e-4 -0.02058,0.36752 0.539501,0.37465 0.528651,0.007 0.0024,-0.21459 0.12206,-0.41981 0.351401,-0.58549 0.229338,-0.16567 0.563406,-0.27745 0.936892,-0.27595 0.373486,0.001 0.706424,0.11554 0.932759,0.28267 0.226335,0.16714 0.340792,0.37091 0.340032,0.58549 0,0.30947 0.528146,0.33163 0.528146,0.002 h 5.29e-4 c 5e-6,-10e-4 -5.29e-4,-0.003 -5.29e-4,-0.004 0,-0.27162 0.178194,-0.46116 0.351927,-0.59015 0.171892,-0.12417 0.402466,-0.2181 0.664559,-0.25683 v 1.09193 c -0.01648,0.36845 0.545645,0.36845 0.529167,0 v -1.09141 c 0.267581,0.0392 0.503161,0.13546 0.675928,0.26303 0.226336,0.16714 0.340789,0.37092 0.34003,0.5855 -0.02064,0.37117 0.547095,0.37285 0.52865,0.002 v -10e-4 c 3.2e-5,-0.002 3.2e-5,-0.005 0,-0.007 0.0024,-0.21459 0.122061,-0.41981 0.351399,-0.58549 0.229338,-0.16567 0.563409,-0.27745 0.936895,-0.27595 0.373486,0.001 0.706424,0.11554 0.932759,0.28267 0.226335,0.16714 0.340789,0.37091 0.340032,0.58549 -1.8e-5,0.008 2.65e-4,0.0162 0.0011,0.0243 0.02909,0.31262 0.481494,0.32459 0.5271,0.014 0.0013,-0.008 0.0021,-0.0162 0.0027,-0.0243 3e-6,-6.9e-4 3e-6,-10e-4 0,-0.002 2.39e-4,-0.003 5.3e-4,-0.007 5.3e-4,-0.01 2e-6,-6.9e-4 0,-10e-4 0,-0.002 0.0037,-1.03304 -0.567505,-1.96033 -1.453142,-2.61432 -0.885635,-0.65399 -2.091259,-1.05144 -3.421039,-1.05737 -1.329783,-0.006 -2.541685,0.38247 -3.436548,1.02894 z m 3.434365,-0.49971 c 1.225079,0.004 2.327061,0.37625 3.109373,0.95395 0.394018,0.29095 0.704678,0.63076 0.916223,1.00355 -0.278678,-0.13443 -0.603478,-0.21099 -0.951365,-0.21239 -0.478126,-0.002 -0.915733,0.13477 -1.248503,0.37517 -0.116461,0.0841 -0.219913,0.18324 -0.30644,0.29353 -0.08266,-0.10525 -0.179996,-0.20113 -0.290422,-0.28267 -0.329655,-0.24343 -0.766239,-0.38411 -1.244368,-0.38603 -0.478128,-0.002 -0.9178,0.13477 -1.250569,0.37517 -0.116041,0.0838 -0.218897,0.18269 -0.304892,0.29249 -0.08252,-0.10489 -0.17979,-0.20032 -0.289904,-0.28163 -0.329658,-0.24343 -0.766241,-0.38411 -1.24437,-0.38603 -0.352269,-0.001 -0.68313,0.0737 -0.966348,0.20878 0.217993,-0.38178 0.538657,-0.72944 0.946713,-1.02423 0.79143,-0.57174 1.899796,-0.93459 3.124872,-0.92966 z m 0.256834,3.79357 c -0.181139,0.0186 -0.289915,0.20975 -0.212908,0.37465 l 0.632003,1.36684 c -0.228333,0.28158 -0.394335,0.63906 -0.559655,0.92708 -0.175911,0.30646 -0.383736,0.662 -0.506947,1.04386 -0.04083,0.12653 -0.0706,0.25958 -0.08578,0.39429 -0.306581,-0.1783 -0.660956,-0.28215 -1.03973,-0.28215 -1.145162,0 -2.080493,0.93486 -2.080493,2.07894 0,1.14409 0.935331,2.07688 2.080493,2.07688 0.627144,0 1.189929,-0.28092 1.571998,-0.72192 0.08102,0.33597 0.383754,0.59014 0.743106,0.59014 h 2.099614 c 0.420606,0 0.768429,-0.34704 0.768429,-0.76739 0,-0.19308 -0.07581,-0.3687 -0.195855,-0.50436 0.120042,-0.13567 0.195855,-0.31128 0.195855,-0.50437 0,-0.33739 -0.225382,-0.62462 -0.531233,-0.72605 0.111197,-0.0902 0.216332,-0.19196 0.307473,-0.31368 0.226695,-0.30459 0.367294,-0.78795 0.206189,-1.3193 -0.123211,-0.38186 -0.333102,-0.73532 -0.509013,-1.04179 -0.149955,-0.26125 -0.27468,-0.63138 -0.491442,-0.92708 l 0.655775,-1.36736 c 0.08261,-0.17534 -0.04534,-0.37702 -0.239263,-0.37723 h -2.782261 c -0.0088,-4.5e-4 -0.01757,-4.5e-4 -0.02635,0 z m 0.440798,0.52865 h 1.946651 l -0.470254,0.98081 c -0.409975,-0.006 -0.625721,-0.006 -1.023194,-0.002 z m 0.439251,1.50843 c 0.420973,-0.004 0.61618,-0.004 1.048515,0.002 0.320479,0.62798 0.744371,1.18991 0.959114,1.83555 0.09757,0.30239 0.10777,0.5506 -0.0217,0.77411 -0.369773,0.53953 -0.98774,0.63986 -1.526185,0.64183 -0.538446,0.002 -1.03555,-0.10601 -1.346504,-0.47801 -0.03665,-0.059 -0.07563,-0.11618 -0.117822,-0.17105 -0.125251,-0.22169 -0.117218,-0.46767 -0.02066,-0.76688 0.09784,-0.30323 0.288629,-0.63477 0.465603,-0.94309 0.198453,-0.29203 0.362159,-0.58994 0.559639,-0.89452 z m -2.65307,2.31821 c 0.880401,0 1.540106,0.64601 1.549265,1.54822 0,0.85806 -0.690022,1.54616 -1.549259,1.54616 -0.859237,0 -1.549257,-0.6881 -1.549257,-1.54616 0,-0.88901 0.892061,-1.54822 1.549251,-1.54822 z m 0.0217,0.64027 c -0.06889,0.002 -0.134151,0.0315 -0.181901,0.0811 l -0.617018,0.6165 c -0.260432,0.2485 0.122856,0.63391 0.373104,0.37517 l 0.619083,-0.6165 c 0.177657,-0.16825 0.05127,-0.46665 -0.193268,-0.4563 z m 0.619083,0.61856 c -0.06878,0.002 -0.134202,0.03 -0.182417,0.0791 l -0.618567,0.61805 c -0.250269,0.24996 0.1249,0.62513 0.375169,0.37517 l 0.6165,-0.61857 c 0.171794,-0.16766 0.04938,-0.45893 -0.190685,-0.45372 z m 1.674315,0.2217 h 2.099614 c 0.136515,0 0.239263,0.10019 0.239263,0.23667 0,0.13642 -0.102751,0.23927 -0.239263,0.23927 h -2.099614 c -0.136512,0 -0.237194,-0.10286 -0.237194,-0.23927 0,-0.13644 0.100688,-0.23667 0.237194,-0.23667 z m 0,1.00872 h 2.099614 c 0.136515,0 0.239263,0.10023 0.239263,0.23668 0,0.13643 -0.102751,0.23926 -0.239263,0.23926 h -2.099614 c -0.136512,0 -0.237194,-0.10284 -0.237194,-0.23926 0,-0.13642 0.100688,-0.23668 0.237194,-0.23668 z"
         style="color:#000000;font-style:normal;font-variant:normal;font-weight:normal;font-stretch:normal;font-size:medium;line-height:normal;font-family:sans-serif;font-variant-ligatures:normal;font-variant-position:normal;font-variant-caps:normal;font-variant-numeric:normal;font-variant-alternates:normal;font-feature-settings:normal;text-indent:0;text-align:start;text-decoration:none;text-decoration-line:none;text-decoration-style:solid;text-decoration-color:#000000;letter-spacing:normal;word-spacing:normal;text-transform:none;writing-mode:lr-tb;direction:ltr;text-orientation:mixed;dominant-baseline:auto;baseline-shift:baseline;text-anchor:start;white-space:normal;shape-padding:0;clip-rule:nonzero;display:inline;overflow:visible;visibility:visible;isolation:auto;mix-blend-mode:normal;color-interpolation:sRGB;color-interpolation-filters:linearRGB;solid-color:#000000;solid-opacity:1;vector-effect:none;fill:#000000;fill-opacity:1;fill-rule:nonzero;stroke:none;stroke-width:0.43419662;stroke-linecap:round;stroke-linejoin:round;stroke-miterlimit:4;stroke-dasharray:none;stroke-dashoffset:0;stroke-opacity:1;color-rendering:auto;image-rendering:auto;shape-rendering:auto;text-rendering:auto;enable-background:accumulate" />
    </g>
  </g>
</svg>
