<?xml version="1.0" encoding="UTF-8" standalone="no"?>
<!-- Created with Inkscape (http://www.inkscape.org/) -->

<svg
   xmlns:dc="http://purl.org/dc/elements/1.1/"
   xmlns:cc="http://creativecommons.org/ns#"
   xmlns:rdf="http://www.w3.org/1999/02/22-rdf-syntax-ns#"
   xmlns:svg="http://www.w3.org/2000/svg"
   xmlns="http://www.w3.org/2000/svg"
   xmlns:sodipodi="http://sodipodi.sourceforge.net/DTD/sodipodi-0.dtd"
   xmlns:inkscape="http://www.inkscape.org/namespaces/inkscape"
   width="512mm"
   height="512mm"
   viewBox="0 0 512 512"
   version="1.1"
   id="svg573"
   inkscape:version="0.92.3 (2405546, 2018-03-11)"
   sodipodi:docname="water.svg">
  <defs
     id="defs567" />
  <sodipodi:namedview
     id="base"
     pagecolor="#ffffff"
     bordercolor="#666666"
     borderopacity="1.0"
     inkscape:pageopacity="0.0"
     inkscape:pageshadow="2"
     inkscape:zoom="0.35"
     inkscape:cx="400"
     inkscape:cy="902.85714"
     inkscape:document-units="mm"
     inkscape:current-layer="layer1"
     showgrid="false"
     inkscape:window-width="1853"
     inkscape:window-height="1025"
     inkscape:window-x="67"
     inkscape:window-y="27"
     inkscape:window-maximized="1" />
  <metadata
     id="metadata570">
    <rdf:RDF>
      <cc:Work
         rdf:about="">
        <dc:format>image/svg+xml</dc:format>
        <dc:type
           rdf:resource="http://purl.org/dc/dcmitype/StillImage" />
        <dc:title></dc:title>
      </cc:Work>
    </rdf:RDF>
  </metadata>
  <g
     inkscape:label="Capa 1"
     inkscape:groupmode="layer"
     id="layer1"
     transform="translate(0,215)">
    <g
       transform="matrix(2.4129704,0,0,-2.4129704,-1151.3507,1397.2525)"
       id="g852">
      <path
         d="m 641.972,613.113 h -16.019 v -40 h 16.163 c -0.103,0.907 -0.163,1.826 -0.163,2.759 v 36.506 c 0,0.247 0.012,0.49 0.019,0.735"
         style="fill:#fcfbc0;fill-opacity:1;fill-rule:nonzero;stroke:none;stroke-width:0.1"
         id="path98"
         inkscape:connector-curvature="0" />
      <path
         d="m 508.751,547 h 37.112 c 1.903,6.685 7.033,21.269 16.34,25.143 v 39.884 C 544.536,608.652 530.398,597.369 520.076,578.348 513.378,566.003 510.117,553.489 508.751,547"
         style="fill:#fcfbc0;fill-opacity:1;fill-rule:nonzero;stroke:none;stroke-width:0.1"
         id="path100"
         inkscape:connector-curvature="0" />
      <path
         d="m 603.953,613.113 c -2.209,0 -4,1.791 -4,4 V 640 h -13 v -22.887 c 0,-2.209 -1.791,-4 -4,-4 h -9 c -1.265,0 -2.514,-0.041 -3.75,-0.11 v -39.89 h 47.75 v 40 h -14"
         style="fill:#74b2ca;fill-opacity:1;fill-rule:nonzero;stroke:none;stroke-width:0.1"
         id="path102"
         inkscape:connector-curvature="0" />
      <path
         d="m 649.953,612.378 v -36.506 c 0,-7.441 5.107,-13.713 12,-15.494 v 67.494 c -6.893,-1.781 -12,-8.053 -12,-15.494"
         style="fill:#bfbebf;fill-opacity:1;fill-rule:nonzero;stroke:none;stroke-width:0.1"
         id="path104"
         inkscape:connector-curvature="0" />
      <path
         d="m 665.953,636.378 c -10.152,0 -18.846,-6.339 -22.347,-15.265 H 607.953 V 640 h 7 c 6.066,0 11,4.935 11,11 0,6.065 -4.934,11 -11,11 h -44 c -6.065,0 -11,-4.935 -11,-11 0,-6.065 4.935,-11 11,-11 h 8 v -18.887 h -5 c -26.094,0 -47.194,-13.54 -61.02,-39.157 -10.229,-18.952 -12.838,-37.635 -12.944,-38.421 -0.155,-1.144 0.193,-2.299 0.952,-3.168 0.76,-0.869 1.858,-1.367 3.012,-1.367 h 45 c 1.865,0 3.482,1.287 3.899,3.105 2.132,9.279 8.087,23.008 14.101,23.008 h 77.557 c 3.952,-7.843 12.077,-13.241 21.443,-13.241 2.209,0 4,1.791 4,4 v 76.506 c 0,2.209 -1.791,4 -4,4 z m -4,-76 c -6.893,1.781 -12,8.053 -12,15.494 v 36.506 c 0,7.441 5.107,13.713 12,15.494 z m -94,90.622 c 0,1.654 1.346,3 3,3 h 44 c 1.654,0 3,-1.346 3,-3 0,-1.654 -1.346,-3 -3,-3 h -10.771 -22 -11.229 c -1.654,0 -3,1.346 -3,3 z m 74.163,-77.887 h -16.163 v 40 h 16.019 c -0.007,-0.245 -0.019,-0.488 -0.019,-0.735 v -36.506 c 0,-0.933 0.06,-1.852 0.163,-2.759 z m -79.913,38.914 V 572.143 C 552.896,568.269 547.766,553.685 545.863,547 h -37.112 c 1.366,6.489 4.627,19.003 11.325,31.348 10.322,19.021 24.46,30.304 42.127,33.679 z m 8,-38.914 v 39.89 c 1.236,0.069 2.485,0.11 3.75,0.11 h 9 c 2.209,0 4,1.791 4,4 V 640 h 13 v -22.887 c 0,-2.209 1.791,-4 4,-4 h 14 v -40 h -47.75"
         style="fill:#5d495f;fill-opacity:1;fill-rule:nonzero;stroke:none;stroke-width:0.1"
         id="path106"
         inkscape:connector-curvature="0" />
      <path
         d="m 525.488,516.115 c -6.599,-11.064 -14.465,-26.073 -14.465,-31.649 0,-7.977 6.489,-14.466 14.465,-14.466 7.976,0 14.465,6.489 14.465,14.466 0,5.576 -7.867,20.585 -14.465,31.649"
         style="fill:#74b2ca;fill-opacity:1;fill-rule:nonzero;stroke:none;stroke-width:0.1"
         id="path108"
         inkscape:connector-curvature="0" />
      <path
         d="m 525.488,527.758 c -1.369,0 -2.643,-0.7 -3.377,-1.856 -1.954,-3.079 -19.088,-30.394 -19.088,-41.436 0,-12.388 10.078,-22.466 22.465,-22.466 12.387,0 22.465,10.078 22.465,22.466 0,11.042 -17.134,38.357 -19.088,41.436 -0.733,1.156 -2.008,1.856 -3.377,1.856 z m 0,-57.758 c -7.976,0 -14.465,6.489 -14.465,14.466 0,5.576 7.866,20.585 14.465,31.649 6.598,-11.064 14.465,-26.073 14.465,-31.649 0,-7.977 -6.489,-14.466 -14.465,-14.466"
         style="fill:#5d495f;fill-opacity:1;fill-rule:nonzero;stroke:none;stroke-width:0.1"
         id="path110"
         inkscape:connector-curvature="0" />
      <path
         d="m 582.182,648 h 32.771 c 1.654,0 3,1.346 3,3 0,1.654 -1.346,3 -3,3 h -44 c -1.654,0 -3,-1.346 -3,-3 0,-1.654 1.346,-3 3,-3 h 11.229"
         style="fill:#bfbebf;fill-opacity:1;fill-rule:nonzero;stroke:none;stroke-width:0.1"
         id="path112"
         inkscape:connector-curvature="0" />
    </g>
  </g>
</svg>
