<svg fill="none" height="132" viewBox="0 0 130 132" width="130" xmlns="http://www.w3.org/2000/svg" xmlns:xlink="http://www.w3.org/1999/xlink"><filter id="a" color-interpolation-filters="sRGB" filterUnits="userSpaceOnUse" height="144" width="144" x="-6" y="-4"><feFlood flood-opacity="0" result="BackgroundImageFix"/><feColorMatrix in="SourceAlpha" type="matrix" values="0 0 0 0 0 0 0 0 0 0 0 0 0 0 0 0 0 0 127 0"/><feOffset dx="2" dy="4"/><feGaussianBlur stdDeviation="4"/><feColorMatrix type="matrix" values="0 0 0 0 0 0 0 0 0 0 0 0 0 0 0 0 0 0 0.2 0"/><feBlend in2="BackgroundImageFix" mode="normal" result="effect1_dropShadow"/><feColorMatrix in="SourceAlpha" type="matrix" values="0 0 0 0 0 0 0 0 0 0 0 0 0 0 0 0 0 0 127 0"/><feOffset dy="2"/><feGaussianBlur stdDeviation="2"/><feColorMatrix type="matrix" values="0 0 0 0 0 0 0 0 0 0 0 0 0 0 0 0 0 0 0.2 0"/><feBlend in2="effect1_dropShadow" mode="normal" result="effect2_dropShadow"/><feBlend in="SourceGraphic" in2="effect2_dropShadow" mode="normal" result="shape"/></filter><filter id="b" color-interpolation-filters="sRGB" filterUnits="userSpaceOnUse" height="84" width="116" x="6" y="31"><feFlood flood-opacity="0" result="BackgroundImageFix"/><feColorMatrix in="SourceAlpha" type="matrix" values="0 0 0 0 0 0 0 0 0 0 0 0 0 0 0 0 0 0 127 0"/><feOffset dy="1"/><feGaussianBlur stdDeviation=".5"/><feColorMatrix type="matrix" values="0 0 0 0 0 0 0 0 0 0 0 0 0 0 0 0 0 0 0.2 0"/><feBlend in2="BackgroundImageFix" mode="normal" result="effect1_dropShadow"/><feColorMatrix in="SourceAlpha" type="matrix" values="0 0 0 0 0 0 0 0 0 0 0 0 0 0 0 0 0 0 127 0"/><feOffset dy="1"/><feGaussianBlur stdDeviation="1"/><feColorMatrix type="matrix" values="0 0 0 0 0 0 0 0 0 0 0 0 0 0 0 0 0 0 0.1 0"/><feBlend in2="effect1_dropShadow" mode="normal" result="effect2_dropShadow"/><feBlend in="SourceGraphic" in2="effect2_dropShadow" mode="normal" result="shape"/></filter><filter id="c" color-interpolation-filters="sRGB" filterUnits="userSpaceOnUse" height="76" width="108" x="10" y="35"><feFlood flood-opacity="0" result="BackgroundImageFix"/><feColorMatrix in="SourceAlpha" type="matrix" values="0 0 0 0 0 0 0 0 0 0 0 0 0 0 0 0 0 0 127 0"/><feOffset dy="1"/><feGaussianBlur stdDeviation=".5"/><feColorMatrix type="matrix" values="0 0 0 0 0 0 0 0 0 0 0 0 0 0 0 0 0 0 0.2 0"/><feBlend in2="BackgroundImageFix" mode="normal" result="effect1_dropShadow"/><feColorMatrix in="SourceAlpha" type="matrix" values="0 0 0 0 0 0 0 0 0 0 0 0 0 0 0 0 0 0 127 0"/><feOffset dy="1"/><feGaussianBlur stdDeviation="1"/><feColorMatrix type="matrix" values="0 0 0 0 0 0 0 0 0 0 0 0 0 0 0 0 0 0 0.1 0"/><feBlend in2="effect1_dropShadow" mode="normal" result="effect2_dropShadow"/><feBlend in="SourceGraphic" in2="effect2_dropShadow" mode="normal" result="shape"/></filter><linearGradient id="d" gradientUnits="userSpaceOnUse" x1="64" x2="64" y1="62" y2="120"><stop offset="0" stop-color="#494848"/><stop offset="1" stop-color="#393939"/></linearGradient><linearGradient id="e" gradientUnits="userSpaceOnUse" x1="64" x2="64" y1="32" y2="112"><stop offset="0" stop-color="#646464"/><stop offset="1" stop-color="#4d4d4d"/></linearGradient><linearGradient id="f" gradientUnits="userSpaceOnUse" x1="12" x2="112.648" y1="36" y2="112.415"><stop offset="0" stop-color="#00daf2"/><stop offset="1" stop-color="#0095e8"/></linearGradient><linearGradient id="g" gradientUnits="userSpaceOnUse" x1="16" x2="115.522" y1="36" y2="108.655"><stop offset=".482007" stop-color="#0087e8"/><stop offset="1" stop-color="#00a9f2"/></linearGradient><g filter="url(#a)"><path d="m36 112h56v4c0 2.209-1.7909 4-4 4h-48c-2.2091 0-4-1.791-4-4z" fill="url(#d)"/><g filter="url(#b)"><path d="m8 40c0-4.4183 3.5817-8 8-8h96c4.418 0 8 3.5817 8 8v64c0 4.418-3.582 8-8 8h-96c-4.4183 0-8-3.582-8-8z" fill="url(#e)"/></g><g filter="url(#c)"><path d="m12 40c0-2.2091 1.7909-4 4-4h96c2.209 0 4 1.7909 4 4v64c0 2.209-1.791 4-4 4h-96c-2.2091 0-4-1.791-4-4z" fill="url(#f)"/></g><path d="m116 40c0-2.2091-1.791-4-4-4l-96 72h96c2.209 0 4-1.791 4-4z" fill="url(#g)"/></g></svg>