<?xml version="1.0" ?><!DOCTYPE svg  PUBLIC '-//W3C//DTD SVG 1.1//EN'  'http://www.w3.org/Graphics/SVG/1.1/DTD/svg11.dtd'><svg enable-background="new 0 0 128 128" id="Слой_1" version="1.1" viewBox="0 0 128 128" xml:space="preserve" xmlns="http://www.w3.org/2000/svg" xmlns:xlink="http://www.w3.org/1999/xlink"><g><path d="M84,124H44c-5.5,0-10-4.5-10-10V14c0-5.5,4.5-10,10-10h40c5.5,0,10,4.5,10,10v100C94,119.5,89.5,124,84,124   z" fill="#ADA2B5"/></g><g><path d="M84,4H44c-5.5,0-10,4.5-10,10h60C94,8.5,89.5,4,84,4z" fill="#D3CFD5"/></g><g><path d="M34,109v5c0,5.5,4.5,10,10,10h40c5.5,0,10-4.5,10-10v-5H34z" fill="#D3CFD5"/></g><g><path d="M64,112.5c-2.2,0-4,1.8-4,4s1.8,4,4,4s4-1.8,4-4S66.2,112.5,64,112.5z" fill="#FFFFFF"/></g><g opacity="0.2"><polygon fill="#FFFFFF" points="94,109 34,14 94,14 94,109  "/></g><g><g><path d="M39,20c0-5.5,4.5-10,10-10l40-3c1.6,0,3.2,3.4,4.6,4.1C92.3,7,88.5,4,84,4H44c-5.5,0-10,4.5-10,10v100    c0,3.9,2.2,7.2,5.4,8.9C39.2,122,36,121,36,120L39,20z" fill="#FFFFFF"/></g></g><g><g><path d="M84,2.5H44c-6.3,0-11.5,5.2-11.5,11.5v100c0,6.3,5.2,11.5,11.5,11.5h40c6.3,0,11.5-5.2,11.5-11.5V14    C95.5,7.7,90.3,2.5,84,2.5z M35.5,15.5h57v92h-57V15.5z M44,5.5h40c4.2,0,7.6,3,8.4,7H35.6C36.4,8.5,39.8,5.5,44,5.5z M84,122.5    H44c-4.7,0-8.5-3.8-8.5-8.5v-3.5h57v3.5C92.5,118.7,88.7,122.5,84,122.5z" fill="#62355C"/></g><g><path d="M59,10.5h10c0.8,0,1.5-0.7,1.5-1.5S69.8,7.5,69,7.5H59c-0.8,0-1.5,0.7-1.5,1.5S58.2,10.5,59,10.5z" fill="#62355C"/></g><g><path d="M64,111.5c-2.8,0-5,2.2-5,5s2.2,5,5,5s5-2.2,5-5S66.8,111.5,64,111.5z M64,118.5c-1.1,0-2-0.9-2-2    s0.9-2,2-2s2,0.9,2,2S65.1,118.5,64,118.5z" fill="#62355C"/></g></g></svg>