<svg viewBox="0 0 384 512" xmlns="http://www.w3.org/2000/svg"><path d="m384 288c0 105.9-86.13 192-192 192h-96c-17.67 0-32-14.33-32-32v-167.9l-23.2 6.7c-2.94.8-5.91 1.2-8.82 1.2-13.92 0-26.73-9.172-30.75-23.22-4.859-17 4.984-34.7 21.97-39.56l40.8-11.62v-29.5l-23.2 6.7c-2.94.8-5.91 1.2-8.82 1.2-13.92 0-26.73-9.172-30.75-23.22-4.859-17 4.984-34.7 21.97-39.56l40.8-11.62v-53.6c0-17.67 14.33-32 32-32s32 14.33 32 32v35.29l119.2-34.06c17.03-4.891 34.7 4.984 39.56 21.97 4.859 17-4.984 34.7-21.97 39.56l-136.79 39.04v29.44l119.2-34.06c17.03-4.906 34.7 4.984 39.56 21.97 4.859 17-4.984 34.7-21.97 39.56l-136.79 39.09v154.2h64c70.58 0 128-57.42 128-128 0-17.67 14.33-32 32-32s32 14.3 32 32z"/></svg>