<svg viewBox="0 0 64 64" xmlns="http://www.w3.org/2000/svg"><rect fill="#70ce90" height="27" rx="2" width="60" x="2" y="19"/><path d="m2 42h60a0 0 0 0 1 0 0v2a2 2 0 0 1 -2 2h-56a2 2 0 0 1 -2-2v-2a0 0 0 0 1 0 0z" fill="#549b6c"/><path d="m6 23h24v10h-24z" fill="#e8eff4"/><path d="m6 27h6v6h-6z" fill="#a1cdfb"/><path d="m12 27h6v6h-6z" fill="#c7e2fc"/><path d="m18 27h6v6h-6z" fill="#a1cdfb"/><path d="m24 27h6v6h-6z" fill="#c7e2fc"/><path d="m6 19v-2a2 2 0 0 1 2-2h48a2 2 0 0 1 2 2v2z" fill="#c7e2fc"/><path d="m34 30h12v16h-12z" fill="#e8eff4"/><circle cx="13" cy="45" fill="#a8b0bc" r="4"/><circle cx="53" cy="45" fill="#a8b0bc" r="4"/><path d="m62 35h-12v-16h10a2 2 0 0 1 2 2z" fill="#e8eff4"/><path d="m34 23h12v4h-12z" fill="#549b6c"/><path d="m60 18h-1v-1a3 3 0 0 0 -3-3h-48a3 3 0 0 0 -3 3v1h-1a3 3 0 0 0 -3 3v23a3 3 0 0 0 3 3h4.42a5 5 0 0 0 9.16 0h30.84a5 5 0 0 0 9.16 0h2.42a3 3 0 0 0 3-3v-23a3 3 0 0 0 -3-3zm1 3v13h-10v-14h9a1 1 0 0 1 1 1zm-54-4a1 1 0 0 1 1-1h48a1 1 0 0 1 1 1v1h-50zm-3 3h45v15a1 1 0 0 0 1 1h11v5h-5a4.88 4.88 0 0 0 -6 0h-3v-11a1 1 0 0 0 -1-1h-12a1 1 0 0 0 -1 1v11h-17a4.88 4.88 0 0 0 -6 0h-7v-20a1 1 0 0 1 1-1zm37 11h4v14h-4zm-2 14h-4v-14h4zm-35 0a1 1 0 0 1 -1-1v-1h5.42a4.94 4.94 0 0 0 -.42 2zm9 3a3 3 0 1 1 3-3 3 3 0 0 1 -3 3zm4.58-5h15.42v2h-15a4.94 4.94 0 0 0 -.42-2zm29.42 2v-2h1.42a4.94 4.94 0 0 0 -.42 2zm6 3a3 3 0 1 1 3-3 3 3 0 0 1 -3 3zm7-3h-2a4.94 4.94 0 0 0 -.42-2h3.42v1a1 1 0 0 1 -1 1z"/><path d="m6 34h24a1 1 0 0 0 1-1v-10a1 1 0 0 0 -1-1h-24a1 1 0 0 0 -1 1v10a1 1 0 0 0 1 1zm1-6h4v4h-4zm16 0v4h-4v-4zm-6 4h-4v-4h4zm8 0v-4h4v4zm4-8v2h-22v-2z"/><path d="m34 28h12a1 1 0 0 0 1-1v-4a1 1 0 0 0 -1-1h-12a1 1 0 0 0 -1 1v4a1 1 0 0 0 1 1zm1-4h10v2h-10z"/></svg>