<svg enable-background="new 0 0 48 48" viewBox="0 0 48 48" xmlns="http://www.w3.org/2000/svg"><g stroke="#45413c" stroke-linecap="round" stroke-linejoin="round" stroke-miterlimit="10"><path d="m39.7 41.7c-3.7 0-3.7-4.3-3.7-8 0-4.6-2-5.9-3.2-5.9-.6 0-1.1-.5-1.1-1.1s.5-1.1 1.1-1.1c2 0 5.3 1.7 5.3 8 0 4.6.4 5.9 1.6 5.9s1.6-1.5 1.6-5.3v-11.7c0-.6.5-1.1 1.1-1.1s1.1.5 1.1 1.1v11.7c0 2.7 0 7.5-3.8 7.5z" fill="#87898c"/><path d="m36.5 5.5.9.5c2.2 1.3 3.7 3.5 4.3 5.9l.8 3c.3 1.1.4 2.2.4 3.4v3.7h-2.7v-4c0-.6-.1-1.1-.2-1.6l-.8-3.5c-.4-1.7-1.4-3.2-2.7-4.2z" fill="#daedf7"/><path d="m34.9 18.8h5.3v2.1h-5.3z" fill="#87898c"/></g><path d="m33.3 22.5h-23.4c-1.8 0-3.2-1.4-3.2-3.2v-14.9c0-1.8 1.4-3.2 3.2-3.2h23.5c1.8 0 3.2 1.4 3.2 3.2v14.9c-.1 1.8-1.5 3.2-3.3 3.2z" fill="#daedf7"/><path d="m33.3 1.2h-23.4c-1.8 0-3.2 1.4-3.2 3.2v3.2c0-1.8 1.4-3.2 3.2-3.2h23.5c1.8 0 3.2 1.4 3.2 3.2v-3.2c-.1-1.8-1.5-3.2-3.3-3.2z" fill="#fff"/><path d="m33.3 22.5h-23.4c-1.8 0-3.2-1.4-3.2-3.2v-14.9c0-1.8 1.4-3.2 3.2-3.2h23.5c1.8 0 3.2 1.4 3.2 3.2v14.9c-.1 1.8-1.5 3.2-3.3 3.2z" fill="none" stroke="#45413c" stroke-linecap="round" stroke-linejoin="round" stroke-miterlimit="10"/><ellipse cx="21.6" cy="45.2" fill="#45413c" opacity=".15" rx="17.6" ry="1.6"/><path d="m32.3 19.3h-21.4c-.6 0-1.1-.5-1.1-1.1v-9h23.5v9.1c0 .6-.4 1-1 1z" fill="#ff6242" stroke="#45413c" stroke-linecap="round" stroke-linejoin="round" stroke-miterlimit="10"/><path d="m32.3 41.7h-21.4l-.5-19.2h22.4z" fill="#ff6242"/><path d="m32.7 25.2.1-2.7h-22.4l.1 2.7z" fill="#e04122"/><path d="m32.3 41.7h-21.4l-.5-19.2h22.4z" fill="none" stroke="#45413c" stroke-linecap="round" stroke-linejoin="round" stroke-miterlimit="10"/><path d="m33.3 9.2h-23.4v-3.7c0-.6.5-1.1 1.1-1.1h21.3c.6 0 1.1.5 1.1 1.1v3.7z" fill="#fff"/><path d="m32.3 4.4h-21.4c-.6 0-1.1.5-1.1 1.1v2.4c0-.6.5-1.1 1.1-1.1h21.3c.6 0 1.1.5 1.1 1.1v-2.4c0-.6-.4-1.1-1-1.1z" fill="#e0e0e0"/><path d="m33.3 9.2h-23.4v-3.7c0-.6.5-1.1 1.1-1.1h21.3c.6 0 1.1.5 1.1 1.1v3.7z" fill="none" stroke="#45413c" stroke-linecap="round" stroke-linejoin="round" stroke-miterlimit="10"/><path d="m33.3 44.4h-23.4v-1.6c0-.6.5-1.1 1.1-1.1h21.3c.6 0 1.1.5 1.1 1.1v1.6z" fill="#87898c" stroke="#45413c" stroke-linecap="round" stroke-linejoin="round" stroke-miterlimit="10"/><path d="m29.6 15.6h-5.9c-.6 0-1.1-.5-1.1-1.1v-1.6c0-.6.5-1.1 1.1-1.1h5.9c.6 0 1.1.5 1.1 1.1v1.6c0 .6-.5 1.1-1.1 1.1z" fill="#9ceb60"/><path d="m22.7 12.9v.8h8v-.8c0-.6-.5-1.1-1.1-1.1h-5.9c-.6.1-1 .5-1 1.1z" fill="#6dd627"/><path d="m29.6 15.6h-5.9c-.6 0-1.1-.5-1.1-1.1v-1.6c0-.6.5-1.1 1.1-1.1h5.9c.6 0 1.1.5 1.1 1.1v1.6c0 .6-.5 1.1-1.1 1.1z" fill="none" stroke="#45413c" stroke-linecap="round" stroke-linejoin="round" stroke-miterlimit="10"/><path d="m42.9 12.9-.6-1.9c-.2-.6-1-.9-1.6-.6l-4.2 2.5v3.7l1.9-1.1c.6-.4 1.4 0 1.6.7.2.6.3 1.3.3 2v3.2c0 .6.5 1.1 1.1 1.1h1.6c.6 0 1.1-.5 1.1-1.1v-2.7c-.1-2-.5-3.8-1.2-5.8z" fill="#ff6242"/><path d="m42.9 12.9-.6-1.9c-.2-.6-1-.9-1.6-.6l-4.2 2.5v2.4l4.2-2.5c.6-.4 1.3-.1 1.6.6l.6 1.9c.7 2 1.1 3.7 1.1 5.9v-2.4c0-2.1-.4-3.9-1.1-5.9z" fill="#ff866e"/><path d="m42.9 12.9-.6-1.9c-.2-.6-1-.9-1.6-.6l-4.2 2.5v3.7l1.9-1.1c.6-.4 1.4 0 1.6.7.2.6.3 1.3.3 2v3.2c0 .6.5 1.1 1.1 1.1h1.6c.6 0 1.1-.5 1.1-1.1v-2.7c-.1-2-.5-3.8-1.2-5.8z" fill="none" stroke="#45413c" stroke-linecap="round" stroke-linejoin="round" stroke-miterlimit="10"/><circle cx="21.6" cy="32.7" fill="#f0f0f0" r="6.4"/><path d="m21.6 28.2c3.2 0 5.9 2.4 6.3 5.5 0-.3.1-.6.1-.9 0-3.5-2.9-6.4-6.4-6.4s-6.4 2.9-6.4 6.4c0 .3 0 .6.1.9.4-3.1 3.1-5.5 6.3-5.5z" fill="#fff"/><g stroke="#45413c" stroke-linecap="round" stroke-linejoin="round" stroke-miterlimit="10"><circle cx="21.6" cy="32.7" fill="none" r="6.4"/><path d="m21 29.8-1.5 3.1c-.4.8-.2 1.8.5 2.4.9.8 2.4.8 3.3 0 .7-.6.9-1.6.5-2.4l-1.5-3.1c-.3-.5-1.1-.5-1.3 0z" fill="#87898c"/></g></svg>