<?xml version="1.0" encoding="utf-8"?>
<!-- Generator: Adobe Illustrator 16.0.0, SVG Export Plug-In . SVG Version: 6.00 Build 0)  -->
<!DOCTYPE svg PUBLIC "-//W3C//DTD SVG 1.1//EN" "http://www.w3.org/Graphics/SVG/1.1/DTD/svg11.dtd">
<svg version="1.1" id="Layer_1" xmlns="http://www.w3.org/2000/svg" xmlns:xlink="http://www.w3.org/1999/xlink" x="0px" y="0px"
	 width="512px" height="512px" viewBox="0 0 512 512" enable-background="new 0 0 512 512" xml:space="preserve">
<g>
	<g>
		<rect x="111.2" y="306.269" fill-rule="evenodd" clip-rule="evenodd" fill="#E9E9EB" width="45.601" height="149.944"/>
	</g>
	<g>
		<path fill="#395A7C" d="M156.8,460.157H111.2c-2.167,0-3.925-1.778-3.925-3.944V306.269c0-2.166,1.758-3.939,3.925-3.939H156.8
			c2.167,0,3.925,1.773,3.925,3.939v149.944C160.725,458.379,158.967,460.157,156.8,460.157z M115.124,452.272h37.752V310.214
			h-37.752V452.272z"/>
	</g>
	<g>
		<path fill-rule="evenodd" clip-rule="evenodd" fill="#BADCBE" d="M370.53,79.471c-35.337,43.26-46.844,103.776-24.896,159.393
			c4.084,10.37,9.163,20.103,15.059,29.048c35.337-43.184,46.844-103.771,24.896-159.387
			C381.503,98.154,376.425,88.491,370.53,79.471z"/>
	</g>
	<g>
		<path fill="#395A7C" d="M360.692,271.856c-1.279,0.318-2.539-0.678-3.285-1.778c-6.108-9.305-11.312-19.315-15.431-29.761
			c-21.682-54.938-11.897-117.518,25.517-163.332c0.799-0.996,2.096-1.738,3.25-1.419c1.244,0.035,2.398,0.707,3.072,1.773
			c6.18,9.448,11.383,19.465,15.432,29.725c21.7,55.014,11.915,117.593-25.517,163.338
			C362.983,271.323,361.864,271.856,360.692,271.856z M370.175,86.29c-32.798,43.148-40.861,100.543-20.883,151.119
			c3.249,8.272,7.191,16.227,11.755,23.724c32.815-43.12,40.877-100.544,20.883-151.154
			C378.734,101.846,374.792,93.891,370.175,86.29z"/>
	</g>
	<g opacity="0.42">
		<g>
			<defs>
				<rect id="SVGID_21_" x="334.447" y="149.438" width="62.329" height="118.474"/>
			</defs>
			<clipPath id="SVGID_2_">
				<use xlink:href="#SVGID_21_"  overflow="visible"/>
			</clipPath>
			<g clip-path="url(#SVGID_2_)">
				<path fill-rule="evenodd" clip-rule="evenodd" fill="#272323" d="M335.547,161.863c-2.983,25.288,0.071,51.643,10.086,77
					c1.598,4.049,3.338,7.955,5.221,11.859l0,0l0.142,0.283l0.107,0.146l0.035,0.069l0.142,0.359l0.036,0.068l0.106,0.141
					l0.142,0.283l0,0l0.143,0.284l0.071,0.214l0.071,0.07l0.142,0.289l0.035,0.069l0.107,0.214l0.106,0.284h0.036l0.142,0.284
					l0.072,0.139l0.071,0.145l0.142,0.284l0,0l0.142,0.284l0.107,0.215h0.035l0.142,0.283l0.071,0.14l0.071,0.145l0.143,0.284h0.036
					l0.106,0.283l0.106,0.208l0.071,0.076l0.142,0.284l0.036,0.068l0.106,0.215l0.143,0.215l0.142,0.284l0.106,0.208l0.071,0.075
					l0.142,0.284l0.035,0.069l0.107,0.215l0.142,0.213h0.036l0.143,0.284l0.071,0.139l0.07,0.146l0.143,0.284l0.035,0.069
					l0.142,0.214l0.106,0.215h0.035l0.143,0.284l0.071,0.139l0.106,0.145l0.142,0.284h0.035l0.107,0.284l0.142,0.139l0.035,0.07
					l0.142,0.289l0.072,0.14l0.106,0.145l0.142,0.284l0,0l0.178,0.208l0.106,0.215l0.036,0.068l0.142,0.285l0.072,0.074l0.106,0.14
					l0.142,0.283l0.178,0.284l0.106,0.145l0.071,0.14l0.142,0.214l0.035,0.069l0.143,0.215l0.142,0.214v0.07l0.178,0.215
					l0.071,0.145l0.106,0.139l0.142,0.284h0.036l0.143,0.214l0.107,0.215l0.071,0.069l0.142,0.283l0.071,0.07l0.106,0.145
					l0.177,0.284l0,0l0.143,0.284l0.142,0.139l0.035,0.075l0.178,0.283l0.035,0.07l0.107,0.139l0.178,0.284l0.143-0.139l0.142-0.214
					l0.142-0.141l0.142-0.214l0.142-0.145l0.142-0.209l0.143-0.145l0.177-0.214l0.071-0.07l0.035-0.069l0.142-0.215l0.142-0.214
					l0.177-0.139l0.143-0.215l0.106-0.145l0.142-0.208l0.142-0.146l0.143-0.215l0.07-0.068l0.071-0.07l0.143-0.215l0.142-0.145
					l0.142-0.208l0.142-0.146l0.142-0.214l0.142-0.209l0.143-0.145l0.142-0.215l0,0l0.106-0.139l0.178-0.214l0.106-0.145
					l0.142-0.209l0.143-0.215l0.142-0.145l0.142-0.208l0.106-0.146l0.106-0.139l0.035-0.076l0.143-0.139l0.143-0.214l0.142-0.215
					l0.142-0.139l0.106-0.214l0.142-0.215l0.142-0.14l0.143-0.214h0.036l0.071-0.145l0.142-0.209l0.142-0.215l0.142-0.145
					l0.106-0.214l0.143-0.14l0.142-0.215l0.142-0.213l0.106-0.14l0.142-0.215l0.106-0.214l0.142-0.139l0.143-0.215l0.106-0.214
					l0.142-0.139l0.142-0.215l0.106-0.214l0.106-0.07l0.036-0.068l0.143-0.215l0.106-0.146l0.142-0.215
					c20.847-30.896,30.685-68.686,26.316-106.753c-15.59,15.978-27.843,35.299-35.656,56.682
					C354.3,189.997,345.954,175.078,335.547,161.863z"/>
			</g>
			<g clip-path="url(#SVGID_2_)">
				<path fill="#395A7C" d="M360.87,271.393c-0.089,0-0.178,0-0.267,0c-1.19-0.139-2.61-0.389-3.25-1.385l-0.177-0.284
					c-0.017-0.068-0.089-0.179-0.178-0.318c-0.195-0.249-0.391-0.498-0.497-0.747c-0.213-0.214-0.355-0.458-0.497-0.747
					c-0.036-0.069-0.071-0.104-0.106-0.174c-0.143-0.179-0.267-0.394-0.391-0.603c-0.231-0.284-0.426-0.608-0.569-0.961
					c-0.106-0.141-0.177-0.285-0.213-0.354c-0.071-0.11-0.479-0.712-0.532-0.816c0-0.035-0.498-0.887-0.498-0.887
					c-0.142-0.18-0.427-0.643-0.533-0.816c-0.355-0.359-0.355-0.499-0.497-0.893c0,0-0.018-0.034-0.036-0.034l0.018-0.035
					c-0.018,0-0.018-0.035-0.035-0.069h0.018c-0.195-0.249-0.355-0.498-0.497-0.782l0.177-0.145
					c-0.248-0.209-0.479-0.458-0.674-0.742l0,0v-0.034c-0.089-0.11-0.426-0.679-0.498-0.857l0.621-0.458
					c-0.302-0.146-0.604-0.319-0.869-0.533l-0.25,0.104c-0.302-0.318-0.302-0.497-0.497-0.886h0.036
					c-0.107-0.145-0.196-0.318-0.285-0.498l0.071-0.034c-0.213-0.25-0.391-0.498-0.533-0.817l-0.462-0.921l0,0
					c-0.159-0.249-0.302-0.498-0.409-0.782c-0.426-0.429-0.319-0.499-0.515-1.066c-0.053-0.11-0.515-1.03-0.55-1.135
					c-2.113-4.23-3.889-8.245-5.522-12.363c-9.891-25.074-13.46-52.349-10.334-78.911c0.194-1.564,1.313-2.88,2.841-3.303
					c1.509-0.497,3.161,0.104,4.155,1.351c8.736,11.076,15.946,23.19,21.486,36.047c7.884-18.042,19.107-34.773,32.816-48.798
					c1.048-1.102,2.592-1.495,4.084-0.997c1.42,0.498,2.45,1.779,2.628,3.268c4.386,38.288-5.185,77.139-26.974,109.424
					c-0.177,0.354-0.479,0.777-0.817,1.136c-0.124,0.215-0.284,0.458-0.337,0.533c-0.035,0.07-0.585,0.852-0.621,0.887
					c-0.053,0.069-0.177,0.25-0.319,0.429c-0.178,0.284-0.391,0.603-0.569,0.776c-0.017,0.041-0.053,0.075-0.071,0.11h0.018
					c-0.018,0.034-0.053,0.069-0.088,0.139c-0.16,0.284-0.356,0.533-0.586,0.748c-0.142,0.214-0.479,0.712-0.693,0.961
					c-0.053,0.104-0.107,0.174-0.107,0.174c-0.106,0.18-0.515,0.678-0.656,0.782c-0.142,0.214-0.622,0.961-0.8,1.136
					c-0.142,0.214-0.532,0.747-0.709,0.927c-0.054,0.069-0.568,0.742-0.604,0.776c-0.196,0.289-0.568,0.747-0.835,0.927
					c-0.142,0.214-0.515,0.817-0.71,0.996C363.392,270.611,362.006,271.393,360.87,271.393z M359.715,258.891
					c0.089,0.145,0.178,0.249,0.231,0.395c0.195,0.214,0.533,0.852,0.675,1.135c0.089,0.104,0.302,0.498,0.444,0.747
					c0.142-0.179,0.55-0.747,0.586-0.815c0.142-0.215,0.444-0.644,0.639-0.818c0.178-0.394,0.373-0.567,0.674-0.852
					c0.125-0.214,0.444-0.747,0.64-0.961c0.106-0.214,0.213-0.354,0.213-0.354c0.196-0.394,0.444-0.678,0.746-0.962
					c0.177-0.388,0.479-0.852,0.781-1.135c0.142-0.319,0.355-0.638,0.586-0.922c0.054-0.075,0.089-0.145,0.106-0.145
					c19.196-28.445,28.447-62.006,26.548-95.532c-12.431,14.31-22.304,31-28.804,48.797c-0.568,1.559-2.042,2.59-3.693,2.59
					c0,0,0,0-0.018,0c-1.651-0.034-3.126-1.066-3.676-2.624c-4.422-12.328-10.405-24.014-17.811-34.807
					c-1.083,21.985,2.557,44.181,10.708,64.781c1.562,3.974,3.267,7.774,5.095,11.61c0.054,0.109,0.498,0.996,0.533,1.1
					c0.036,0.07,0.107,0.181,0.196,0.359c0.088,0.14,0.177,0.284,0.249,0.423c0.035,0.07,0.177,0.354,0.302,0.603
					c0.035,0.076,0.088,0.145,0.125,0.215c0,0.034,0.301,0.603,0.461,0.962c0.09,0.104,0.178,0.249,0.249,0.388l-0.071,0.069
					c0.285,0.319,0.498,0.712,0.675,1.101c0.054,0.11,0.089,0.18,0.142,0.284c0.071,0.11,0.373,0.678,0.515,0.927
					c0.089,0.14,0.16,0.284,0.231,0.423h-0.036c0.196,0.25,0.355,0.499,0.498,0.747c0.071,0.104,0.319,0.604,0.479,0.922
					c0.106,0.145,0.177,0.284,0.266,0.429l-0.054,0.069C359.378,258.289,359.574,258.572,359.715,258.891z"/>
			</g>
		</g>
	</g>
	<g>
		<path fill-rule="evenodd" clip-rule="evenodd" fill="#3D6941" d="M362.006,297.318c-7.742-59.451-7.565-108.249,0.994-166.849
			C363,130.47,373.122,221.46,362.006,297.318"/>
	</g>
	<g>
		<path fill-rule="evenodd" clip-rule="evenodd" fill="#BADCBE" d="M441.916,124.219c-48.728,27.205-81.685,79.34-81.685,139.081
			c0,11.222,1.171,22.089,3.338,32.599c48.727-27.205,81.685-79.34,81.685-139.075C445.254,145.602,444.081,134.733,441.916,124.219
			z"/>
	</g>
	<g>
		<path fill="#395A7C" d="M363.569,299.844c-0.55,0-1.119-0.145-1.633-0.359c-1.136-0.533-1.954-1.558-2.22-2.804
			c-2.254-11.007-3.409-22.235-3.409-33.381c0-59.063,32.07-113.688,83.691-142.522c1.119-0.568,2.45-0.568,3.552-0.145
			c1.137,0.532,1.954,1.564,2.22,2.805c2.254,11.012,3.409,22.234,3.409,33.386c0,59.063-32.071,113.684-83.691,142.522
			C364.883,299.665,364.226,299.844,363.569,299.844z M439.092,130.4c-46.365,28.092-74.937,78.487-74.937,132.899
			c0,8.806,0.763,17.646,2.237,26.423c46.365-28.097,74.936-78.488,74.936-132.899C441.329,148.018,440.565,139.172,439.092,130.4z"
			/>
	</g>
	<g>
		<path fill-rule="evenodd" clip-rule="evenodd" fill="#3D6941" d="M363.569,295.898c16.621-57.604,36.296-102.281,67.479-152.572
			C431.048,143.326,404.056,230.765,363.569,295.898"/>
	</g>
	<g>
		<path fill-rule="evenodd" clip-rule="evenodd" fill="#BADCBE" d="M278.581,124.219c48.727,27.205,81.65,79.34,81.65,139.081
			c0,11.222-1.137,22.089-3.338,32.599c-48.728-27.205-81.649-79.34-81.649-139.075
			C275.243,145.602,276.379,134.733,278.581,124.219z"/>
	</g>
	<g>
		<path fill="#395A7C" d="M356.893,299.844c-0.657,0-1.314-0.179-1.918-0.498c-51.604-28.839-83.655-83.424-83.655-142.522
			c0-11.332,1.154-22.553,3.426-33.421c0.25-1.205,1.066-2.237,2.202-2.77c1.155-0.424,2.451-0.424,3.551,0.145
			c51.604,28.834,83.656,83.424,83.656,142.522c0,11.326-1.155,22.548-3.428,33.415c-0.248,1.212-1.065,2.236-2.202,2.77
			C358.011,299.699,357.443,299.844,356.893,299.844z M281.405,130.4c-1.491,8.633-2.237,17.508-2.237,26.423
			c0,54.411,28.572,104.843,74.901,132.899c1.492-8.632,2.237-17.513,2.237-26.423C356.306,208.888,327.734,158.458,281.405,130.4z"
			/>
	</g>
	<g>
		<path fill-rule="evenodd" clip-rule="evenodd" fill="#3D6941" d="M356.893,295.898c-33.207-49.863-54.623-93.759-72.877-150.088
			C284.016,145.811,333.311,222.954,356.893,295.898"/>
	</g>
	<g>
		<path fill-rule="evenodd" clip-rule="evenodd" fill="#C4CCD5" d="M241.61,304.068l3.587,12.501
			c11.151,3.198,24.47,9.089,34.45,19.604c20.776,21.945,64.034,27.704,74.972,47.877c10.974,20.241,9.554,30.611-0.249,35.229
			c-9.838,4.617-23.085-4.05-51.355-16.123c-17.687-7.601-30.827-18.753-38.214-26.14l53.805,57.036h116.525
			c0,0,15.235,1.986,23.048-11.575c0.213-0.359,0.427-0.782,0.64-1.211c6.5-13.921,23.831-84.456,31.963-118.335
			c8.595,1.918,13.39-15.77,4.297-18.186l-8.275-2.624c-66.413-22.733-184.607-18.614-250.736,2.624
			C223.853,288.014,229.535,307.479,241.61,304.068L241.61,304.068z"/>
	</g>
	<g opacity="0.25">
		<path fill-rule="evenodd" clip-rule="evenodd" fill="#272323" d="M490.5,302.862c-121.035-37.506-219.98-9.021-248.889,1.136
			l2.06,7.172c28.518-9.803,111.943-32.6,216.18-8.667h0.071h0.071l0.107,0.076c2.237,0.637,14.028,4.825,11.933,23.155
			l-15.52,59.521c0,0-23.156,5.47-19.71,25.074l3.871,11.935h-59.629c0,0-1.918-31.609-24.612-50.078
			c-22.694-18.47-87.544-44.962-87.544-44.962l0,0c3.8,2.56,7.458,5.538,10.761,8.95c20.776,21.945,64.034,27.704,74.972,47.877
			c10.974,20.241,9.554,30.611-0.249,35.229c-9.838,4.617-23.085-4.05-51.355-16.123c-17.687-7.601-30.827-18.753-38.214-26.14
			l53.805,57.036h116.525c0,0,15.235,1.986,23.048-11.575c0.213-0.359,0.427-0.782,0.64-1.211
			c6.073-12.926,21.558-75.221,30.188-111.019l0.177-0.781l0.427-1.703l0.391-1.635l0.781-3.197
			C490.677,302.932,490.571,302.932,490.5,302.862"/>
	</g>
	<g>
		<rect x="12.006" y="293.559" fill-rule="evenodd" clip-rule="evenodd" fill="#383E4F" width="110.771" height="175.37"/>
	</g>
	<g>
		<path fill="#395A7C" d="M118.835,297.463H15.949v167.486h102.887V297.463z M12.006,289.578h0.213h110.558
			c2.167,0,3.907,1.779,3.907,3.98v0.208v175.162c0,2.132-1.74,3.905-3.907,3.905h-0.213H12.006c-2.167,0-3.907-1.773-3.907-3.905
			v-0.214V293.559C8.099,291.357,9.839,289.578,12.006,289.578z"/>
	</g>
	<g>
		<path fill-rule="evenodd" clip-rule="evenodd" fill="#272323" d="M87.439,430.93c8.133,0,14.739,6.604,14.739,14.772
			c0,8.169-6.606,14.773-14.739,14.773c-8.168,0-14.774-6.604-14.774-14.773C72.665,437.534,79.271,430.93,87.439,430.93"/>
	</g>
	<g>
		<path fill-rule="evenodd" clip-rule="evenodd" fill="#ABB0B7" d="M87.049,434.406c6.712,0,12.11,5.468,12.11,12.147
			c0,6.675-5.398,12.073-12.11,12.073c-6.677,0-12.075-5.398-12.075-12.073C74.974,439.874,80.373,434.406,87.049,434.406"/>
	</g>
	<g>
		<path fill-rule="evenodd" clip-rule="evenodd" fill="#F6DDD1" d="M156.8,312.52v139.933c0,0,50.645,32.744,61.974,35.728
			c11.33,3.053,192.917,4.617,209.965,0c17.083-4.547,44.288-7.531,49.97-28.839c2.805-10.37-1.492-14.918-9.661-16.621
			c-8.63-1.849-21.487-0.638-35.089-0.07c-26.53,1.136-107.29,0-107.29,0l-8.063-8.597l-53.805-57.036
			c7.387,7.387,20.527,18.539,38.214,26.14c28.27,12.073,41.517,20.74,51.355,16.123c9.802-4.617,11.222-14.987,0.249-35.229
			c-10.938-20.173-54.196-25.932-74.972-47.877c-9.98-10.516-23.298-16.406-34.45-19.604c-12.039-3.552-21.522-4.05-21.522-4.05
			H156.8z"/>
	</g>
	<g>
		<path fill="#395A7C" d="M152.894,452.452V312.52v-3.904h3.906h66.875c0.035,0,10.122,0.498,22.623,4.188
			c5.789,1.634,12.146,4.05,18.396,7.387c6.287,3.343,12.501,7.745,17.793,13.284c9.305,9.871,23.937,16.552,37.752,22.727
			c16.23,7.393,31.502,14.281,37.859,26h-0.036c5.825,10.725,8.382,19.107,8.133,25.428c-0.284,7.387-3.871,12.218-10.157,15.202
			h-0.035c-9.234,4.333-19.534-0.354-37.752-8.668l0,0c-4.936-2.201-10.548-4.756-16.763-7.455c-2.024-0.852-3.978-1.778-5.86-2.7
			l25.819,27.414l6.891,7.317h105.621l7.139-0.354c11.045-0.567,21.202-1.136,28.731,0.498c5.079,1.066,9.057,3.123,11.437,6.75l0,0
			c2.344,3.55,2.947,8.378,1.243,14.772c-5.469,20.457-27.346,25.572-44.891,29.69c-2.806,0.638-5.54,1.274-7.849,1.918
			c-8.026,2.132-49.614,2.983-93.795,2.983c-53.699,0-111.695-1.279-118.194-2.983c-11.933-3.197-62.967-36.226-63.074-36.296
			l-1.812-1.141V452.452z M160.743,316.499V450.32c9.057,5.822,49.508,31.539,59.026,34.094c5.931,1.564,63.039,2.769,116.205,2.769
			c43.648,0,84.455-0.782,91.771-2.769l0,0c2.628-0.713,5.327-1.35,8.097-1.988c15.485-3.625,34.84-8.168,39.102-24.082
			c1.065-3.975,0.888-6.674-0.213-8.383l0,0c-1.101-1.703-3.409-2.77-6.5-3.407c-6.535-1.419-16.194-0.92-26.743-0.353l0,0
			l-7.316,0.353h-0.213h-107.29H325l-1.172-1.204l-8.097-8.597l-53.487-56.683l-0.213-0.215l0,0l-0.106-0.139l5.611-5.469
			c3.622,3.551,8.63,8.093,14.81,12.571c6.215,4.473,13.673,9.021,22.196,12.71c6.393,2.7,12.004,5.262,16.94,7.532l0,0
			c16.125,7.316,25.216,11.505,31.218,8.667c3.48-1.634,5.504-4.334,5.682-8.314c0.178-5.04-2.06-12.003-7.174-21.445h-0.036
			c-5.114-9.45-19.178-15.84-34.13-22.59c-14.49-6.534-29.833-13.497-40.238-24.505c-4.653-4.901-10.193-8.736-15.805-11.79
			c-5.683-3.059-11.542-5.26-16.905-6.749c-11.507-3.413-20.386-3.836-20.421-3.836H160.743z"/>
	</g>
	<g>
		<path fill-rule="evenodd" clip-rule="evenodd" fill="#E1CBC1" d="M435.132,434.053H318.607l8.063,8.597c0,0,80.76,1.136,107.29,0
			c13.602-0.567,26.459-1.778,35.089,0.07c0,0,5.647-9.235,1.244-15.485c-4.369-6.251-11.472-5.968-11.472-5.968l-0.64,1.211
			C450.368,436.039,435.132,434.053,435.132,434.053"/>
	</g>
	<g>
		<path fill="#395A7C" d="M318.607,430.147h116.525h0.461l0.462,0.14c0.036,0,12.11,1.495,18.646-9.658l0.639-1.135l1.101-2.133
			h2.379c0,0,9.092-0.353,14.703,7.601c5.825,8.309-1.207,19.889-1.242,19.889l-1.457,2.272l-2.593-0.569
			c-6.535-1.419-16.194-0.92-26.743-0.353l0,0l-7.316,0.353h-0.213h-107.29H325l-1.172-1.204l-8.097-8.597l-6.216-6.605H318.607z
			 M435.132,438.033H327.664l0.675,0.706h105.621l7.139-0.354c9.66-0.498,18.645-0.996,25.784,0
			c0.994-2.416,2.095-6.181,0.213-8.882c-1.847-2.624-4.368-3.689-6.145-4.043c-8.061,12.711-22.09,12.711-25.818,12.496V438.033z"
			/>
	</g>
	<g opacity="0.15">
		<path fill-rule="evenodd" clip-rule="evenodd" fill="#272323" d="M122.777,456.213v12.716H12.006v-55.762H111.2h11.577H156.8
			h14.774c0,0,53.521,52.141,110.736,56.757c57.25,4.617,170.472,0,170.472,0h20.386c-10.406,12.005-30.686,14.629-44.43,18.256
			c-17.047,4.617-198.635,3.053-209.965,0c-11.329-2.983-61.974-35.728-61.974-35.728v3.761H122.777z"/>
	</g>
	<g>
		<path fill-rule="evenodd" clip-rule="evenodd" fill="#F3BE53" d="M361.438,20.941c38.428,0,69.575,31.11,69.575,69.537
			s-31.147,69.613-69.575,69.613c-38.427,0-69.538-31.187-69.538-69.613S323.011,20.941,361.438,20.941z"/>
	</g>
	<g>
		<path fill="#395A7C" d="M361.438,164.03c-40.504,0-73.462-32.992-73.462-73.552c0-40.519,32.958-73.478,73.462-73.478
			c40.523,0,73.499,32.959,73.499,73.478C434.937,131.038,401.961,164.03,361.438,164.03z M361.438,24.886
			c-36.172,0-65.613,29.407-65.613,65.593c0,36.226,29.441,65.667,65.613,65.667c36.191,0,65.649-29.441,65.649-65.667
			C427.087,54.293,397.628,24.886,361.438,24.886z"/>
	</g>
	<g>
		<path fill-rule="evenodd" clip-rule="evenodd" fill="#F4E597" d="M361.438,25.135c36.119,0,65.384,29.263,65.384,65.344
			c0,36.156-29.265,65.418-65.384,65.418c-36.118,0-65.383-29.262-65.383-65.418C296.055,54.397,325.319,25.135,361.438,25.135"/>
	</g>
	<g>
		<path fill-rule="evenodd" clip-rule="evenodd" fill="#D1C476" d="M361.438,36.71c29.691,0,53.771,24.078,53.771,53.769
			s-24.079,53.773-53.771,53.773c-29.69,0-53.769-24.083-53.769-53.773S331.748,36.71,361.438,36.71"/>
	</g>
	<g>
		<path fill="#395A7C" d="M357.424,114.914l0.587-21.736c-6.731-2.125-11.614-5.186-14.704-9.193
			c-3.055-4.016-4.493-8.812-4.333-14.42c0.142-5.684,2.059-10.411,5.753-14.17c3.676-3.766,8.505-5.828,14.49-6.251l0.142-5.151
			l7.529,0.215l-0.142,5.109c5.452,0.817,9.802,2.81,12.945,6.002c3.179,3.163,5.132,7.352,5.914,12.611L372.43,69.28
			c-0.675-4.118-2.699-6.964-6.002-8.492l-0.55,20.282c8.221,2.484,13.814,5.573,16.709,9.234c2.913,3.655,4.315,8.272,4.173,13.887
			c-0.178,6.251-2.237,11.471-6.109,15.659c-3.924,4.194-9.251,6.68-16.017,7.462l-0.267,9.692l-7.529-0.181l0.249-9.442
			c-5.984-0.886-10.779-3.268-14.419-7.103c-3.622-3.835-5.86-9.165-6.729-16.019l13.602-1.101c0.462,2.804,1.456,5.22,2.895,7.248
			C353.909,112.464,355.578,113.958,357.424,114.914z M358.899,60.434c-2.078,0.644-3.729,1.778-4.99,3.378
			c-1.261,1.634-1.901,3.477-1.954,5.469c-0.053,1.843,0.461,3.552,1.527,5.151c1.047,1.633,2.681,2.908,4.937,3.973L358.899,60.434
			z M364.937,115.836c2.611-0.423,4.741-1.559,6.428-3.406c1.687-1.918,2.557-4.12,2.628-6.715c0.053-2.306-0.586-4.334-1.9-6.071
			c-1.332-1.704-3.534-3.053-6.605-4.015L364.937,115.836z"/>
	</g>
	<g>
		<path fill="#395A7C" d="M241.433,317.635l-2.664-9.233c-4.368,0-7.991-2.202-10.335-5.399h-0.035
			c-1.101-1.489-1.953-3.269-2.486-5.186c-0.497-1.773-0.675-3.766-0.497-5.607c0.497-5.047,3.517-9.595,9.661-11.228
			c34.484-11.077,82.892-17.543,130.802-18.041c44.961-0.423,89.64,4.333,122.136,15.485l8.204,2.556
			c5.007,1.425,7.316,5.544,7.635,10.161c0.142,1.634-0.035,3.476-0.461,5.186l0,0c-0.426,1.703-1.101,3.337-1.989,4.824l0,0
			c-1.776,2.916-4.368,5.116-7.565,5.684c-4.084,17.12-10.122,41.695-15.84,63.716c-6.215,23.793-12.253,45.177-15.626,52.349
			l-0.071,0.145l-0.64,1.205l-0.071,0.145c-7.919,13.777-22.623,13.777-26.458,13.563v0.076H318.607h-1.705l-1.171-1.28
			l-53.487-56.683l-0.213-0.215l0,0l-0.106-0.139l5.611-5.469c3.622,3.551,8.63,8.093,14.81,12.571
			c6.215,4.473,13.673,9.021,22.196,12.71c6.393,2.7,12.004,5.262,16.94,7.532l0,0c16.125,7.316,25.216,11.505,31.218,8.667
			c3.48-1.634,5.504-4.334,5.682-8.314c0.178-5.04-2.06-12.003-7.174-21.445h-0.036c-5.114-9.45-19.178-15.84-34.13-22.59
			c-14.49-6.534-29.833-13.497-40.238-24.505c-4.653-4.901-10.193-8.736-15.805-11.79c-5.683-3.059-11.542-5.26-16.905-6.749
			l-2.096-0.644L241.433,317.635z M245.375,303.002l3.02,10.37c5.185,1.708,10.796,3.91,16.301,6.818
			c6.287,3.343,12.501,7.745,17.793,13.284c9.305,9.871,23.937,16.552,37.752,22.727c16.23,7.393,31.502,14.281,37.859,26h-0.036
			c5.825,10.725,8.382,19.107,8.133,25.428c-0.284,7.387-3.871,12.218-10.157,15.202h-0.035c-9.234,4.333-19.534-0.354-37.752-8.668
			l0,0c-4.936-2.201-10.548-4.756-16.763-7.455c-2.024-0.852-3.978-1.778-5.86-2.7l24.647,26.14h114.856h0.461l0.462,0.14
			c0.036,0,12.11,1.495,18.646-9.658l0.604-1.135c3.161-6.818,9.021-27.635,15.094-50.86c6.214-23.938,12.572-49.862,16.585-66.623
			l0.888-3.696l3.729,0.781c1.172,0.285,2.309-0.636,3.125-1.986l0,0c0.461-0.781,0.817-1.709,1.065-2.63l0,0
			c0.213-0.921,0.284-1.918,0.248-2.839l0,0c-0.106-1.495-0.709-2.774-1.953-3.059l-0.177-0.069l-8.275-2.631h-0.107
			c-31.644-10.862-75.433-15.556-119.579-15.057c-47.235,0.498-94.896,6.819-128.671,17.688l-0.178,0.069
			c-2.486,0.643-3.694,2.415-3.871,4.402l0,0c-0.106,0.927,0,1.849,0.248,2.774c0.249,0.922,0.675,1.773,1.208,2.556l0,0
			c1.244,1.634,3.338,2.699,5.86,1.986l0.533-0.208h0.533l0,0h2.948L245.375,303.002z"/>
	</g>
</g>
</svg>
